mtllib original_leaf.mtl
o OriginalLeafSegment
usemtl OriginalFoliage
v -0.020085345 0.016430936 0.021573772
v -0.001450063 0.005112228 0.021573772
v -0.066120232 -0.030780866 0.130925360
v -0.035963012 -0.049097773 0.130925360
v -0.005805798 -0.067414680 0.130925360
v 0.017185216 -0.006206479 0.021573772
v -0.002283509 0.003740040 0.020976939
v -0.020863057 0.015150503 0.020743480
v -0.036674358 -0.050268855 0.129897585
v -0.066802652 -0.031904277 0.129827204
v -0.006472344 -0.068511953 0.129791584
v 0.016387801 -0.007519361 0.020815983
v 0.017185216 -0.006206479 0.021573772
v 0.016387801 -0.007519361 0.020815983
v -0.020085345 0.016430936 0.021573772
v -0.020863057 0.015150503 0.020743480
v -0.066120232 -0.030780866 0.130925360
v -0.066802652 -0.031904277 0.129827204
v -0.005805798 -0.067414680 0.130925360
v -0.006472344 -0.068511953 0.129791584
vt 0.400791198 0.181188390
vt 0.330271900 0.171709999
vt 0.411365151 0.277013749
vt 0.332790196 0.260787129
vt 0.247234851 0.264596015
vt 0.256262422 0.174939945
vt 0.330271900 0.171709999
vt 0.400791198 0.181188390
vt 0.332790196 0.260787129
vt 0.411365151 0.277013749
vt 0.247234851 0.264596015
vt 0.256262422 0.174939945
vt 0.256262422 0.174939945
vt 0.256262422 0.174939945
vt 0.400791198 0.181188390
vt 0.400791198 0.181188390
vt 0.411365151 0.277013749
vt 0.411365151 0.277013749
vt 0.247234851 0.264596015
vt 0.247234851 0.264596015
vn 0.483155611 0.795474177 0.365761520
vn 0.486590940 0.801129977 0.348453751
vn 0.426235880 0.676594370 0.600452357
vn 0.425683776 0.676616206 0.600819302
vn 0.423350092 0.672032290 0.607574934
vn 0.485090808 0.798659650 0.356131536
vn -0.486592244 -0.800757744 -0.349306489
vn -0.484150691 -0.795462700 -0.364468383
vn -0.425499188 -0.676666120 -0.600893837
vn -0.425874980 -0.677013580 -0.600235882
vn -0.423548670 -0.672243120 -0.607203188
vn -0.484743898 -0.799320765 -0.355119231
vn 0.871094807 -0.486679932 -0.065851970
vn 0.870019250 -0.488855626 -0.063927151
vn -0.809370644 0.570452295 -0.139654359
vn -0.808058393 0.569991299 -0.148833977
vn -0.841340578 0.539171621 -0.037947255
vn -0.839556839 0.541633584 -0.042158911
vn 0.870728985 -0.489711263 -0.044876651
vn 0.871442433 -0.488159118 -0.047841001
f 2/2/2 1/1/1 3/3/3
f 2/2/2 3/3/3 4/4/4
f 6/6/6 2/2/2 4/4/4
f 6/6/6 4/4/4 5/5/5
f 7/7/7 9/9/9 10/10/10
f 7/7/7 10/10/10 8/8/8
f 12/12/12 11/11/11 9/9/9
f 12/12/12 9/9/9 7/7/7
f 17/17/17 15/15/15 16/16/16
f 17/17/17 16/16/16 18/18/18
f 13/13/13 19/19/19 20/20/20
f 13/13/13 20/20/20 14/14/14
