mtllib original_leaf.mtl
o OriginalLeafSegment
usemtl OriginalFoliage
v -0.035496881 0.012751334 0.024534348
v -0.006603429 -0.007582576 0.024482754
v -0.077290681 -0.101645095 0.069273594
v -0.059838250 -0.114717967 0.066587761
v -0.042385819 -0.127790815 0.063901928
v 0.022290024 -0.027916474 0.024431112
v -0.007092622 -0.008387668 0.023052242
v -0.036117926 0.011729043 0.023308399
v -0.059958890 -0.114915878 0.064890745
v -0.077590874 -0.102138812 0.067661217
v -0.042657855 -0.128238184 0.062271145
v 0.021801981 -0.028719670 0.022999170
v -0.035496881 0.012751334 0.024534348
v -0.036117926 0.011729043 0.023308399
v 0.022290024 -0.027916474 0.024431112
v 0.021801981 -0.028719670 0.022999170
v -0.077290681 -0.101645095 0.069273594
v -0.077590874 -0.102138812 0.067661217
v -0.042385819 -0.127790815 0.063901928
v -0.042657855 -0.128238184 0.062271145
vt 0.403920591 0.349392712
vt 0.328033954 0.338133961
vt 0.377589107 0.418812752
vt 0.330643177 0.435432285
vt 0.274351031 0.412601620
vt 0.251512617 0.340808421
vt 0.328033954 0.338133961
vt 0.403920591 0.349392712
vt 0.330643177 0.435432285
vt 0.377589107 0.418812752
vt 0.274351031 0.412601620
vt 0.251512617 0.340808421
vt 0.403920591 0.349392712
vt 0.403920591 0.349392712
vt 0.251512617 0.340808421
vt 0.251512617 0.340808421
vt 0.377589107 0.418812752
vt 0.377589107 0.418812752
vt 0.274351031 0.412601620
vt 0.274351031 0.412601620
vn 0.339735726 0.467638226 0.816023361
vn 0.326537668 0.441772788 0.835589586
vn 0.182445872 0.122714541 0.975527880
vn 0.155663932 0.067848047 0.985477236
vn 0.158507178 0.077763287 0.984290783
vn 0.318473581 0.427919005 0.845848629
vn -0.326978599 -0.442097999 -0.835245087
vn -0.339294301 -0.466543398 -0.816833297
vn -0.156563881 -0.068633863 -0.985280236
vn -0.182633623 -0.119902678 -0.975842358
vn -0.157202005 -0.076079115 -0.984631656
vn -0.318802774 -0.427735358 -0.845817507
vn -0.891079497 0.450836635 0.052188677
vn -0.897972308 0.435698372 0.061746766
vn 0.852407933 -0.522876204 -0.001091457
vn 0.852098950 -0.523380225 -0.000721567
vn -0.956721301 0.280147807 0.078749974
vn -0.965562816 0.249932869 0.072263472
vn 0.746977462 -0.664363992 0.025399957
vn 0.723736564 -0.689495366 0.028311235
f 2/2/2 1/1/1 3/3/3
f 2/2/2 3/3/3 4/4/4
f 6/6/6 2/2/2 4/4/4
f 6/6/6 4/4/4 5/5/5
f 7/7/7 9/9/9 10/10/10
f 7/7/7 10/10/10 8/8/8
f 12/12/12 11/11/11 9/9/9
f 12/12/12 9/9/9 7/7/7
f 17/17/17 13/13/13 14/14/14
f 17/17/17 14/14/14 18/18/18
f 15/15/15 19/19/19 20/20/20
f 15/15/15 20/20/20 16/16/16
