mtllib original_leaf.mtl
o OriginalLeafSegment
usemtl OriginalFoliage
v -0.043120232 0.009219134 0.030925360
v -0.012963012 -0.009097773 0.030925360
v -0.079496881 -0.055248666 0.111534348
v -0.050603429 -0.075582576 0.111482754
v -0.021709976 -0.095916474 0.111431112
v 0.017194202 -0.027414680 0.030925360
v -0.013674358 -0.010268855 0.029897585
v -0.043802652 0.008095723 0.029827204
v -0.051092622 -0.076387668 0.110052242
v -0.080117926 -0.056270957 0.110308399
v -0.022198019 -0.096719670 0.109999170
v 0.016527656 -0.028511953 0.029791584
v -0.043120232 0.009219134 0.030925360
v -0.043802652 0.008095723 0.029827204
v 0.017194202 -0.027414680 0.030925360
v 0.016527656 -0.028511953 0.029791584
v -0.079496881 -0.055248666 0.111534348
v -0.080117926 -0.056270957 0.110308399
v -0.021709976 -0.095916474 0.111431112
v -0.022198019 -0.096719670 0.109999170
vt 0.411365151 0.277013749
vt 0.332790196 0.260787129
vt 0.403920591 0.349392712
vt 0.328033954 0.338133961
vt 0.251512617 0.340808421
vt 0.247234851 0.264596015
vt 0.332790196 0.260787129
vt 0.411365151 0.277013749
vt 0.328033954 0.338133961
vt 0.403920591 0.349392712
vt 0.251512617 0.340808421
vt 0.247234851 0.264596015
vt 0.411365151 0.277013749
vt 0.411365151 0.277013749
vt 0.247234851 0.264596015
vt 0.247234851 0.264596015
vt 0.403920591 0.349392712
vt 0.403920591 0.349392712
vt 0.251512617 0.340808421
vt 0.251512617 0.340808421
vn 0.426235880 0.676594370 0.600452357
vn 0.425683776 0.676616206 0.600819302
vn 0.339735726 0.467638226 0.816023361
vn 0.326537668 0.441772788 0.835589586
vn 0.318473581 0.427919005 0.845848629
vn 0.423350092 0.672032290 0.607574934
vn -0.425499188 -0.676666120 -0.600893837
vn -0.425874980 -0.677013580 -0.600235882
vn -0.326978599 -0.442097999 -0.835245087
vn -0.339294301 -0.466543398 -0.816833297
vn -0.318802774 -0.427735358 -0.845817507
vn -0.423548670 -0.672243120 -0.607203188
vn -0.841340578 0.539171621 -0.037947255
vn -0.839556839 0.541633584 -0.042158911
vn 0.870728985 -0.489711263 -0.044876651
vn 0.871442433 -0.488159118 -0.047841001
vn -0.891079497 0.450836635 0.052188677
vn -0.897972308 0.435698372 0.061746766
vn 0.852407933 -0.522876204 -0.001091457
vn 0.852098950 -0.523380225 -0.000721567
f 2/2/2 1/1/1 3/3/3
f 2/2/2 3/3/3 4/4/4
f 6/6/6 2/2/2 4/4/4
f 6/6/6 4/4/4 5/5/5
f 7/7/7 9/9/9 10/10/10
f 7/7/7 10/10/10 8/8/8
f 12/12/12 11/11/11 9/9/9
f 12/12/12 9/9/9 7/7/7
f 17/17/17 13/13/13 14/14/14
f 17/17/17 14/14/14 18/18/18
f 15/15/15 19/19/19 20/20/20
f 15/15/15 20/20/20 16/16/16
