mtllib original_leaf.mtl
o OriginalLeafSegment
usemtl OriginalFoliage
v 0.000765767 0.002420236 0.000028944
v -0.005909369 0.006474580 0.000028944
v -0.035085345 0.001430936 0.106573772
v -0.016450063 -0.009887772 0.106573772
v 0.002185216 -0.021206479 0.106573772
v 0.007440903 -0.001634114 0.000028944
v -0.000108937 0.000980110 -0.000278759
v -0.017283509 -0.011259960 0.105976939
v -0.035863057 0.000150503 0.105743480
v -0.006784073 0.005034460 -0.000278759
v 0.001387801 -0.022519361 0.105815983
v 0.006566199 -0.003074239 -0.000278759
v 0.007440903 -0.001634114 0.000028944
v 0.002185216 -0.021206479 0.106573772
v 0.001387801 -0.022519361 0.105815983
v 0.006566199 -0.003074239 -0.000278759
v -0.005909369 0.006474580 0.000028944
v 0.000765767 0.002420236 0.000028944
v -0.000108937 0.000980110 -0.000278759
v -0.006784073 0.005034460 -0.000278759
v -0.035085345 0.001430936 0.106573772
v -0.005909369 0.006474580 0.000028944
v -0.006784073 0.005034460 -0.000278759
v -0.035863057 0.000150503 0.105743480
v 0.007440903 -0.001634114 0.000028944
v 0.006566199 -0.003074239 -0.000278759
vt 0.328089833 0.064793929
vt 0.344108820 0.059856467
vt 0.400791198 0.181188390
vt 0.330271900 0.171709999
vt 0.256262422 0.174939945
vt 0.316259027 0.060063750
vt 0.328089833 0.064793929
vt 0.330271900 0.171709999
vt 0.400791198 0.181188390
vt 0.344108820 0.059856467
vt 0.256262422 0.174939945
vt 0.316259027 0.060063750
vt 0.316259027 0.060063750
vt 0.256262422 0.174939945
vt 0.256262422 0.174939945
vt 0.316259027 0.060063750
vt 0.344108820 0.059856467
vt 0.328089833 0.064793929
vt 0.328089833 0.064793929
vt 0.344108820 0.059856467
vt 0.400791198 0.181188390
vt 0.344108820 0.059856467
vt 0.344108820 0.059856467
vt 0.400791198 0.181188390
vt 0.316259027 0.060063750
vt 0.316259027 0.060063750
vn 0.510681203 0.840792641 0.179645327
vn 0.510680994 0.840792770 0.179645316
vn 0.483155611 0.795474177 0.365761520
vn 0.486590940 0.801129977 0.348453751
vn 0.485090808 0.798659650 0.356131536
vn 0.510681298 0.840792581 0.179645339
vn -0.510990810 -0.840676447 -0.179308404
vn -0.486592244 -0.800757744 -0.349306489
vn -0.484150691 -0.795462700 -0.364468383
vn -0.512540928 -0.839709305 -0.179415944
vn -0.484743898 -0.799320765 -0.355119231
vn -0.509583957 -0.841550839 -0.179210426
vn 0.862124756 -0.504201923 -0.050212805
vn 0.871094807 -0.486679932 -0.065851970
vn 0.870019250 -0.488855626 -0.063927151
vn 0.862124756 -0.504201923 -0.050212805
vn 0.093258957 0.153544074 -0.983731154
vn 0.093258883 0.153543968 -0.983731178
vn 0.093258890 0.153543968 -0.983731177
vn 0.093258957 0.153544074 -0.983731154
vn -0.809370644 0.570452295 -0.139654359
vn -0.800744131 0.567074905 -0.192963440
vn -0.800744131 0.567074905 -0.192963440
vn -0.808058393 0.569991299 -0.148833977
vn 0.093258821 0.153543864 -0.983731200
vn 0.093258821 0.153543864 -0.983731200
f 1/1/1 2/2/2 3/3/3
f 1/1/1 3/3/3 4/4/4
f 6/6/6 1/1/1 4/4/4
f 6/6/6 4/4/4 5/5/5
f 7/7/7 8/8/8 9/9/9
f 7/7/7 9/9/9 10/10/10
f 12/12/12 11/11/11 8/8/8
f 12/12/12 8/8/8 7/7/7
f 13/13/13 14/14/14 15/15/15
f 13/13/13 15/15/15 16/16/16
f 17/17/17 18/18/18 19/19/19
f 17/17/17 19/19/19 20/20/20
f 21/21/21 22/22/22 23/23/23
f 21/21/21 23/23/23 24/24/24
f 18/18/18 25/25/25 26/26/26
f 18/18/18 26/26/26 19/19/19
