mtllib original_leaf.mtl
o OriginalLeafSegment
usemtl OriginalFoliage
v -0.024290681 -0.011645095 0.013273594
v -0.006838250 -0.024717967 0.010587761
v -0.031016243 -0.054242508 0.008834955
v -0.025946999 -0.058086555 0.007948467
v -0.033853352 -0.065134518 0.002223179
v -0.031946230 -0.066580717 0.001889679
v -0.020877767 -0.061930577 0.007061932
v -0.030039084 -0.068026893 0.001556131
v 0.010614181 -0.037790815 0.007901928
v -0.006958890 -0.024915878 0.008890745
v -0.024590874 -0.012138812 0.011661217
v -0.025685048 -0.057654588 0.006311819
v -0.030938947 -0.054114429 0.007128736
v -0.031494892 -0.065837185 0.000414154
v -0.033402026 -0.064390985 0.000747654
v -0.020803142 -0.061806910 0.005355236
v -0.029587758 -0.067283360 0.000080654
v 0.010342145 -0.038238184 0.006271145
v -0.024290681 -0.011645095 0.013273594
v -0.024590874 -0.012138812 0.011661217
v 0.010614181 -0.037790815 0.007901928
v 0.010342145 -0.038238184 0.006271145
v -0.031016243 -0.054242508 0.008834955
v -0.030938947 -0.054114429 0.007128736
v -0.020877767 -0.061930577 0.007061932
v -0.020803142 -0.061806910 0.005355236
v -0.030039084 -0.068026893 0.001556131
v -0.031946230 -0.066580717 0.001889679
v -0.031494892 -0.065837185 0.000414154
v -0.029587758 -0.067283360 0.000080654
v -0.033853352 -0.065134518 0.002223179
v -0.033402026 -0.064390985 0.000747654
v -0.030039084 -0.068026893 0.001556131
v -0.029587758 -0.067283360 0.000080654
v -0.033853352 -0.065134518 0.002223179
v -0.033402026 -0.064390985 0.000747654
vt 0.377589107 0.418812752
vt 0.330643177 0.435432285
vt 0.346502602 0.479757130
vt 0.332547158 0.481244802
vt 0.338624567 0.498217136
vt 0.334941536 0.499245673
vt 0.317458898 0.476512909
vt 0.330632359 0.498998433
vt 0.274351031 0.412601620
vt 0.330643177 0.435432285
vt 0.377589107 0.418812752
vt 0.332547158 0.481244802
vt 0.346502602 0.479757130
vt 0.334941536 0.499245673
vt 0.338624567 0.498217136
vt 0.317458898 0.476512909
vt 0.330632359 0.498998433
vt 0.274351031 0.412601620
vt 0.377589107 0.418812752
vt 0.377589107 0.418812752
vt 0.274351031 0.412601620
vt 0.274351031 0.412601620
vt 0.346502602 0.479757130
vt 0.346502602 0.479757130
vt 0.317458898 0.476512909
vt 0.317458898 0.476512909
vt 0.330632359 0.498998433
vt 0.334941536 0.499245673
vt 0.334941536 0.499245673
vt 0.330632359 0.498998433
vt 0.338624567 0.498217136
vt 0.338624567 0.498217136
vt 0.330632359 0.498998433
vt 0.330632359 0.498998433
vt 0.338624567 0.498217136
vt 0.338624567 0.498217136
vn 0.182445872 0.122714541 0.975527880
vn 0.155663932 0.067848047 0.985477236
vn -0.029550320 -0.248976575 0.968058595
vn -0.070028846 -0.301308471 0.950951716
vn -0.204859670 -0.468358000 0.859461052
vn -0.204859172 -0.468359243 0.859460493
vn -0.048774902 -0.273898327 0.960521064
vn -0.204858745 -0.468360382 0.859459974
vn 0.158507178 0.077763287 0.984290783
vn -0.156563881 -0.068633863 -0.985280236
vn -0.182633623 -0.119902678 -0.975842358
vn 0.067150357 0.298241595 -0.952125402
vn 0.029531229 0.259700132 -0.965237664
vn 0.209676313 0.472320801 -0.856124351
vn 0.197085376 0.480222303 -0.854718605
vn 0.060455312 0.277255687 -0.958892298
vn 0.220766363 0.465249027 -0.857208000
vn -0.157202005 -0.076079115 -0.984631656
vn -0.956721301 0.280147807 0.078749974
vn -0.965562816 0.249932869 0.072263472
vn 0.746977462 -0.664363992 0.025399957
vn 0.723736564 -0.689495366 0.028311235
vn -0.978451054 0.206447344 -0.003609622
vn -0.973323448 0.228208970 -0.023709295
vn 0.599401981 -0.799891513 -0.029846824
vn 0.597618620 -0.800371800 -0.047507553
vn -0.576726326 -0.644951771 -0.501421936
vn -0.576739818 -0.644946967 -0.501412596
vn -0.576738723 -0.644947359 -0.501413352
vn -0.576726326 -0.644951771 -0.501421936
vn -0.954352692 0.287853663 -0.079694466
vn -0.954352692 0.287853663 -0.079694466
vn 0.588192066 -0.799662558 -0.120705787
vn 0.588192066 -0.799662558 -0.120705787
vn -0.576752193 -0.644942590 -0.501403993
vn -0.576752193 -0.644942590 -0.501403993
f 2/2/2 1/1/1 3/3/3
f 2/2/2 3/3/3 4/4/4
f 4/4/4 3/3/3 5/5/5
f 4/4/4 5/5/5 6/6/6
f 7/7/7 4/4/4 6/6/6
f 7/7/7 6/6/6 8/8/8
f 9/9/9 2/2/2 4/4/4
f 9/9/9 4/4/4 7/7/7
f 10/10/10 12/12/12 13/13/13
f 10/10/10 13/13/13 11/11/11
f 12/12/12 14/14/14 15/15/15
f 12/12/12 15/15/15 13/13/13
f 16/16/16 17/17/17 14/14/14
f 16/16/16 14/14/14 12/12/12
f 18/18/18 16/16/16 12/12/12
f 18/18/18 12/12/12 10/10/10
f 23/23/23 19/19/19 20/20/20
f 23/23/23 20/20/20 24/24/24
f 21/21/21 25/25/25 26/26/26
f 21/21/21 26/26/26 22/22/22
f 27/27/27 28/28/28 29/29/29
f 27/27/27 29/29/29 30/30/30
f 31/31/31 23/23/23 24/24/24
f 31/31/31 24/24/24 32/32/32
f 25/25/25 33/33/33 34/34/34
f 25/25/25 34/34/34 26/26/26
f 28/28/28 35/35/35 36/36/36
f 28/28/28 36/36/36 29/29/29
