# Generated from FlowerPot_fortress.obj; leaf faces only.
o leaf_4
v  0.107657671 2.00028944 -0.0742023587
v  0.0409063101 2.00028944 -0.114745796
v  -0.250853449 3.06573772 -0.0643093586
v  -0.0645006299 3.06573772 0.0488777161
v  0.174409032 2.00028944 -0.0336588621
v  -0.711202323 4.1592536 0.407808661
v  -0.40963012 4.1592536 0.590977728
v  0.12185216 3.06573772 0.162064791
v  -1.07496881 4.96534348 1.05248666
v  -0.786034286 4.96482754 1.25582576
v  -0.108057976 4.1592536 0.774146795
v  -1.49290681 5.41273594 2.19645095
v  -1.3183825 5.38587761 2.32717967
v  -0.497099757 4.96431112 1.45916474
v  -1.56016243 5.36834955 2.62242508
v  -1.50946999 5.35948467 2.66086555
v  -1.14385819 5.35901928 2.45790815
v  -1.58853352 5.30223179 2.73134518
v  -1.5694623 5.29889679 2.74580717
v  -1.45877767 5.35061932 2.69930577
v  -1.55039084 5.29556131 2.76026893
v  0.0989106297 1.99721241 -0.0598011017
v  -0.0728350878 3.05976939 0.0625995994
v  -0.258630574 3.0574348 -0.0515050292
v  0.0321592689 1.99721241 -0.100344598
v  0.165661991 1.99721241 -0.0192576051
v  -0.416743577 4.14897585 0.602688551
v  -0.718026519 4.14827204 0.419042766
v  0.113878012 3.05815983 0.175193608
v  -0.790926218 4.95052242 1.26387668
v  -1.08117926 4.95308399 1.06270957
v  -0.114723444 4.14791584 0.785119534
v  -1.3195889 5.36890745 2.32915878
v  -1.49590874 5.39661217 2.20138812
v  -0.501980186 4.9499917 1.4671967
v  -1.50685048 5.34311819 2.65654588
v  -1.55938947 5.35128736 2.62114429
v  -1.14657855 5.34271145 2.46238184
v  -1.56494892 5.28414154 2.73837185
v  -1.58402026 5.28747654 2.72390985
v  -1.45803142 5.33355236 2.6980691
v  -1.54587758 5.28080654 2.7528336
v  0.254065096 1.96179342 -0.0599800348
v  0.201841295 1.96179342 -0.0019094944
v  0.197272539 3.02724171 0.294142485
v  0.343068242 3.02724171 0.132024229
v  0.306288898 1.96179342 -0.118050575
v  0.575786591 4.12075758 0.834090173
v  0.811725676 4.12075758 0.571736574
v  0.488863826 3.02724171 -0.0300939679
v  1.14178348 4.92684746 1.31114697
v  1.39519787 4.92633152 1.06495368
v  1.04766476 4.12075758 0.309382915
v  2.18834829 5.37423992 1.9340663
v  2.34918642 5.34738159 1.78682566
v  1.64861202 4.92581511 0.818760395
v  2.59444952 5.32985353 2.07918429
v  2.64162731 5.32098866 2.03650379
v  2.51002455 5.32052326 1.63958502
v  2.69621515 5.26373577 2.1272707
v  2.71396422 5.26040077 2.11121345
v  2.6888051 5.3121233 1.99382305
v  2.73171329 5.2570653 2.09515643
v  0.266593516 1.95871639 -0.0487129688
v  0.355005622 3.02127337 0.14275974
v  0.208411694 3.01893878 0.304160118
v  0.214369714 1.95871639 0.0093575716
v  0.318817317 1.95871639 -0.106783509
v  0.821913421 4.11047983 0.580899179
v  0.585559607 4.10977602 0.84288013
v  0.500285268 3.01966381 -0.0198225379
v  1.40220141 4.91202641 1.07125449
v  1.15067673 4.91458797 1.31914639
v  1.05721033 4.10941982 0.317968428
v  2.3509078 5.33041143 1.78837848
v  2.19264317 5.35811615 1.93793225
v  1.65559912 4.91149569 0.825046301
v  2.63786888 5.30462217 2.03312826
v  2.5933342 5.31279135 2.07818723
v  2.51391602 5.30421543 1.64308822
v  2.70749521 5.24564552 2.10539913
v  2.6897459 5.24898052 2.12145615
v  2.6877284 5.29505634 1.99286056
v  2.72524405 5.24231052 2.08934188
v  0.168156624 1.9202528 -0.151992679
v  0.203593105 1.9202528 -0.120124042
v  0.384253263 2.57042289 -0.117336154
v  0.28532362 2.57042289 -0.206305206
v  0.132720172 1.9202528 -0.183861285
v  0.71374625 3.23772049 -0.348317385
v  0.553649783 3.23772049 -0.492294788
v  0.186393976 2.57042289 -0.295274258
v  1.00486112 3.72962189 -0.693706512
v  0.854626298 3.72930694 -0.848347783
v  0.393553376 3.23772049 -0.636272192
v  1.38498604 4.002635 -1.33235335
v  1.29513526 3.98624516 -1.4305017
v  0.70439142 3.72899199 -1.00298917
v  1.4735415 3.97554874 -1.58016896
v  1.44749641 3.97013903 -1.60895824
v  1.20528424 3.96985531 -1.52865016
v  1.50288534 3.93520164 -1.64226961
v  1.49308681 3.9331665 -1.65310049
v  1.42145145 3.96472931 -1.63774776
v  1.48328805 3.93113112 -1.66393161
v  0.175032109 1.91837525 -0.159637928
v  0.291874766 2.56678081 -0.213589787
v  0.390366375 2.56535602 -0.124133646
v  0.21046859 1.91837525 -0.127769291
v  0.139595658 1.91837525 -0.191506535
v  0.559241116 3.23144865 -0.498511672
v  0.719110131 3.23101926 -0.354281187
v  0.192661941 2.56579852 -0.302243948
v  0.858471215 3.72057772 -0.852621555
v  1.0097425 3.72214079 -0.699133396
v  0.398792505 3.23080206 -0.642097235
v  1.29608274 3.97588921 -1.43155205
v  1.38734508 3.99279547 -1.33497405
v  0.708227277 3.72025371 -1.00725293
v  1.44543672 3.96015215 -1.60666466
v  1.47293305 3.96513677 -1.5794884
v  1.20742202 3.95990372 -1.53102469
v  1.48953867 3.92416239 -1.64915287
v  1.4993372 3.92619753 -1.63832188
v  1.42086399 3.95431447 -1.63709068
v  1.47974002 3.92212725 -1.65998387
v  0.0522402003 1.78331482 -0.0917357057
v  0.101764448 1.78331482 -0.133599445
v  0.138994336 2.66798043 -0.376612067
v  0.000735290349 2.66798043 -0.259739041
v  0.00271595269 1.78331482 -0.04987197
v  -0.111320488 3.57595181 -0.863562226
v  -0.335063279 3.57595181 -0.674428344
v  -0.13752383 2.66798043 -0.14286612
v  -0.522967219 4.24526691 -1.31997573
v  -0.759257793 4.24483776 -1.14611089
v  -0.558806062 3.57595181 -0.485294402
v  -1.31343269 4.6167469 -1.95070779
v  -1.46238339 4.59444618 -1.84777343
v  -0.995548487 4.24440956 -0.97224623
v  -1.63107979 4.57989168 -2.11599422
v  -1.67471349 4.57253075 -2.08621955
v  -1.6113342 4.57214451 -1.74483931
v  -1.70935464 4.52499294 -2.16705513
v  -1.72577012 4.52222347 -2.15585351
v  -1.71834695 4.56516981 -2.05644488
v  -1.74218571 4.519454 -2.14465165
v  0.0432083085 1.78075993 -0.102420315
v  -0.00787054747 2.6630249 -0.269919634
v  0.130964041 2.66108632 -0.386111915
v  0.0927325562 1.78075993 -0.144284055
v  -0.00631593913 1.78075993 -0.0605565794
v  -0.342407703 3.56741786 -0.683117211
v  -0.118365876 3.56683326 -0.871897638
v  -0.145757645 2.66168857 -0.152606592
v  -0.764306426 4.2329607 -1.15208566
v  -0.529378295 4.23508739 -1.32756126
v  -0.565687537 3.56653762 -0.493435979
v  -1.46362376 4.58035469 -1.84924519
v  -1.31652832 4.60335875 -1.95437324
v  -1.0005852 4.23251963 -0.978206933
v  -1.67200339 4.55894184 -2.08301783
v  -1.63027537 4.56572437 -2.11504793
v  -1.6141392 4.55860376 -1.74816096
v  -1.72110617 4.5099721 -2.15033913
v  -1.70469058 4.51274109 -2.16154075
v  -1.71756995 4.55099869 -2.05553126
v  -1.73752189 4.50720263 -2.13913751
v  -0.468491614 -1.34945094e-06 -0.976162732
v  -0.5762043 1.90731275 -1.13736606
v  -0.369798601 1.90731275 -1.24769223
v  -0.295604825 -1.34945094e-06 -1.06857264
v  -0.620028138 -1.34945094e-06 -0.851799905
v  -0.757120371 1.90731275 -0.988892138
v  -0.14583534 1.90731275 -1.31563079
v  -0.108011678 -1.34945094e-06 -1.12547839
v  0.0870786458 1.90731275 -1.33857083
v  0.0870786458 -1.34945094e-06 -1.14469314
v  0.319992632 1.90731275 -1.31563079
v  0.282168984 -1.34945094e-06 -1.12547839
v  0.543955863 1.90731275 -1.24769223
v  0.469762087 -1.34945094e-06 -1.06857264
v  0.750361562 1.90731275 -1.13736606
v  0.642648876 -1.34945094e-06 -0.976162732
v  0.931277633 1.90731275 -0.988892138
v  0.7941854 -1.34945094e-06 -0.851799905
v  1.07975161 1.90731275 -0.807976067
v  0.918548226 -1.34945094e-06 -0.700263381
v  1.19007778 1.90731275 -0.601570368
v  1.01095819 -1.34945094e-06 -0.527376592
v  1.25801635 1.90731275 -0.377607107
v  1.06786394 -1.34945094e-06 -0.33978346
v  1.28095639 1.90731275 -0.144693136
v  1.08707869 -1.34945094e-06 -0.144693136
v  1.25801635 1.90731275 0.0882208496
v  1.06786394 -1.34945094e-06 0.0503971875
v  1.19007778 1.90731275 0.312184095
v  1.01095819 -1.34945094e-06 0.23799032
v  1.07975161 1.90731275 0.518589795
v  0.918548226 -1.34945094e-06 0.410877109
v  0.931277633 1.90731275 0.699505866
v  0.7941854 -1.34945094e-06 0.562413633
v  0.282168984 -1.34945094e-06 0.836092114
v  0.319992632 1.90731275 1.02624452
v  0.0870786458 1.90731275 1.04918456
v  0.0870786458 -1.34945094e-06 0.855306864
v  0.469762087 -1.34945094e-06 0.779186368
v  0.543955863 1.90731275 0.958305955
v  0.642648876 -1.34945094e-06 0.686776459
v  0.750361562 1.90731275 0.847979844
v  -0.14583534 1.90731275 1.02624452
v  -0.108011678 -1.34945094e-06 0.836092114
v  -0.369798601 1.90731275 0.958305955
v  -0.295604825 -1.34945094e-06 0.779186368
v  -0.5762043 1.90731275 0.847979844
v  -0.468491614 -1.34945094e-06 0.686776459
v  -0.757120371 1.90731275 0.699505866
v  -0.620028138 -1.34945094e-06 0.562413633
v  -0.905594349 1.90731275 0.518589795
v  -0.744390965 -1.34945094e-06 0.410877109
v  -1.0159204 1.90731275 0.312184095
v  -0.836800873 -1.34945094e-06 0.23799032
v  -1.08385897 1.90731275 0.0882208496
v  -0.89370662 -1.34945094e-06 0.0503971875
v  -1.10679901 1.90731275 -0.144693136
v  -0.912921369 -1.34945094e-06 -0.144693136
v  -1.08385897 1.90731275 -0.377607107
v  -0.89370662 -1.34945094e-06 -0.33978346
v  -1.0159204 1.90731275 -0.601570368
v  -0.836800873 -1.34945094e-06 -0.527376592
v  -0.905594349 1.90731275 -0.807976067
v  -0.744390965 -1.34945094e-06 -0.700263381
v  1.33884871 1.90731275 -0.393685699
v  1.36337233 1.90731275 -0.144693136
v  1.26622021 1.90731275 -0.63310957
v  1.14827812 1.90731275 -0.853763938
v  0.989554524 1.90731275 -1.04716897
v  0.796149433 1.90731275 -1.20589256
v  0.575495124 1.90731275 -1.32383466
v  0.336071193 1.90731275 -1.39646316
v  0.0870786458 1.90731275 -1.42098677
v  -0.161913902 1.90731275 -1.39646316
v  -0.401337802 1.90731275 -1.32383466
v  -0.621992171 1.90731275 -1.20589256
v  -0.815397263 1.90731275 -1.04716897
v  -0.974120796 1.90731275 -0.853763938
v  -1.09206283 1.90731275 -0.63310957
v  -1.16469133 1.90731275 -0.393685699
v  -1.18921494 1.90731275 -0.144693136
v  -1.16469133 1.90731275 0.104299396
v  -1.09206283 1.90731275 0.343723327
v  -0.974120796 1.90731275 0.564377666
v  -0.815397263 1.90731275 0.757782757
v  -0.621992171 1.90731275 0.91650629
v  -0.401337802 1.90731275 1.03444839
v  -0.161913902 1.90731275 1.10707688
v  0.0870786458 1.90731275 1.1316005
v  0.336071193 1.90731275 1.10707688
v  0.575495124 1.90731275 1.03444839
v  0.796149433 1.90731275 0.91650629
v  0.989554524 1.90731275 0.757782757
v  1.14827812 1.90731275 0.564377666
v  1.26622021 1.90731275 0.343723327
v  1.33884871 1.90731275 0.104299396
v  -0.161913902 2.31761789 -1.39646316
v  0.0870786458 2.31761789 -1.42098677
v  -0.401337802 2.31761789 -1.32383466
v  -0.621992171 2.31761789 -1.20589256
v  -0.815397263 2.31761789 -1.04716897
v  0.336071193 2.31761789 -1.39646316
v  0.575495124 2.31761789 -1.32383466
v  0.796149433 2.31761789 -1.20589256
v  0.989554524 2.31761789 -1.04716897
v  1.14827812 2.31761789 -0.853763938
v  1.26622021 2.31761789 -0.63310957
v  1.33884871 2.31761789 -0.393685699
v  1.36337233 2.31761789 -0.144693136
v  1.33884871 2.31761789 0.104299396
v  1.26622021 2.31761789 0.343723327
v  1.14827812 2.31761789 0.564377666
v  0.989554524 2.31761789 0.757782757
v  -0.161913902 2.31761789 1.10707688
v  -0.401337802 2.31761789 1.03444839
v  0.0870786458 2.31761789 1.1316005
v  0.336071193 2.31761789 1.10707688
v  0.575495124 2.31761789 1.03444839
v  0.796149433 2.31761789 0.91650629
v  -0.621992171 2.31761789 0.91650629
v  -0.815397263 2.31761789 0.757782757
v  -0.974120796 2.31761789 0.564377666
v  -1.09206283 2.31761789 0.343723327
v  -1.16469133 2.31761789 0.104299396
v  -1.18921494 2.31761789 -0.144693136
v  -1.16469133 2.31761789 -0.393685699
v  -1.09206283 2.31761789 -0.63310957
v  -0.974120796 2.31761789 -0.853763938
v  -0.686980069 2.31761789 -0.918751836
v  -0.521095395 2.31761789 -1.05488992
v  -0.823118091 2.31761789 -0.752867162
v  -0.924277604 2.31761789 -0.563610673
v  -0.98657161 2.31761789 -0.358255446
v  -1.00760555 2.31761789 -0.144693136
v  -0.98657161 2.31761789 0.0688691735
v  -0.924277604 2.31761789 0.274224401
v  -0.823118091 2.31761789 0.46348089
v  -0.686980069 2.31761789 0.629365563
v  -0.521095395 2.31761789 0.765503645
v  -0.331838906 2.31761789 0.866663218
v  -0.126483664 2.31761789 0.928957105
v  0.0870786533 2.31761789 0.949991107
v  0.30064097 2.31761789 0.928957105
v  0.505996227 2.31761789 0.866663218
v  0.695252657 2.31761789 0.765503645
v  0.861137331 2.31761789 0.629365563
v  0.997275472 2.31761789 0.46348089
v  1.09843504 2.31761789 0.274224401
v  1.16072893 2.31761789 0.0688691735
v  1.18176293 2.31761789 -0.144693136
v  1.16072893 2.31761789 -0.358255446
v  1.09843504 2.31761789 -0.563610673
v  0.997275472 2.31761789 -0.752867162
v  0.861137331 2.31761789 -0.918751836
v  0.695252657 2.31761789 -1.05488992
v  0.505996227 2.31761789 -1.15604949
v  0.30064097 2.31761789 -1.21834338
v  0.0870786533 2.31761789 -1.23937738
v  -0.126483664 2.31761789 -1.21834338
v  -0.331838906 2.31761789 -1.15604949
v  -0.827840149 0.0536053516 -0.326681793
v  -0.774755895 0.0536053516 -0.501676798
v  -0.845764458 0.0536053516 -0.144693136
v  -0.827840149 -0.000902217755 -0.326681793
v  -0.774755895 -0.000902217755 -0.501676798
v  -0.688552141 0.0536053516 -0.662953019
v  -0.688552141 -0.000902217755 -0.662953019
v  -0.572541058 0.0536053516 -0.804312885
v  -0.572541058 -0.000902217755 -0.804312885
v  -0.845764458 -0.000902217755 -0.144693136
v  -0.827840149 0.0536053516 0.0372955501
v  -0.827840149 -0.000902217755 0.0372955501
v  -0.774755895 0.0536053516 0.212290496
v  -0.774755895 -0.000902217755 0.212290496
v  -0.688552141 0.0536053516 0.373566747
v  -0.688552141 -0.000902217755 0.373566747
v  -0.572541058 0.0536053516 0.514926612
v  -0.572541058 -0.000902217755 0.514926612
v  -0.431181312 0.0536053516 0.630937696
v  -0.431181312 -0.000902217755 0.630937696
v  -0.269904971 0.0536053516 0.717141509
v  -0.269904971 -0.000902217755 0.717141509
v  -0.0949100256 0.0536053516 0.770225704
v  -0.0949100256 -0.000902217755 0.770225704
v  0.0870786607 0.0536053516 0.788150012
v  0.0870786607 -0.000902217755 0.788150012
v  0.269067347 0.0536053516 0.770225704
v  0.269067347 -0.000902217755 0.770225704
v  0.444062293 0.0536053516 0.717141509
v  0.444062293 -0.000902217755 0.717141509
v  0.605338514 0.0536053516 0.630937696
v  0.605338514 -0.000902217755 0.630937696
v  0.74669838 0.0536053516 0.514926612
v  0.74669838 -0.000902217755 0.514926612
v  0.862709522 0.0536053516 0.373566747
v  0.948913336 0.0536053516 0.212290496
v  0.862709522 -0.000902217755 0.373566747
v  1.00199759 0.0536053516 0.0372955501
v  0.948913336 -0.000902217755 0.212290496
v  1.0199219 0.0536053516 -0.144693136
v  1.00199759 -0.000902217755 0.0372955501
v  1.00199759 0.0536053516 -0.326681793
v  1.0199219 -0.000902217755 -0.144693136
v  0.948913336 0.0536053516 -0.501676798
v  1.00199759 -0.000902217755 -0.326681793
v  0.862709522 0.0536053516 -0.662953019
v  0.948913336 -0.000902217755 -0.501676798
v  0.74669838 0.0536053516 -0.804312885
v  0.862709522 -0.000902217755 -0.662953019
v  0.605338514 0.0536053516 -0.920323968
v  0.74669838 -0.000902217755 -0.804312885
v  0.444062293 0.0536053516 -1.00652778
v  0.605338514 -0.000902217755 -0.920323968
v  0.269067347 0.0536053516 -1.05961204
v  0.444062293 -0.000902217755 -1.00652778
v  0.0870786607 0.0536053516 -1.07753634
v  0.269067347 -0.000902217755 -1.05961204
v  -0.0949100256 0.0536053516 -1.05961204
v  0.0870786607 -0.000902217755 -1.07753634
v  -0.269904971 0.0536053516 -1.00652778
v  -0.0949100256 -0.000902217755 -1.05961204
v  -0.431181312 0.0536053516 -0.920323968
v  -0.269904971 -0.000902217755 -1.00652778
v  -0.431181312 -0.000902217755 -0.920323968
v  0.311828196 2.06163764 -1.27458537
v  0.0870786458 2.06163764 -1.29672134
v  -0.137670904 2.06163764 -1.27458537
v  -0.353783488 2.06163764 -1.20902836
v  -0.552953959 2.06163764 -1.10256958
v  -0.727528334 2.06163764 -0.959300101
v  -0.870797813 2.06163764 -0.784725726
v  -0.977256596 2.06163764 -0.585555255
v  -1.04281354 2.06163764 -0.369442701
v  -1.06494951 2.06163764 -0.144693136
v  -1.04281354 2.06163764 0.080056414
v  -0.977256596 2.06163764 0.296168983
v  -0.870797813 2.06163764 0.495339453
v  -0.727528334 2.06163764 0.669913828
v  -0.552953959 2.06163764 0.813183308
v  -0.353783488 2.06163764 0.919642091
v  -0.137670904 2.06163764 0.985199094
v  0.0870786458 2.06163764 1.00733507
v  0.311828196 2.06163764 0.985199094
v  0.52794075 2.06163764 0.919642091
v  0.72711122 2.06163764 0.813183308
v  0.901685596 2.06163764 0.669913828
v  1.04495513 2.06163764 0.495339453
v  1.15141392 2.06163764 0.296168983
v  1.21697092 2.06163764 0.080056414
v  1.23910689 2.06163764 -0.144693136
v  1.21697092 2.06163764 -0.369442701
v  1.15141392 2.06163764 -0.585555255
v  1.04495513 2.06163764 -0.784725726
v  0.901685596 2.06163764 -0.959300101
v  0.72711122 2.06163764 -1.10256958
v  0.52794075 2.06163764 -1.20902836
vt 0.328089833 0.0647939295 0
vt 0.34410882 0.0598564669 0
vt 0.400791198 0.18118839 0
vt 0.3302719 0.171709999 0
vt 0.316259027 0.0600637496 0
vt 0.411365151 0.277013749 0
vt 0.332790196 0.260787129 0
vt 0.256262422 0.174939945 0
vt 0.403920591 0.349392712 0
vt 0.328033954 0.338133961 0
vt 0.247234851 0.264596015 0
vt 0.377589107 0.418812752 0
vt 0.330643177 0.435432285 0
vt 0.251512617 0.340808421 0
vt 0.346502602 0.47975713 0
vt 0.332547158 0.481244802 0
vt 0.274351031 0.41260162 0
vt 0.338624567 0.498217136 0
vt 0.334941536 0.499245673 0
vt 0.317458898 0.476512909 0
vt 0.330632359 0.498998433 0
vt 0.604146779 0.0831876099 0
vt 0.576843023 0.658683121 0
vt 0.629164219 0.658683121 0
vt 0.647971392 0.0831876099 0
vt 0.565734148 0.0831876099 0
vt 0.53098315 0.658683121 0
vt 0.685935974 0.658683121 0
vt 0.695523739 0.0831876099 0
vt 0.74497658 0.658683121 0
vt 0.74497658 0.0831876099 0
vt 0.804017305 0.658683121 0
vt 0.794429481 0.0831876099 0
vt 0.860789001 0.658683121 0
vt 0.841982007 0.0831876099 0
vt 0.913110137 0.658683121 0
vt 0.885806441 0.0831876099 0
vt 0.95897007 0.658683121 0
vt 0.924219012 0.0831876099 0
vt 0.957974434 0.481112927 0
vt 0.972952425 0.485277295 0
vt 0.977496386 0.42078799 0
vt 0.96222508 0.42078799 0
vt 0.945385754 0.53911984 0
vt 0.959494591 0.547288477 0
vt 0.924943089 0.592579305 0
vt 0.937640607 0.604438126 0
vt 0.897431672 0.639436722 0
vt 0.908229947 0.654530644 0
vt 0.863908887 0.677891672 0
vt 0.872392952 0.695640206 0
vt 0.825662851 0.706466138 0
vt 0.831507027 0.726187408 0
vt 0.784163713 0.724062622 0
vt 0.787143052 0.744998217 0
vt 0.741006076 0.730004013 0
vt 0.741006076 0.751349747 0
vt 0.69784838 0.724062622 0
vt 0.694869101 0.744998217 0
vt 0.656349242 0.706466138 0
vt 0.650505185 0.726187408 0
vt 0.618103325 0.677891672 0
vt 0.609619021 0.695640206 0
vt 0.5845806 0.639436722 0
vt 0.573782206 0.654530644 0
vt 0.557069123 0.592579305 0
vt 0.544371486 0.604438126 0
vt 0.536626279 0.53911984 0
vt 0.522517443 0.547288477 0
vt 0.524037659 0.481112927 0
vt 0.509059787 0.485277295 0
vt 0.519786954 0.42078799 0
vt 0.504515886 0.42078799 0
vt 0.524037659 0.360462666 0
vt 0.509059787 0.356298268 0
vt 0.536626279 0.302455783 0
vt 0.522517443 0.294287205 0
vt 0.557069123 0.248996675 0
vt 0.544371486 0.237137496 0
vt 0.5845806 0.202138931 0
vt 0.573782206 0.187045217 0
vt 0.618103325 0.163683921 0
vt 0.609619021 0.145935506 0
vt 0.656349242 0.135109514 0
vt 0.650505185 0.115388423 0
vt 0.69784838 0.117513239 0
vt 0.694869101 0.0965776145 0
vt 0.741006076 0.11157167 0
vt 0.741006076 0.0902259052 0
vt 0.784163713 0.117513239 0
vt 0.787143052 0.0965776145 0
vt 0.825662851 0.135109514 0
vt 0.831507027 0.115388423 0
vt 0.863908887 0.163683921 0
vt 0.872392952 0.145935506 0
vt 0.897431672 0.202138931 0
vt 0.908229947 0.187045217 0
vt 0.924943089 0.248996675 0
vt 0.937640607 0.237137496 0
vt 0.945385754 0.302455783 0
vt 0.959494591 0.294287205 0
vt 0.957974434 0.360462666 0
vt 0.972952425 0.356298268 0
vt 0.681860268 0.658683121 0
vt 0.681860268 0.782484949 0
vt 0.74497658 0.782484949 0
vt 0.621169388 0.658683121 0
vt 0.621169388 0.782484949 0
vt 0.56523639 0.658683121 0
vt 0.56523639 0.782484949 0
vt 0.516210794 0.658683121 0
vt 0.516210794 0.782484949 0
vt 0.808093011 0.782484949 0
vt 0.808093011 0.658683121 0
vt 0.868783832 0.782484949 0
vt 0.868783832 0.658683121 0
vt 0.924716771 0.782484949 0
vt 0.924716771 0.658683121 0
vt 0.973742545 0.782484949 0
vt 0.973742545 0.658683121 0
vt 0.573811233 0.656241119 0
vt 0.597606182 0.622980893 0
vt 0.628343761 0.658240855 0
vt 0.609648108 0.6973508 0
vt 0.544400692 0.606148899 0
vt 0.572380602 0.580016494 0
vt 0.522546589 0.548999131 0
vt 0.553636312 0.530998826 0
vt 0.509088874 0.486987978 0
vt 0.542093515 0.477811456 0
vt 0.504544735 0.422498524 0
vt 0.538195968 0.422498524 0
vt 0.509088874 0.35800904 0
vt 0.542093515 0.367185444 0
vt 0.522546589 0.295997918 0
vt 0.553636312 0.313998193 0
vt 0.544400692 0.238848105 0
vt 0.572380602 0.264980525 0
vt 0.573811233 0.18875587 0
vt 0.597606182 0.222016111 0
vt 0.609648108 0.147646219 0
vt 0.628343761 0.186756089 0
vt 0.650534272 0.117099077 0
vt 0.663411915 0.160555631 0
vt 0.694898248 0.0982881784 0
vt 0.701463223 0.144421428 0
vt 0.741035044 0.0919364989 0
vt 0.741035044 0.138973564 0
vt 0.787172139 0.0982881784 0
vt 0.780607045 0.144421428 0
vt 0.831535935 0.117099077 0
vt 0.818658292 0.160555631 0
vt 0.872422099 0.147646219 0
vt 0.853726447 0.186756089 0
vt 0.908259034 0.18875587 0
vt 0.884464025 0.222016111 0
vt 0.937669635 0.238848105 0
vt 0.909689665 0.264980525 0
vt 0.959523678 0.295997918 0
vt 0.928433895 0.313998193 0
vt 0.972981334 0.35800904 0
vt 0.939976752 0.367185444 0
vt 0.977525413 0.422498524 0
vt 0.943874121 0.422498524 0
vt 0.972981334 0.486987978 0
vt 0.939976752 0.477811456 0
vt 0.959523678 0.548999131 0
vt 0.928433895 0.530998826 0
vt 0.937669635 0.606148899 0
vt 0.909689665 0.580016494 0
vt 0.908259034 0.656241119 0
vt 0.884464025 0.622980893 0
vt 0.872422099 0.6973508 0
vt 0.853726447 0.658240855 0
vt 0.831535935 0.727897942 0
vt 0.818658292 0.684441447 0
vt 0.787172139 0.74670893 0
vt 0.780607045 0.70057565 0
vt 0.741035044 0.75306052 0
vt 0.741035044 0.706023395 0
vt 0.694898248 0.74670893 0
vt 0.701463223 0.70057565 0
vt 0.650534272 0.727897942 0
vt 0.663411915 0.684441447 0
vt 0.799111903 0.782484949 0
vt 0.791108429 0.099362433 0
vt 0.835467339 0.099362433 0
vt 0.851166725 0.782484949 0
vt 0.74497658 0.099362433 0
vt 0.791108429 0.0829158723 0
vt 0.835467339 0.0829158723 0
vt 0.876348794 0.099362433 0
vt 0.876348794 0.0829158723 0
vt 0.899140835 0.782484949 0
vt 0.912181497 0.099362433 0
vt 0.912181497 0.0829158723 0
vt 0.941190481 0.782484949 0
vt 0.74497658 0.0829158723 0
vt 0.69884485 0.099362433 0
vt 0.69884485 0.0829158723 0
vt 0.690841317 0.782484949 0
vt 0.638786495 0.782484949 0
vt 0.654485941 0.099362433 0
vt 0.654485941 0.0829158723 0
vt 0.590812385 0.782484949 0
vt 0.613604426 0.099362433 0
vt 0.613604426 0.0829158723 0
vt 0.548762798 0.782484949 0
vt 0.577771544 0.099362433 0
vt 0.577771544 0.0829158723 0
vt 0.651213765 0.731825173 0
vt 0.697240472 0.751341045 0
vt 0.745106637 0.757930815 0
vt 0.792972982 0.751341045 0
vt 0.838999629 0.731825173 0
vt 0.88141799 0.700132906 0
vt 0.918598115 0.657482564 0
vt 0.949111104 0.605512679 0
vt 0.971784294 0.546221077 0
vt 0.985746384 0.481885612 0
vt 0.990460694 0.414979219 0
vt 0.985746384 0.348072648 0
vt 0.971784294 0.283737421 0
vt 0.949111104 0.224445611 0
vt 0.918598115 0.172475904 0
vt 0.88141799 0.129825383 0
vt 0.838999629 0.0981334448 0
vt 0.792972982 0.0786175132 0
vt 0.745106637 0.0720276833 0
vt 0.697240472 0.0786175132 0
vt 0.651213765 0.0981334448 0
vt 0.608795285 0.129825383 0
vt 0.57161516 0.172475904 0
vt 0.541102171 0.224445611 0
vt 0.518429101 0.283737421 0
vt 0.50446701 0.348072648 0
vt 0.499752671 0.414979219 0
vt 0.50446701 0.481885612 0
vt 0.518429101 0.546221077 0
vt 0.541102171 0.605512679 0
vt 0.57161516 0.657482564 0
vt 0.608795285 0.700132906 0
vt 0.28553164 0.991469979 0
vt 0.241117269 0.995844424 0
vt 0.196702942 0.991469979 0
vt 0.153995365 0.978514731 0
vt 0.114635929 0.957476616 0
vt 0.0801370293 0.929164231 0
vt 0.051824566 0.89466536 0
vt 0.0307864808 0.85530591 0
vt 0.0178312771 0.812598348 0
vt 0.0134568037 0.768183947 0
vt 0.0178312771 0.723769546 0
vt 0.0307864808 0.681061983 0
vt 0.051824566 0.641702533 0
vt 0.0801370293 0.607203722 0
vt 0.114635929 0.578891277 0
vt 0.153995365 0.557853162 0
vt 0.196702942 0.544897914 0
vt 0.241117269 0.540523469 0
vt 0.28553164 0.544897914 0
vt 0.328239202 0.557853162 0
vt 0.367598653 0.578891277 0
vt 0.402097553 0.607203722 0
vt 0.430409968 0.641702533 0
vt 0.451448053 0.681061983 0
vt 0.464403301 0.723769546 0
vt 0.468777716 0.768183947 0
vt 0.464403301 0.812598348 0
vt 0.451448053 0.85530591 0
vt 0.430409968 0.89466536 0
vt 0.402097553 0.929164231 0
vt 0.367598653 0.957476616 0
vt 0.328239202 0.978514731 0
vn 0.510681212 0.17964533 -0.840792656
vn 0.510681033 0.17964533 -0.840792835
vn 0.483155608 0.365761518 -0.795474172
vn 0.486590952 0.34845376 -0.801129997
vn 0.510681272 0.17964533 -0.840792537
vn 0.426235884 0.600452363 -0.676594377
vn 0.425683767 0.60081929 -0.676616192
vn 0.485090792 0.356131524 -0.798659623
vn 0.339735746 0.816023409 -0.467638254
vn 0.326537669 0.835589588 -0.441772789
vn 0.423350096 0.60757494 -0.672032297
vn 0.182445884 0.975527942 -0.122714549
vn 0.155663937 0.985477269 -0.0678480491
vn 0.318473577 0.84584862 -0.427919
vn -0.0295503195 0.968058586 0.248976573
vn -0.0700288489 0.950951755 0.301308483
vn 0.158507168 0.984290719 -0.0777632818
vn -0.204859674 0.859461069 0.46835801
vn -0.204859167 0.859460473 0.468359232
vn -0.0487748981 0.960520983 0.273898304
vn -0.20485875 0.859459996 0.468360394
vn -0.510990798 -0.1793084 0.840676427
vn -0.486592293 -0.349306524 0.800757825
vn -0.484150708 -0.364468396 0.795462728
vn -0.512540877 -0.179415926 0.839709222
vn -0.50958395 -0.179210424 0.841550827
vn -0.425499201 -0.600893855 0.676666141
vn -0.425874978 -0.600235879 0.677013576
vn -0.484743893 -0.355119228 0.799320757
vn -0.326978594 -0.835245073 0.442097992
vn -0.339294285 -0.816833258 0.466543376
vn -0.423548669 -0.607203186 0.672243118
vn -0.156563878 -0.985280216 0.0686338618
vn -0.182633623 -0.975842357 0.119902678
vn -0.318802774 -0.845817506 0.427735358
vn 0.0671503544 -0.952125371 -0.298241585
vn 0.0295312274 -0.965237617 -0.259700119
vn -0.157202005 -0.984631658 0.0760791153
vn 0.20967631 -0.856124341 -0.472320795
vn 0.197085381 -0.854718626 -0.480222315
vn 0.0604553111 -0.958892286 -0.277255684
vn 0.220766351 -0.857207954 -0.465249002
vn 0.862124801 -0.050212808 0.504201949
vn 0.871094823 -0.0658519715 0.486679941
vn 0.870019257 -0.0639271513 0.48885563
vn 0.87072897 -0.04487665 0.489711255
vn 0.871442437 -0.0478410013 0.48815912
vn 0.852407932 -0.00109145732 0.522876203
vn 0.852098942 -0.000721566845 0.52338022
vn 0.746977448 0.0253999569 0.66436398
vn 0.723736584 0.0283112358 0.689495385
vn 0.599401951 -0.0298468228 0.799891472
vn 0.597618639 -0.0475075543 0.800371826
vn 0.588192046 -0.120705783 0.79966253
vn 0.093258962 -0.98373121 -0.153544083
vn 0.0932588801 -0.983731151 -0.153543964
vn 0.0932588875 -0.983731151 -0.153543964
vn 0.0932588279 -0.98373127 -0.153543875
vn -0.809370697 -0.139654368 -0.570452332
vn -0.800744116 -0.192963436 -0.567074895
vn -0.808058381 -0.148833975 -0.569991291
vn -0.841340601 -0.0379472561 -0.539171636
vn -0.839556873 -0.0421589129 -0.541633606
vn -0.891079485 0.0521886759 -0.450836629
vn -0.897972345 0.0617467687 -0.43569839
vn -0.956721246 0.0787499696 -0.280147791
vn -0.96556282 0.0722634718 -0.24993287
vn -0.978451073 -0.0036096219 -0.206447348
vn -0.973323464 -0.0237092953 -0.228208974
vn -0.954352677 -0.0796944648 -0.287853658
vn -0.576726317 -0.501421928 0.644951761
vn -0.576739788 -0.50141257 0.644946933
vn -0.576738715 -0.501413345 0.64494735
vn -0.576752186 -0.501403987 0.644942582
vn -0.73145026 0.17964536 -0.657805502
vn -0.7314502 0.179645345 -0.657805502
vn -0.692025125 0.365761608 -0.622350097
vn -0.696945548 0.348453879 -0.626774907
vn -0.731450379 0.17964536 -0.657805383
vn -0.585769296 0.600452781 -0.544362783
vn -0.585893393 0.600819409 -0.543824434
vn -0.694796622 0.356131643 -0.624842286
vn -0.396489203 0.816023588 -0.420596927
vn -0.373521298 0.835589707 -0.402829498
vn -0.581822217 0.607574701 -0.540680885
vn -0.0867360383 0.975527942 -0.202044666
vn -0.0377904661 0.985477269 -0.165548801
vn -0.361404061 0.84584868 -0.392335474
vn 0.239171743 0.968058527 0.0752309263
vn 0.283084303 0.950952113 0.124713361
vn -0.0470053442 0.984290779 -0.17018263
vn 0.422221571 0.859459579 0.288198113
vn 0.422219694 0.859461904 0.28819409
vn 0.260091811 0.960522056 0.0987407193
vn 0.422217995 0.859463871 0.288190484
vn 0.731278598 -0.179308355 0.658088207
vn 0.696579456 -0.349306405 0.626707256
vn 0.691829324 -0.364468336 0.623325765
vn 0.730040669 -0.179415867 0.659432054
vn 0.732398868 -0.179210395 0.656867921
vn 0.58597666 -0.600893736 0.543652475
vn 0.586248279 -0.600235939 0.544086158
vn 0.695510387 -0.355119139 0.624624491
vn 0.373759389 -0.835244894 0.403323472
vn 0.395495385 -0.816833556 0.419959813
vn 0.581992447 -0.607203007 0.540915251
vn 0.038395416 -0.985280156 0.166580036
vn 0.0839368775 -0.975842535 0.201707795
vn 0.36116311 -0.845816731 0.392626107
vn -0.280602962 -0.952126205 -0.121316262
vn -0.249713212 -0.965237796 -0.0771965086
vn 0.0455941893 -0.98463136 0.16858916
vn -0.42521435 -0.856126904 -0.293665528
vn -0.435319394 -0.854721129 -0.282751977
vn -0.261220604 -0.958893478 -0.110847414
vn -0.416203678 -0.857210398 -0.303257287
vn 0.655397296 -0.0502129644 -0.753613353
vn 0.639841497 -0.0658518448 -0.765680254
vn 0.641780198 -0.0639270544 -0.764219522
vn 0.642748713 -0.044876419 -0.764761508
vn 0.641355991 -0.0478408039 -0.765750408
vn 0.671932518 -0.0010915813 -0.740611613
vn 0.672370374 -0.000721650198 -0.740214467
vn 0.791405737 0.0254040696 -0.610763073
vn 0.811791599 0.0283164736 -0.583260357
vn 0.897207379 -0.0298433583 -0.440599948
vn 0.897348106 -0.0475072227 -0.438759029
vn 0.894900262 -0.120711766 -0.42963019
vn -0.133572072 -0.983731687 -0.120126955
vn -0.133572087 -0.983731687 -0.120126948
vn -0.133572102 -0.983731687 -0.120126948
vn -0.133572087 -0.983731687 -0.120126925
vn -0.710710466 -0.139654621 0.689483285
vn -0.705788791 -0.19296366 0.681635618
vn -0.710013628 -0.148834288 0.688279748
vn -0.685904741 -0.0379483141 0.726701081
vn -0.687993169 -0.0421598926 0.724491596
vn -0.608329177 0.0521896929 0.791967154
vn -0.594731808 0.0617487803 0.801549196
vn -0.452781141 0.0787535384 0.888136923
vn -0.424727827 0.0722658262 0.902432263
vn -0.384397864 -0.00360985659 0.923160434
vn -0.404832929 -0.0237091873 0.914083242
vn -0.459931254 -0.0796953887 0.884370863
vn 0.526732743 -0.501420856 0.68638891
vn 0.526734054 -0.501417816 0.686390102
vn 0.526733935 -0.501418114 0.686389983
vn 0.526735246 -0.501415074 0.686391175
vn -0.657805324 0.17964533 0.731450438
vn -0.657805264 0.179645315 0.731450498
vn -0.622349799 0.365761489 0.692025423
vn -0.626774788 0.34845385 0.696945667
vn -0.657805264 0.17964533 0.731450438
vn -0.544362247 0.600452602 0.585770011
vn -0.543824196 0.600819349 0.585893631
vn -0.624842227 0.356131643 0.694796622
vn -0.420596451 0.816023648 0.39648959
vn -0.402829438 0.835589647 0.373521715
vn -0.540681064 0.607574821 0.581821978
vn -0.202044502 0.975528061 0.0867348611
vn -0.165548295 0.985477448 0.0377900712
vn -0.392335624 0.845848441 0.361404449
vn 0.0752257034 0.968058586 -0.239172712
vn 0.124711402 0.950952232 -0.28308478
vn -0.170181841 0.984290898 0.0470062345
vn 0.28818351 0.859465122 -0.422220409
vn 0.28819111 0.85946244 -0.422220528
vn 0.0987458378 0.960521042 -0.26009357
vn 0.288197845 0.859460056 -0.422220647
vn 0.65808785 -0.179308355 -0.731278837
vn 0.626706898 -0.349306434 -0.696579814
vn 0.623325527 -0.364467978 -0.691829681
vn 0.659431636 -0.179415882 -0.730041146
vn 0.656867743 -0.179210395 -0.732398987
vn 0.543652594 -0.600893617 -0.585976779
vn 0.544086337 -0.600235641 -0.586248457
vn 0.624624074 -0.355119228 -0.695510685
vn 0.403322995 -0.835245311 -0.373759091
vn 0.419959158 -0.816833794 -0.395495653
vn 0.540915191 -0.607203245 -0.581992209
vn 0.166579336 -0.985280216 -0.038395565
vn 0.201705992 -0.975842714 -0.0839383677
vn 0.392625988 -0.845817208 -0.361162186
vn -0.121320643 -0.952124894 0.280605555
vn -0.0772023648 -0.965237737 0.249711633
vn 0.168589398 -0.98463136 -0.0455925055
vn -0.293674946 -0.856120467 0.425220877
vn -0.2827636 -0.854717553 0.435318828
vn -0.110850453 -0.958891034 0.261228293
vn -0.303264856 -0.857201457 0.416216373
vn -0.753612936 -0.050212983 -0.655397832
vn -0.765682995 -0.0658513084 -0.639838457
vn -0.764221728 -0.0639264211 -0.641777635
vn -0.764763236 -0.044874575 -0.642746866
vn -0.765752196 -0.0478383191 -0.641354084
vn -0.740605593 -0.00109308201 -0.671939135
vn -0.740208507 -0.000723381119 -0.67237711
vn -0.610752702 0.0253925733 -0.791414142
vn -0.583251834 0.0283037201 -0.811798096
vn -0.440594465 -0.0298545565 -0.897209704
vn -0.438754141 -0.0475155264 -0.897349954
vn -0.429627985 -0.120713405 -0.894901156
vn -0.120118931 -0.983733654 0.133565083
vn -0.120115399 -0.983734012 0.133565277
vn -0.120115407 -0.983734012 0.133565277
vn -0.12011189 -0.983734429 0.1335655
vn 0.689484715 -0.139654845 0.710709035
vn 0.681636393 -0.192963839 0.705787957
vn 0.688281 -0.148835137 0.710012257
vn 0.726701736 -0.0379471965 0.685904205
vn 0.724492371 -0.0421586819 0.687992394
vn 0.79196769 0.0521873347 0.608328521
vn 0.801549792 0.0617445484 0.59473145
vn 0.888138056 0.0787440315 0.452780545
vn 0.902431011 0.0722575262 0.424731851
vn 0.923159838 -0.00361203961 0.384399295
vn 0.914083183 -0.0237097945 0.404833138
vn 0.884373307 -0.0796906725 0.459927499
vn 0.686395347 -0.501400948 -0.526743233
vn 0.686394334 -0.50140655 -0.526739299
vn 0.686394453 -0.501406074 -0.526739597
vn 0.68639344 -0.501411676 -0.526735663
vn 0.63506788 0.179645374 0.751276493
vn 0.635068059 0.179645374 0.751276314
vn 0.600838065 0.365761459 0.710782707
vn 0.60510999 0.34845373 0.715836465
vn 0.635067701 0.179645374 0.751276612
vn 0.506190956 0.600452363 0.619053841
vn 0.506387174 0.60081917 0.618537307
vn 0.603244066 0.356131613 0.713629484
vn 0.335525662 0.816023409 0.470667899
vn 0.315191686 0.835589349 0.449938506
vn 0.502781868 0.607574642 0.614868581
vn 0.0584168956 0.975528002 0.211972937
vn 0.0148959244 0.985477269 0.169152483
vn 0.304616332 0.84584856 0.437891662
vn -0.226700187 0.968058884 -0.107093729
vn -0.263471752 0.950950861 -0.162095815
vn 0.0233929176 0.984290719 0.174998373
vn -0.379049599 0.8594625 -0.342995048
vn -0.379054457 0.859459639 -0.342996925
vn -0.24423404 0.960519493 -0.13323696
vn -0.379058748 0.859457016 -0.342998564
vn -0.634859264 -0.179308459 -0.75153321
vn -0.604756355 -0.349306434 -0.715719759
vn -0.600511014 -0.364468247 -0.711722791
vn -0.633449554 -0.179416105 -0.752696276
vn -0.636135578 -0.17921035 -0.750476599
vn -0.506492794 -0.600893617 -0.61837846
vn -0.506703436 -0.600235641 -0.618844688
vn -0.603980839 -0.355119258 -0.713510752
vn -0.315359533 -0.835244954 -0.450460047
vn -0.334628731 -0.816833436 -0.469900757
vn -0.502917826 -0.607202947 -0.615124643
vn -0.0153552499 -0.985280156 -0.170256734
vn -0.0556908324 -0.975842535 -0.211257815
vn -0.30433616 -0.84581697 -0.438147485
vn 0.26147455 -0.952125072 0.158394784
vn 0.236873269 -0.965238035 0.110483475
vn -0.0222111065 -0.9846313 -0.173227638
vn 0.381276965 -0.856122136 0.348830432
vn 0.392760068 -0.854720235 0.339400768
vn 0.24370645 -0.958890617 0.145382181
vn 0.371056557 -0.857202649 0.357100517
vn -0.751909077 -0.0502130762 0.657351851
vn -0.738141 -0.0658512637 0.671424925
vn -0.739862502 -0.0639267862 0.669713974
vn -0.740899324 -0.0448770076 0.670115113
vn -0.739653826 -0.0478415899 0.671284914
vn -0.766527534 -0.00109670765 0.642210484
vn -0.766907156 -0.000727040926 0.641757667
vn -0.867202938 0.0253958404 0.497306794
vn -0.883652866 0.0283082444 0.467285991
vn -0.948847115 -0.0298469625 0.314322084
vn -0.948736489 -0.0475082099 0.312477171
vn -0.945071757 -0.120708145 0.303758115
vn 0.115968592 -0.983732104 0.137194857
vn 0.1159686 -0.983732164 0.137194857
vn 0.115968592 -0.983732104 0.137194842
vn 0.797973573 -0.139654249 -0.586289048
vn 0.792031169 -0.192963272 -0.579182088
vn 0.797119737 -0.148833871 -0.58519119
vn 0.778463066 -0.0379481725 -0.62654233
vn 0.780231774 -0.0421610512 -0.624068022
vn 0.710499704 0.0521800667 -0.701760232
vn 0.698336363 0.061736051 -0.713102341
vn 0.569497168 0.0787404329 -0.818213284
vn 0.543653011 0.0722561106 -0.836194038
vn 0.506518185 -0.00361915282 -0.862221658
vn 0.52553004 -0.0237232912 -0.850444198
vn 0.576072872 -0.0797179639 -0.813501775
vn -0.428393483 -0.501401722 -0.751715004
vn -0.428380609 -0.501409411 -0.75171715
vn -0.428381622 -0.501408815 -0.751716971
vn -0.428368747 -0.501416504 -0.751719117
vn -0.552722096 -0.101128474 -0.827207029
vn -0.552722096 -0.101128466 -0.82720691
vn -0.380721629 -0.101128459 -0.919143081
vn -0.380721658 -0.101128452 -0.91914314
vn -0.703481734 -0.101128489 -0.703481734
vn -0.703481734 -0.101128496 -0.703481734
vn -0.194090247 -0.101128444 -0.975757182
vn -0.194090262 -0.101128444 -0.975757182
vn -4.79613282e-09 -0.101128422 -0.994873405
vn -9.47210399e-09 -0.101128422 -0.994873405
vn 0.194090322 -0.101128444 -0.975757182
vn 0.194090337 -0.101128452 -0.975757182
vn 0.380721688 -0.101128452 -0.91914314
vn 0.380721688 -0.101128459 -0.91914314
vn 0.552722037 -0.101128437 -0.827206969
vn 0.552722037 -0.101128444 -0.827207029
vn 0.703481674 -0.101128459 -0.703481734
vn 0.703481615 -0.101128459 -0.703481793
vn 0.827206969 -0.101128466 -0.552722096
vn 0.827207029 -0.101128459 -0.552722037
vn 0.919143021 -0.101128459 -0.380721837
vn 0.919143081 -0.101128459 -0.380721807
vn 0.975757122 -0.101128474 -0.194090456
vn 0.975757122 -0.101128481 -0.194090456
vn 0.994873405 -0.101128474 0
vn 0.994873405 -0.101128481 0
vn 0.975757122 -0.101128459 0.194090456
vn 0.919143021 -0.101128459 0.380721837
vn 0.919143081 -0.101128459 0.380721807
vn 0.82720691 -0.101128466 0.552722096
vn 0.827207029 -0.101128474 0.552722096
vn 0.703481674 -0.101128459 0.703481734
vn 0.703481674 -0.101128459 0.703481793
vn 0.194090337 -0.101128444 0.975757182
vn 0.194090322 -0.101128437 0.975757182
vn -4.79613282e-09 -0.101128459 0.994873405
vn -9.47210399e-09 -0.101128459 0.994873405
vn 0.380721629 -0.101128459 0.91914314
vn 0.380721629 -0.101128459 0.9191432
vn 0.552721977 -0.101128474 0.827207029
vn 0.552722037 -0.101128481 0.827207029
vn -0.194090247 -0.101128437 0.975757182
vn -0.194090262 -0.101128444 0.975757182
vn -0.380721599 -0.101128459 0.9191432
vn -0.380721569 -0.101128452 0.9191432
vn -0.552722096 -0.101128474 0.827206969
vn -0.552722096 -0.101128481 0.827207029
vn -0.703481734 -0.101128466 0.703481734
vn -0.703481734 -0.101128452 0.703481734
vn -0.827207088 -0.101128459 0.552721918
vn -0.827207088 -0.101128459 0.552721977
vn -0.9191432 -0.101128437 0.38072139
vn -0.91914326 -0.101128444 0.38072142
vn -0.975757182 -0.101128437 0.194090322
vn -0.975757182 -0.101128444 0.194090322
vn -0.994873405 -0.101128444 -0
vn -0.994873405 -0.101128452 -0
vn -0.975757182 -0.101128459 -0.194090322
vn -0.9191432 -0.101128437 -0.38072139
vn -0.91914326 -0.101128452 -0.38072145
vn -0.827207088 -0.101128459 -0.552721918
vn -0.827207029 -0.101128459 -0.552721977
vn -3.75185351e-07 -1 -0
vn -3.75185522e-07 -1 -0
vn -4.68981852e-07 -1 -0
vn -4.68981881e-07 -1 -0
vn 3.75185067e-07 -1 0
vn 3.75184584e-07 -1 0
vn 3.751843e-07 -1 0
vn 3.75185493e-07 -1 0
vn -3.75185266e-07 -1 -0
vn 0 -1 0
vn 3.75185209e-07 -1 0
vn 3.75185039e-07 -1 0
vn 3.75185181e-07 -1 0
vn -3.75185181e-07 -1 -0
vn -3.75185294e-07 -1 -0
vn -3.75185209e-07 -1 -0
vn 3.7518555e-07 -1 0
vn 3.75185436e-07 -1 0
vn 1.12555654e-06 -1 0
vn 1.03175989e-06 -1 0
vn 1.03176012e-06 -1 0
vn -3.75185493e-07 -1 -0
vn -2.81388878e-07 -1 -0
vn -2.81389049e-07 -1 -0
vn 3.75185323e-07 -1 0
vn -3.75185152e-07 -1 -0
vn -3.75185465e-07 -1 -0
vn -3.75185664e-07 -1 -0
vn -3.75185607e-07 -1 -0
vn 3.75184982e-07 -1 0
vn 3.75185408e-07 -1 0
vn 4.68981568e-07 -1 0
vn -3.75185436e-07 -1 -0
vn -3.7518555e-07 -1 -0
vn -0.195090443 0 -0.98078531
vn 0 0 -1
vn -0.382683337 0 -0.923879623
vn -0.555570245 0 -0.831469595
vn -0.707106769 0 -0.707106769
vn 0.195090398 0 -0.98078531
vn 0.382683337 0 -0.923879623
vn 0.555570245 0 -0.831469595
vn 0.707106769 0 -0.707106769
vn 0.831469595 0 -0.555570364
vn 0.923879683 0 -0.382683247
vn 0.98078531 0 -0.19509019
vn 1 0 2.3830685e-08
vn 0.98078531 0 0.195090204
vn 0.923879623 0 0.382683367
vn 0.831469536 0 0.555570483
vn 0.707106709 0 0.707106888
vn -0.195090443 0 0.98078531
vn -0.382683337 0 0.923879623
vn 0 0 1
vn 0.195090398 0 0.98078531
vn 0.382683337 0 0.923879623
vn 0.555570185 0 0.831469595
vn -0.555570185 0 0.831469655
vn -0.707106709 0 0.707106888
vn -0.831469655 0 0.555570185
vn -0.923879683 0 0.382683247
vn -0.98078531 0 0.195090353
vn -1 0 2.3830685e-08
vn -0.98078531 0 -0.195090339
vn -0.923879683 0 -0.382683069
vn -0.831469774 0 -0.555570126
vn 3.54771402e-07 1 0
vn 3.54771487e-07 1 0
vn 7.09542917e-07 1 0
vn 3.54771515e-07 1 0
vn 3.54771629e-07 1 0
vn 8.86928547e-07 1 0
vn 8.8692849e-07 1 0
vn 7.09542746e-07 1 0
vn 7.09542689e-07 1 0
vn -1.77385701e-07 1 0
vn -1.77385743e-07 1 0
vn -2.66078615e-07 1 0
vn -2.66078558e-07 1 0
vn -2.66078757e-07 1 0
vn -2.66078644e-07 1 0
vn -7.09542746e-07 1 0
vn -7.0954286e-07 1 0
vn -3.54771345e-07 1 0
vn -3.54771373e-07 1 0
vn 0 1 0
vn -3.85990136e-14 1 0
vn -6.81196771e-14 1 0
vn -7.09542917e-07 1 0
vn -7.09543031e-07 1 0
vn -1.92995034e-13 1 0
vn -2.72478817e-13 1 0
vn 7.09542803e-07 1 0
vn 2.31594041e-13 1 0
vn -3.40598521e-14 1 0
vn 8.86929428e-08 1 0
vn 8.86928007e-08 1 0
vn 4.43464245e-07 1 0
vn -1.77385715e-07 1 0
vn -3.54771515e-07 1 0
vn -3.54771487e-07 1 0
vn -1.77385758e-07 1 0
vn -1.77385786e-07 1 0
vn 3.54771203e-07 1 0
vn 3.54771117e-07 1 0
vn 3.40598521e-14 1 0
vn 3.47391143e-13 1 0
vn 3.40598372e-13 1 0
vn 7.09543031e-07 1 0
vn 7.09542974e-07 1 0
vn 0.978288889 0.0713022724 0.194593951
vn 0.98015815 0.0357533656 0.194965854
vn 0.923288882 0.0357533619 0.382438719
vn 0.921528041 0.0713022649 0.381709248
vn 0.997454703 0.0713022575 4.78729412e-09
vn 0.999360681 0.0357533582 7.13781212e-09
vn 0.980785251 0 0.195090622
vn 0.923879623 0 0.382683396
vn 0.83093822 0.0357533619 0.555214763
vn 0.831469834 0 0.555569947
vn 0.829353511 0.0713022575 0.554155886
vn 0.706654787 0.0357533656 0.706654608
vn 0.707106948 0 0.70710659
vn 0.705307126 0.0713022724 0.705306947
vn 1 0 9.53227275e-09
vn 0.980158091 0.0357533619 -0.194965869
vn 0.980785251 0 -0.195090666
vn 0.978288889 0.0713022724 -0.194593966
vn 0.921528041 0.0713022575 -0.381709248
vn 0.923288882 0.0357533582 -0.382438689
vn 0.923879564 0 -0.382683426
vn 0.829353571 0.0713022351 -0.554155886
vn 0.83093822 0.0357533544 -0.555214703
vn 0.831469834 0 -0.555569947
vn 0.705307126 0.0713022575 -0.705306947
vn 0.706654787 0.0357533619 -0.706654608
vn 0.707106948 0 -0.70710659
vn 0.554156065 0.0713022873 -0.829353392
vn 0.555214882 0.0357533768 -0.830938101
vn 0.555570126 0 -0.831469655
vn 0.381709218 0.0713022724 -0.921528101
vn 0.382438511 0.0357533619 -0.923288882
vn 0.382683188 0 -0.923879683
vn 0.194593832 0.07130225 -0.978288889
vn 0.194965705 0.0357533544 -0.98015815
vn 0.195090443 0 -0.980785251
vn 0 0.0713022202 -0.997454762
vn 0 0.0357533395 -0.999360681
vn -0.194593877 0.0713022575 -0.978288949
vn -0.194965705 0.0357533507 -0.98015815
vn -0.195090443 0 -0.980785251
vn -0.381709337 0.0713022575 -0.921528041
vn -0.382438689 0.0357533582 -0.923288882
vn -0.382683367 0 -0.923879623
vn -0.554156005 0.0713022575 -0.829353392
vn -0.555214822 0.0357533582 -0.83093816
vn -0.555570126 0 -0.831469774
vn -0.705306888 0.0713022426 -0.705307126
vn -0.706654608 0.0357533544 -0.706654787
vn -0.707106709 0 -0.707106948
vn -0.829353333 0.0713022351 -0.554156244
vn -0.830937982 0.0357533507 -0.555215061
vn -0.92152822 0.0713022575 -0.381709009
vn -0.923288941 0.0357533544 -0.38243857
vn -0.831469655 0 -0.555570185
vn -0.978288949 0.0713022351 -0.194593877
vn -0.98015815 0.035753347 -0.194965824
vn -0.923879564 0 -0.382683396
vn -0.997454762 0.0713022202 9.57458912e-09
vn -0.999360681 0.0357533433 9.51708401e-09
vn -0.980785251 0 -0.195090666
vn -0.978288889 0.07130225 0.194593862
vn -0.98015815 0.0357533582 0.19496581
vn -1 0 9.53227275e-09
vn -0.92152822 0.0713022575 0.381709009
vn -0.923288941 0.0357533582 0.38243857
vn -0.980785251 0 0.195090652
vn -0.829353333 0.07130225 0.554156244
vn -0.830937982 0.0357533544 0.555215061
vn -0.923879623 0 0.382683367
vn -0.705306888 0.0713022649 0.705307126
vn -0.706654608 0.0357533656 0.706654906
vn -0.831469595 0 0.555570245
vn -0.554156065 0.0713022426 0.829353452
vn -0.555214822 0.035753347 0.83093816
vn -0.707106709 0 0.707106948
vn -0.381709397 0.0713022575 0.921528041
vn -0.382438749 0.0357533507 0.923288822
vn -0.555570126 0 0.831469774
vn -0.194593892 0.0713022724 0.978288889
vn -0.194965795 0.0357533656 0.98015815
vn -0.382683456 0 0.923879564
vn 0 0.0713022351 0.997454762
vn 2.37927056e-09 0.0357533433 0.999360681
vn -0.195090577 0 0.980785251
vn 0.194593921 0.0713022575 0.978288889
vn 0.194965824 0.0357533619 0.98015815
vn 0.381709248 0.0713022426 0.921528041
vn 0.3824386 0.0357533507 0.923288882
vn 0.195090577 0 0.980785251
vn 0.554156005 0.0713022575 0.829353392
vn 0.555214942 0.0357533619 0.830938101
vn 0.382683307 0 0.923879623
vn 0.555570126 0 0.831469655
vn -5.00791696e-14 -1 -0
vn 5.75517092e-08 1 0
g leaf_4
f 127/1/223 128/2/224 129/3/225
f 132/6/283 129/3/280 150/3/282
f 149/4/245 154/6/250 150/3/246
f 135/9/285 154/6/284 157/9/286
f 138/12/287 157/9/286 160/12/288
f 141/15/289 160/12/288 163/15/290
f 144/18/291 163/15/290 166/18/291
f 145/19/293 166/18/295 165/19/294
f 147/21/292 165/19/294 168/21/292
f 146/20/274 168/21/276 167/20/275
f 143/17/272 167/20/275 164/17/273
f 140/14/270 164/17/273 161/14/271
f 137/11/268 161/14/271 158/11/269
f 134/8/266 158/11/269 155/8/267
f 131/5/265 155/8/267 152/5/265
f 131/5/265 134/8/266 155/8/267
f 131/5/227 130/4/226 134/8/230
f 134/8/230 130/4/226 133/7/229
f 155/8/251 158/11/254 153/7/249
f 158/11/254 156/10/252 153/7/249
f 134/8/266 137/11/268 158/11/269
f 134/8/230 133/7/229 137/11/233
f 137/11/233 133/7/229 136/10/232
f 158/11/254 161/14/257 156/10/252
f 161/14/257 159/13/255 156/10/252
f 137/11/268 140/14/270 161/14/271
f 137/11/233 136/10/232 140/14/236
f 140/14/236 136/10/232 139/13/235
f 161/14/257 164/17/260 159/13/255
f 164/17/260 162/16/258 159/13/255
f 140/14/270 143/17/272 164/17/273
f 140/14/236 139/13/235 143/17/239
f 143/17/239 139/13/235 142/16/238
f 164/17/260 167/20/263 162/16/258
f 143/17/272 146/20/274 167/20/275
f 143/17/239 142/16/238 146/20/242
f 146/20/274 147/21/276 168/21/276
f 167/20/263 168/21/264 165/19/261
f 167/20/263 165/19/261 162/16/258
f 147/21/292 145/19/293 165/19/294
f 146/20/242 145/19/241 147/21/243
f 146/20/242 142/16/238 145/19/241
f 162/16/258 165/19/261 166/18/262
f 145/19/293 144/18/295 166/18/295
f 142/16/238 144/18/240 145/19/241
f 162/16/258 166/18/262 163/15/259
f 159/13/255 162/16/258 163/15/259
f 144/18/291 141/15/289 163/15/290
f 142/16/238 141/15/237 144/18/240
f 139/13/235 141/15/237 142/16/238
f 159/13/255 163/15/259 160/12/256
f 156/10/252 159/13/255 160/12/256
f 141/15/289 138/12/287 160/12/288
f 139/13/235 138/12/234 141/15/237
f 136/10/232 138/12/234 139/13/235
f 156/10/252 160/12/256 157/9/253
f 153/7/249 156/10/252 157/9/253
f 138/12/287 135/9/285 157/9/286
f 136/10/232 135/9/231 138/12/234
f 133/7/229 135/9/231 136/10/232
f 153/7/249 157/9/253 154/6/250
f 152/5/248 155/8/251 149/4/245
f 155/8/251 153/7/249 149/4/245
f 149/4/245 153/7/249 154/6/250
f 152/5/248 149/4/245 148/1/244
f 148/1/244 150/3/246 151/2/247
f 148/1/244 149/4/245 150/3/246
f 135/9/285 132/6/283 154/6/284
f 132/6/283 150/3/282 154/6/284
f 133/7/229 132/6/228 135/9/231
f 130/4/226 132/6/228 133/7/229
f 129/3/280 151/2/281 150/3/282
f 130/4/226 129/3/225 132/6/228
f 129/3/280 128/2/281 151/2/281
f 128/2/277 148/1/278 151/2/277
f 127/1/278 152/5/279 148/1/278
f 127/1/278 131/5/279 152/5/279
f 128/2/277 127/1/278 148/1/278
f 131/5/227 127/1/223 130/4/226
f 127/1/223 129/3/225 130/4/226
