# File produced by Open Asset Import Library (http://www.assimp.sf.net)
# (assimp v5.2.0)

mtllib FlowerPot_fortress.mtl

# 424 vertex positions
v  0.107657671 2.00028944 -0.0742023587
v  0.0409063101 2.00028944 -0.114745796
v  -0.250853449 3.06573772 -0.0643093586
v  -0.0645006299 3.06573772 0.0488777161
v  0.174409032 2.00028944 -0.0336588621
v  -0.711202323 4.1592536 0.407808661
v  -0.40963012 4.1592536 0.590977728
v  0.12185216 3.06573772 0.162064791
v  -1.07496881 4.96534348 1.05248666
v  -0.786034286 4.96482754 1.25582576
v  -0.108057976 4.1592536 0.774146795
v  -1.49290681 5.41273594 2.19645095
v  -1.3183825 5.38587761 2.32717967
v  -0.497099757 4.96431112 1.45916474
v  -1.56016243 5.36834955 2.62242508
v  -1.50946999 5.35948467 2.66086555
v  -1.14385819 5.35901928 2.45790815
v  -1.58853352 5.30223179 2.73134518
v  -1.5694623 5.29889679 2.74580717
v  -1.45877767 5.35061932 2.69930577
v  -1.55039084 5.29556131 2.76026893
v  0.0989106297 1.99721241 -0.0598011017
v  -0.0728350878 3.05976939 0.0625995994
v  -0.258630574 3.0574348 -0.0515050292
v  0.0321592689 1.99721241 -0.100344598
v  0.165661991 1.99721241 -0.0192576051
v  -0.416743577 4.14897585 0.602688551
v  -0.718026519 4.14827204 0.419042766
v  0.113878012 3.05815983 0.175193608
v  -0.790926218 4.95052242 1.26387668
v  -1.08117926 4.95308399 1.06270957
v  -0.114723444 4.14791584 0.785119534
v  -1.3195889 5.36890745 2.32915878
v  -1.49590874 5.39661217 2.20138812
v  -0.501980186 4.9499917 1.4671967
v  -1.50685048 5.34311819 2.65654588
v  -1.55938947 5.35128736 2.62114429
v  -1.14657855 5.34271145 2.46238184
v  -1.56494892 5.28414154 2.73837185
v  -1.58402026 5.28747654 2.72390985
v  -1.45803142 5.33355236 2.6980691
v  -1.54587758 5.28080654 2.7528336
v  0.254065096 1.96179342 -0.0599800348
v  0.201841295 1.96179342 -0.0019094944
v  0.197272539 3.02724171 0.294142485
v  0.343068242 3.02724171 0.132024229
v  0.306288898 1.96179342 -0.118050575
v  0.575786591 4.12075758 0.834090173
v  0.811725676 4.12075758 0.571736574
v  0.488863826 3.02724171 -0.0300939679
v  1.14178348 4.92684746 1.31114697
v  1.39519787 4.92633152 1.06495368
v  1.04766476 4.12075758 0.309382915
v  2.18834829 5.37423992 1.9340663
v  2.34918642 5.34738159 1.78682566
v  1.64861202 4.92581511 0.818760395
v  2.59444952 5.32985353 2.07918429
v  2.64162731 5.32098866 2.03650379
v  2.51002455 5.32052326 1.63958502
v  2.69621515 5.26373577 2.1272707
v  2.71396422 5.26040077 2.11121345
v  2.6888051 5.3121233 1.99382305
v  2.73171329 5.2570653 2.09515643
v  0.266593516 1.95871639 -0.0487129688
v  0.355005622 3.02127337 0.14275974
v  0.208411694 3.01893878 0.304160118
v  0.214369714 1.95871639 0.0093575716
v  0.318817317 1.95871639 -0.106783509
v  0.821913421 4.11047983 0.580899179
v  0.585559607 4.10977602 0.84288013
v  0.500285268 3.01966381 -0.0198225379
v  1.40220141 4.91202641 1.07125449
v  1.15067673 4.91458797 1.31914639
v  1.05721033 4.10941982 0.317968428
v  2.3509078 5.33041143 1.78837848
v  2.19264317 5.35811615 1.93793225
v  1.65559912 4.91149569 0.825046301
v  2.63786888 5.30462217 2.03312826
v  2.5933342 5.31279135 2.07818723
v  2.51391602 5.30421543 1.64308822
v  2.70749521 5.24564552 2.10539913
v  2.6897459 5.24898052 2.12145615
v  2.6877284 5.29505634 1.99286056
v  2.72524405 5.24231052 2.08934188
v  0.168156624 1.9202528 -0.151992679
v  0.203593105 1.9202528 -0.120124042
v  0.384253263 2.57042289 -0.117336154
v  0.28532362 2.57042289 -0.206305206
v  0.132720172 1.9202528 -0.183861285
v  0.71374625 3.23772049 -0.348317385
v  0.553649783 3.23772049 -0.492294788
v  0.186393976 2.57042289 -0.295274258
v  1.00486112 3.72962189 -0.693706512
v  0.854626298 3.72930694 -0.848347783
v  0.393553376 3.23772049 -0.636272192
v  1.38498604 4.002635 -1.33235335
v  1.29513526 3.98624516 -1.4305017
v  0.70439142 3.72899199 -1.00298917
v  1.4735415 3.97554874 -1.58016896
v  1.44749641 3.97013903 -1.60895824
v  1.20528424 3.96985531 -1.52865016
v  1.50288534 3.93520164 -1.64226961
v  1.49308681 3.9331665 -1.65310049
v  1.42145145 3.96472931 -1.63774776
v  1.48328805 3.93113112 -1.66393161
v  0.175032109 1.91837525 -0.159637928
v  0.291874766 2.56678081 -0.213589787
v  0.390366375 2.56535602 -0.124133646
v  0.21046859 1.91837525 -0.127769291
v  0.139595658 1.91837525 -0.191506535
v  0.559241116 3.23144865 -0.498511672
v  0.719110131 3.23101926 -0.354281187
v  0.192661941 2.56579852 -0.302243948
v  0.858471215 3.72057772 -0.852621555
v  1.0097425 3.72214079 -0.699133396
v  0.398792505 3.23080206 -0.642097235
v  1.29608274 3.97588921 -1.43155205
v  1.38734508 3.99279547 -1.33497405
v  0.708227277 3.72025371 -1.00725293
v  1.44543672 3.96015215 -1.60666466
v  1.47293305 3.96513677 -1.5794884
v  1.20742202 3.95990372 -1.53102469
v  1.48953867 3.92416239 -1.64915287
v  1.4993372 3.92619753 -1.63832188
v  1.42086399 3.95431447 -1.63709068
v  1.47974002 3.92212725 -1.65998387
v  0.0522402003 1.78331482 -0.0917357057
v  0.101764448 1.78331482 -0.133599445
v  0.138994336 2.66798043 -0.376612067
v  0.000735290349 2.66798043 -0.259739041
v  0.00271595269 1.78331482 -0.04987197
v  -0.111320488 3.57595181 -0.863562226
v  -0.335063279 3.57595181 -0.674428344
v  -0.13752383 2.66798043 -0.14286612
v  -0.522967219 4.24526691 -1.31997573
v  -0.759257793 4.24483776 -1.14611089
v  -0.558806062 3.57595181 -0.485294402
v  -1.31343269 4.6167469 -1.95070779
v  -1.46238339 4.59444618 -1.84777343
v  -0.995548487 4.24440956 -0.97224623
v  -1.63107979 4.57989168 -2.11599422
v  -1.67471349 4.57253075 -2.08621955
v  -1.6113342 4.57214451 -1.74483931
v  -1.70935464 4.52499294 -2.16705513
v  -1.72577012 4.52222347 -2.15585351
v  -1.71834695 4.56516981 -2.05644488
v  -1.74218571 4.519454 -2.14465165
v  0.0432083085 1.78075993 -0.102420315
v  -0.00787054747 2.6630249 -0.269919634
v  0.130964041 2.66108632 -0.386111915
v  0.0927325562 1.78075993 -0.144284055
v  -0.00631593913 1.78075993 -0.0605565794
v  -0.342407703 3.56741786 -0.683117211
v  -0.118365876 3.56683326 -0.871897638
v  -0.145757645 2.66168857 -0.152606592
v  -0.764306426 4.2329607 -1.15208566
v  -0.529378295 4.23508739 -1.32756126
v  -0.565687537 3.56653762 -0.493435979
v  -1.46362376 4.58035469 -1.84924519
v  -1.31652832 4.60335875 -1.95437324
v  -1.0005852 4.23251963 -0.978206933
v  -1.67200339 4.55894184 -2.08301783
v  -1.63027537 4.56572437 -2.11504793
v  -1.6141392 4.55860376 -1.74816096
v  -1.72110617 4.5099721 -2.15033913
v  -1.70469058 4.51274109 -2.16154075
v  -1.71756995 4.55099869 -2.05553126
v  -1.73752189 4.50720263 -2.13913751
v  -0.468491614 -1.34945094e-06 -0.976162732
v  -0.5762043 1.90731275 -1.13736606
v  -0.369798601 1.90731275 -1.24769223
v  -0.295604825 -1.34945094e-06 -1.06857264
v  -0.620028138 -1.34945094e-06 -0.851799905
v  -0.757120371 1.90731275 -0.988892138
v  -0.14583534 1.90731275 -1.31563079
v  -0.108011678 -1.34945094e-06 -1.12547839
v  0.0870786458 1.90731275 -1.33857083
v  0.0870786458 -1.34945094e-06 -1.14469314
v  0.319992632 1.90731275 -1.31563079
v  0.282168984 -1.34945094e-06 -1.12547839
v  0.543955863 1.90731275 -1.24769223
v  0.469762087 -1.34945094e-06 -1.06857264
v  0.750361562 1.90731275 -1.13736606
v  0.642648876 -1.34945094e-06 -0.976162732
v  0.931277633 1.90731275 -0.988892138
v  0.7941854 -1.34945094e-06 -0.851799905
v  1.07975161 1.90731275 -0.807976067
v  0.918548226 -1.34945094e-06 -0.700263381
v  1.19007778 1.90731275 -0.601570368
v  1.01095819 -1.34945094e-06 -0.527376592
v  1.25801635 1.90731275 -0.377607107
v  1.06786394 -1.34945094e-06 -0.33978346
v  1.28095639 1.90731275 -0.144693136
v  1.08707869 -1.34945094e-06 -0.144693136
v  1.25801635 1.90731275 0.0882208496
v  1.06786394 -1.34945094e-06 0.0503971875
v  1.19007778 1.90731275 0.312184095
v  1.01095819 -1.34945094e-06 0.23799032
v  1.07975161 1.90731275 0.518589795
v  0.918548226 -1.34945094e-06 0.410877109
v  0.931277633 1.90731275 0.699505866
v  0.7941854 -1.34945094e-06 0.562413633
v  0.282168984 -1.34945094e-06 0.836092114
v  0.319992632 1.90731275 1.02624452
v  0.0870786458 1.90731275 1.04918456
v  0.0870786458 -1.34945094e-06 0.855306864
v  0.469762087 -1.34945094e-06 0.779186368
v  0.543955863 1.90731275 0.958305955
v  0.642648876 -1.34945094e-06 0.686776459
v  0.750361562 1.90731275 0.847979844
v  -0.14583534 1.90731275 1.02624452
v  -0.108011678 -1.34945094e-06 0.836092114
v  -0.369798601 1.90731275 0.958305955
v  -0.295604825 -1.34945094e-06 0.779186368
v  -0.5762043 1.90731275 0.847979844
v  -0.468491614 -1.34945094e-06 0.686776459
v  -0.757120371 1.90731275 0.699505866
v  -0.620028138 -1.34945094e-06 0.562413633
v  -0.905594349 1.90731275 0.518589795
v  -0.744390965 -1.34945094e-06 0.410877109
v  -1.0159204 1.90731275 0.312184095
v  -0.836800873 -1.34945094e-06 0.23799032
v  -1.08385897 1.90731275 0.0882208496
v  -0.89370662 -1.34945094e-06 0.0503971875
v  -1.10679901 1.90731275 -0.144693136
v  -0.912921369 -1.34945094e-06 -0.144693136
v  -1.08385897 1.90731275 -0.377607107
v  -0.89370662 -1.34945094e-06 -0.33978346
v  -1.0159204 1.90731275 -0.601570368
v  -0.836800873 -1.34945094e-06 -0.527376592
v  -0.905594349 1.90731275 -0.807976067
v  -0.744390965 -1.34945094e-06 -0.700263381
v  1.33884871 1.90731275 -0.393685699
v  1.36337233 1.90731275 -0.144693136
v  1.26622021 1.90731275 -0.63310957
v  1.14827812 1.90731275 -0.853763938
v  0.989554524 1.90731275 -1.04716897
v  0.796149433 1.90731275 -1.20589256
v  0.575495124 1.90731275 -1.32383466
v  0.336071193 1.90731275 -1.39646316
v  0.0870786458 1.90731275 -1.42098677
v  -0.161913902 1.90731275 -1.39646316
v  -0.401337802 1.90731275 -1.32383466
v  -0.621992171 1.90731275 -1.20589256
v  -0.815397263 1.90731275 -1.04716897
v  -0.974120796 1.90731275 -0.853763938
v  -1.09206283 1.90731275 -0.63310957
v  -1.16469133 1.90731275 -0.393685699
v  -1.18921494 1.90731275 -0.144693136
v  -1.16469133 1.90731275 0.104299396
v  -1.09206283 1.90731275 0.343723327
v  -0.974120796 1.90731275 0.564377666
v  -0.815397263 1.90731275 0.757782757
v  -0.621992171 1.90731275 0.91650629
v  -0.401337802 1.90731275 1.03444839
v  -0.161913902 1.90731275 1.10707688
v  0.0870786458 1.90731275 1.1316005
v  0.336071193 1.90731275 1.10707688
v  0.575495124 1.90731275 1.03444839
v  0.796149433 1.90731275 0.91650629
v  0.989554524 1.90731275 0.757782757
v  1.14827812 1.90731275 0.564377666
v  1.26622021 1.90731275 0.343723327
v  1.33884871 1.90731275 0.104299396
v  -0.161913902 2.31761789 -1.39646316
v  0.0870786458 2.31761789 -1.42098677
v  -0.401337802 2.31761789 -1.32383466
v  -0.621992171 2.31761789 -1.20589256
v  -0.815397263 2.31761789 -1.04716897
v  0.336071193 2.31761789 -1.39646316
v  0.575495124 2.31761789 -1.32383466
v  0.796149433 2.31761789 -1.20589256
v  0.989554524 2.31761789 -1.04716897
v  1.14827812 2.31761789 -0.853763938
v  1.26622021 2.31761789 -0.63310957
v  1.33884871 2.31761789 -0.393685699
v  1.36337233 2.31761789 -0.144693136
v  1.33884871 2.31761789 0.104299396
v  1.26622021 2.31761789 0.343723327
v  1.14827812 2.31761789 0.564377666
v  0.989554524 2.31761789 0.757782757
v  -0.161913902 2.31761789 1.10707688
v  -0.401337802 2.31761789 1.03444839
v  0.0870786458 2.31761789 1.1316005
v  0.336071193 2.31761789 1.10707688
v  0.575495124 2.31761789 1.03444839
v  0.796149433 2.31761789 0.91650629
v  -0.621992171 2.31761789 0.91650629
v  -0.815397263 2.31761789 0.757782757
v  -0.974120796 2.31761789 0.564377666
v  -1.09206283 2.31761789 0.343723327
v  -1.16469133 2.31761789 0.104299396
v  -1.18921494 2.31761789 -0.144693136
v  -1.16469133 2.31761789 -0.393685699
v  -1.09206283 2.31761789 -0.63310957
v  -0.974120796 2.31761789 -0.853763938
v  -0.686980069 2.31761789 -0.918751836
v  -0.521095395 2.31761789 -1.05488992
v  -0.823118091 2.31761789 -0.752867162
v  -0.924277604 2.31761789 -0.563610673
v  -0.98657161 2.31761789 -0.358255446
v  -1.00760555 2.31761789 -0.144693136
v  -0.98657161 2.31761789 0.0688691735
v  -0.924277604 2.31761789 0.274224401
v  -0.823118091 2.31761789 0.46348089
v  -0.686980069 2.31761789 0.629365563
v  -0.521095395 2.31761789 0.765503645
v  -0.331838906 2.31761789 0.866663218
v  -0.126483664 2.31761789 0.928957105
v  0.0870786533 2.31761789 0.949991107
v  0.30064097 2.31761789 0.928957105
v  0.505996227 2.31761789 0.866663218
v  0.695252657 2.31761789 0.765503645
v  0.861137331 2.31761789 0.629365563
v  0.997275472 2.31761789 0.46348089
v  1.09843504 2.31761789 0.274224401
v  1.16072893 2.31761789 0.0688691735
v  1.18176293 2.31761789 -0.144693136
v  1.16072893 2.31761789 -0.358255446
v  1.09843504 2.31761789 -0.563610673
v  0.997275472 2.31761789 -0.752867162
v  0.861137331 2.31761789 -0.918751836
v  0.695252657 2.31761789 -1.05488992
v  0.505996227 2.31761789 -1.15604949
v  0.30064097 2.31761789 -1.21834338
v  0.0870786533 2.31761789 -1.23937738
v  -0.126483664 2.31761789 -1.21834338
v  -0.331838906 2.31761789 -1.15604949
v  -0.827840149 0.0536053516 -0.326681793
v  -0.774755895 0.0536053516 -0.501676798
v  -0.845764458 0.0536053516 -0.144693136
v  -0.827840149 -0.000902217755 -0.326681793
v  -0.774755895 -0.000902217755 -0.501676798
v  -0.688552141 0.0536053516 -0.662953019
v  -0.688552141 -0.000902217755 -0.662953019
v  -0.572541058 0.0536053516 -0.804312885
v  -0.572541058 -0.000902217755 -0.804312885
v  -0.845764458 -0.000902217755 -0.144693136
v  -0.827840149 0.0536053516 0.0372955501
v  -0.827840149 -0.000902217755 0.0372955501
v  -0.774755895 0.0536053516 0.212290496
v  -0.774755895 -0.000902217755 0.212290496
v  -0.688552141 0.0536053516 0.373566747
v  -0.688552141 -0.000902217755 0.373566747
v  -0.572541058 0.0536053516 0.514926612
v  -0.572541058 -0.000902217755 0.514926612
v  -0.431181312 0.0536053516 0.630937696
v  -0.431181312 -0.000902217755 0.630937696
v  -0.269904971 0.0536053516 0.717141509
v  -0.269904971 -0.000902217755 0.717141509
v  -0.0949100256 0.0536053516 0.770225704
v  -0.0949100256 -0.000902217755 0.770225704
v  0.0870786607 0.0536053516 0.788150012
v  0.0870786607 -0.000902217755 0.788150012
v  0.269067347 0.0536053516 0.770225704
v  0.269067347 -0.000902217755 0.770225704
v  0.444062293 0.0536053516 0.717141509
v  0.444062293 -0.000902217755 0.717141509
v  0.605338514 0.0536053516 0.630937696
v  0.605338514 -0.000902217755 0.630937696
v  0.74669838 0.0536053516 0.514926612
v  0.74669838 -0.000902217755 0.514926612
v  0.862709522 0.0536053516 0.373566747
v  0.948913336 0.0536053516 0.212290496
v  0.862709522 -0.000902217755 0.373566747
v  1.00199759 0.0536053516 0.0372955501
v  0.948913336 -0.000902217755 0.212290496
v  1.0199219 0.0536053516 -0.144693136
v  1.00199759 -0.000902217755 0.0372955501
v  1.00199759 0.0536053516 -0.326681793
v  1.0199219 -0.000902217755 -0.144693136
v  0.948913336 0.0536053516 -0.501676798
v  1.00199759 -0.000902217755 -0.326681793
v  0.862709522 0.0536053516 -0.662953019
v  0.948913336 -0.000902217755 -0.501676798
v  0.74669838 0.0536053516 -0.804312885
v  0.862709522 -0.000902217755 -0.662953019
v  0.605338514 0.0536053516 -0.920323968
v  0.74669838 -0.000902217755 -0.804312885
v  0.444062293 0.0536053516 -1.00652778
v  0.605338514 -0.000902217755 -0.920323968
v  0.269067347 0.0536053516 -1.05961204
v  0.444062293 -0.000902217755 -1.00652778
v  0.0870786607 0.0536053516 -1.07753634
v  0.269067347 -0.000902217755 -1.05961204
v  -0.0949100256 0.0536053516 -1.05961204
v  0.0870786607 -0.000902217755 -1.07753634
v  -0.269904971 0.0536053516 -1.00652778
v  -0.0949100256 -0.000902217755 -1.05961204
v  -0.431181312 0.0536053516 -0.920323968
v  -0.269904971 -0.000902217755 -1.00652778
v  -0.431181312 -0.000902217755 -0.920323968
v  0.311828196 2.06163764 -1.27458537
v  0.0870786458 2.06163764 -1.29672134
v  -0.137670904 2.06163764 -1.27458537
v  -0.353783488 2.06163764 -1.20902836
v  -0.552953959 2.06163764 -1.10256958
v  -0.727528334 2.06163764 -0.959300101
v  -0.870797813 2.06163764 -0.784725726
v  -0.977256596 2.06163764 -0.585555255
v  -1.04281354 2.06163764 -0.369442701
v  -1.06494951 2.06163764 -0.144693136
v  -1.04281354 2.06163764 0.080056414
v  -0.977256596 2.06163764 0.296168983
v  -0.870797813 2.06163764 0.495339453
v  -0.727528334 2.06163764 0.669913828
v  -0.552953959 2.06163764 0.813183308
v  -0.353783488 2.06163764 0.919642091
v  -0.137670904 2.06163764 0.985199094
v  0.0870786458 2.06163764 1.00733507
v  0.311828196 2.06163764 0.985199094
v  0.52794075 2.06163764 0.919642091
v  0.72711122 2.06163764 0.813183308
v  0.901685596 2.06163764 0.669913828
v  1.04495513 2.06163764 0.495339453
v  1.15141392 2.06163764 0.296168983
v  1.21697092 2.06163764 0.080056414
v  1.23910689 2.06163764 -0.144693136
v  1.21697092 2.06163764 -0.369442701
v  1.15141392 2.06163764 -0.585555255
v  1.04495513 2.06163764 -0.784725726
v  0.901685596 2.06163764 -0.959300101
v  0.72711122 2.06163764 -1.10256958
v  0.52794075 2.06163764 -1.20902836

# 274 UV coordinates
vt 0.328089833 0.0647939295 0
vt 0.34410882 0.0598564669 0
vt 0.400791198 0.18118839 0
vt 0.3302719 0.171709999 0
vt 0.316259027 0.0600637496 0
vt 0.411365151 0.277013749 0
vt 0.332790196 0.260787129 0
vt 0.256262422 0.174939945 0
vt 0.403920591 0.349392712 0
vt 0.328033954 0.338133961 0
vt 0.247234851 0.264596015 0
vt 0.377589107 0.418812752 0
vt 0.330643177 0.435432285 0
vt 0.251512617 0.340808421 0
vt 0.346502602 0.47975713 0
vt 0.332547158 0.481244802 0
vt 0.274351031 0.41260162 0
vt 0.338624567 0.498217136 0
vt 0.334941536 0.499245673 0
vt 0.317458898 0.476512909 0
vt 0.330632359 0.498998433 0
vt 0.604146779 0.0831876099 0
vt 0.576843023 0.658683121 0
vt 0.629164219 0.658683121 0
vt 0.647971392 0.0831876099 0
vt 0.565734148 0.0831876099 0
vt 0.53098315 0.658683121 0
vt 0.685935974 0.658683121 0
vt 0.695523739 0.0831876099 0
vt 0.74497658 0.658683121 0
vt 0.74497658 0.0831876099 0
vt 0.804017305 0.658683121 0
vt 0.794429481 0.0831876099 0
vt 0.860789001 0.658683121 0
vt 0.841982007 0.0831876099 0
vt 0.913110137 0.658683121 0
vt 0.885806441 0.0831876099 0
vt 0.95897007 0.658683121 0
vt 0.924219012 0.0831876099 0
vt 0.957974434 0.481112927 0
vt 0.972952425 0.485277295 0
vt 0.977496386 0.42078799 0
vt 0.96222508 0.42078799 0
vt 0.945385754 0.53911984 0
vt 0.959494591 0.547288477 0
vt 0.924943089 0.592579305 0
vt 0.937640607 0.604438126 0
vt 0.897431672 0.639436722 0
vt 0.908229947 0.654530644 0
vt 0.863908887 0.677891672 0
vt 0.872392952 0.695640206 0
vt 0.825662851 0.706466138 0
vt 0.831507027 0.726187408 0
vt 0.784163713 0.724062622 0
vt 0.787143052 0.744998217 0
vt 0.741006076 0.730004013 0
vt 0.741006076 0.751349747 0
vt 0.69784838 0.724062622 0
vt 0.694869101 0.744998217 0
vt 0.656349242 0.706466138 0
vt 0.650505185 0.726187408 0
vt 0.618103325 0.677891672 0
vt 0.609619021 0.695640206 0
vt 0.5845806 0.639436722 0
vt 0.573782206 0.654530644 0
vt 0.557069123 0.592579305 0
vt 0.544371486 0.604438126 0
vt 0.536626279 0.53911984 0
vt 0.522517443 0.547288477 0
vt 0.524037659 0.481112927 0
vt 0.509059787 0.485277295 0
vt 0.519786954 0.42078799 0
vt 0.504515886 0.42078799 0
vt 0.524037659 0.360462666 0
vt 0.509059787 0.356298268 0
vt 0.536626279 0.302455783 0
vt 0.522517443 0.294287205 0
vt 0.557069123 0.248996675 0
vt 0.544371486 0.237137496 0
vt 0.5845806 0.202138931 0
vt 0.573782206 0.187045217 0
vt 0.618103325 0.163683921 0
vt 0.609619021 0.145935506 0
vt 0.656349242 0.135109514 0
vt 0.650505185 0.115388423 0
vt 0.69784838 0.117513239 0
vt 0.694869101 0.0965776145 0
vt 0.741006076 0.11157167 0
vt 0.741006076 0.0902259052 0
vt 0.784163713 0.117513239 0
vt 0.787143052 0.0965776145 0
vt 0.825662851 0.135109514 0
vt 0.831507027 0.115388423 0
vt 0.863908887 0.163683921 0
vt 0.872392952 0.145935506 0
vt 0.897431672 0.202138931 0
vt 0.908229947 0.187045217 0
vt 0.924943089 0.248996675 0
vt 0.937640607 0.237137496 0
vt 0.945385754 0.302455783 0
vt 0.959494591 0.294287205 0
vt 0.957974434 0.360462666 0
vt 0.972952425 0.356298268 0
vt 0.681860268 0.658683121 0
vt 0.681860268 0.782484949 0
vt 0.74497658 0.782484949 0
vt 0.621169388 0.658683121 0
vt 0.621169388 0.782484949 0
vt 0.56523639 0.658683121 0
vt 0.56523639 0.782484949 0
vt 0.516210794 0.658683121 0
vt 0.516210794 0.782484949 0
vt 0.808093011 0.782484949 0
vt 0.808093011 0.658683121 0
vt 0.868783832 0.782484949 0
vt 0.868783832 0.658683121 0
vt 0.924716771 0.782484949 0
vt 0.924716771 0.658683121 0
vt 0.973742545 0.782484949 0
vt 0.973742545 0.658683121 0
vt 0.573811233 0.656241119 0
vt 0.597606182 0.622980893 0
vt 0.628343761 0.658240855 0
vt 0.609648108 0.6973508 0
vt 0.544400692 0.606148899 0
vt 0.572380602 0.580016494 0
vt 0.522546589 0.548999131 0
vt 0.553636312 0.530998826 0
vt 0.509088874 0.486987978 0
vt 0.542093515 0.477811456 0
vt 0.504544735 0.422498524 0
vt 0.538195968 0.422498524 0
vt 0.509088874 0.35800904 0
vt 0.542093515 0.367185444 0
vt 0.522546589 0.295997918 0
vt 0.553636312 0.313998193 0
vt 0.544400692 0.238848105 0
vt 0.572380602 0.264980525 0
vt 0.573811233 0.18875587 0
vt 0.597606182 0.222016111 0
vt 0.609648108 0.147646219 0
vt 0.628343761 0.186756089 0
vt 0.650534272 0.117099077 0
vt 0.663411915 0.160555631 0
vt 0.694898248 0.0982881784 0
vt 0.701463223 0.144421428 0
vt 0.741035044 0.0919364989 0
vt 0.741035044 0.138973564 0
vt 0.787172139 0.0982881784 0
vt 0.780607045 0.144421428 0
vt 0.831535935 0.117099077 0
vt 0.818658292 0.160555631 0
vt 0.872422099 0.147646219 0
vt 0.853726447 0.186756089 0
vt 0.908259034 0.18875587 0
vt 0.884464025 0.222016111 0
vt 0.937669635 0.238848105 0
vt 0.909689665 0.264980525 0
vt 0.959523678 0.295997918 0
vt 0.928433895 0.313998193 0
vt 0.972981334 0.35800904 0
vt 0.939976752 0.367185444 0
vt 0.977525413 0.422498524 0
vt 0.943874121 0.422498524 0
vt 0.972981334 0.486987978 0
vt 0.939976752 0.477811456 0
vt 0.959523678 0.548999131 0
vt 0.928433895 0.530998826 0
vt 0.937669635 0.606148899 0
vt 0.909689665 0.580016494 0
vt 0.908259034 0.656241119 0
vt 0.884464025 0.622980893 0
vt 0.872422099 0.6973508 0
vt 0.853726447 0.658240855 0
vt 0.831535935 0.727897942 0
vt 0.818658292 0.684441447 0
vt 0.787172139 0.74670893 0
vt 0.780607045 0.70057565 0
vt 0.741035044 0.75306052 0
vt 0.741035044 0.706023395 0
vt 0.694898248 0.74670893 0
vt 0.701463223 0.70057565 0
vt 0.650534272 0.727897942 0
vt 0.663411915 0.684441447 0
vt 0.799111903 0.782484949 0
vt 0.791108429 0.099362433 0
vt 0.835467339 0.099362433 0
vt 0.851166725 0.782484949 0
vt 0.74497658 0.099362433 0
vt 0.791108429 0.0829158723 0
vt 0.835467339 0.0829158723 0
vt 0.876348794 0.099362433 0
vt 0.876348794 0.0829158723 0
vt 0.899140835 0.782484949 0
vt 0.912181497 0.099362433 0
vt 0.912181497 0.0829158723 0
vt 0.941190481 0.782484949 0
vt 0.74497658 0.0829158723 0
vt 0.69884485 0.099362433 0
vt 0.69884485 0.0829158723 0
vt 0.690841317 0.782484949 0
vt 0.638786495 0.782484949 0
vt 0.654485941 0.099362433 0
vt 0.654485941 0.0829158723 0
vt 0.590812385 0.782484949 0
vt 0.613604426 0.099362433 0
vt 0.613604426 0.0829158723 0
vt 0.548762798 0.782484949 0
vt 0.577771544 0.099362433 0
vt 0.577771544 0.0829158723 0
vt 0.651213765 0.731825173 0
vt 0.697240472 0.751341045 0
vt 0.745106637 0.757930815 0
vt 0.792972982 0.751341045 0
vt 0.838999629 0.731825173 0
vt 0.88141799 0.700132906 0
vt 0.918598115 0.657482564 0
vt 0.949111104 0.605512679 0
vt 0.971784294 0.546221077 0
vt 0.985746384 0.481885612 0
vt 0.990460694 0.414979219 0
vt 0.985746384 0.348072648 0
vt 0.971784294 0.283737421 0
vt 0.949111104 0.224445611 0
vt 0.918598115 0.172475904 0
vt 0.88141799 0.129825383 0
vt 0.838999629 0.0981334448 0
vt 0.792972982 0.0786175132 0
vt 0.745106637 0.0720276833 0
vt 0.697240472 0.0786175132 0
vt 0.651213765 0.0981334448 0
vt 0.608795285 0.129825383 0
vt 0.57161516 0.172475904 0
vt 0.541102171 0.224445611 0
vt 0.518429101 0.283737421 0
vt 0.50446701 0.348072648 0
vt 0.499752671 0.414979219 0
vt 0.50446701 0.481885612 0
vt 0.518429101 0.546221077 0
vt 0.541102171 0.605512679 0
vt 0.57161516 0.657482564 0
vt 0.608795285 0.700132906 0
vt 0.28553164 0.991469979 0
vt 0.241117269 0.995844424 0
vt 0.196702942 0.991469979 0
vt 0.153995365 0.978514731 0
vt 0.114635929 0.957476616 0
vt 0.0801370293 0.929164231 0
vt 0.051824566 0.89466536 0
vt 0.0307864808 0.85530591 0
vt 0.0178312771 0.812598348 0
vt 0.0134568037 0.768183947 0
vt 0.0178312771 0.723769546 0
vt 0.0307864808 0.681061983 0
vt 0.051824566 0.641702533 0
vt 0.0801370293 0.607203722 0
vt 0.114635929 0.578891277 0
vt 0.153995365 0.557853162 0
vt 0.196702942 0.544897914 0
vt 0.241117269 0.540523469 0
vt 0.28553164 0.544897914 0
vt 0.328239202 0.557853162 0
vt 0.367598653 0.578891277 0
vt 0.402097553 0.607203722 0
vt 0.430409968 0.641702533 0
vt 0.451448053 0.681061983 0
vt 0.464403301 0.723769546 0
vt 0.468777716 0.768183947 0
vt 0.464403301 0.812598348 0
vt 0.451448053 0.85530591 0
vt 0.430409968 0.89466536 0
vt 0.402097553 0.929164231 0
vt 0.367598653 0.957476616 0
vt 0.328239202 0.978514731 0

# 563 vertex normals
vn 0.510681212 0.17964533 -0.840792656
vn 0.510681033 0.17964533 -0.840792835
vn 0.483155608 0.365761518 -0.795474172
vn 0.486590952 0.34845376 -0.801129997
vn 0.510681272 0.17964533 -0.840792537
vn 0.426235884 0.600452363 -0.676594377
vn 0.425683767 0.60081929 -0.676616192
vn 0.485090792 0.356131524 -0.798659623
vn 0.339735746 0.816023409 -0.467638254
vn 0.326537669 0.835589588 -0.441772789
vn 0.423350096 0.60757494 -0.672032297
vn 0.182445884 0.975527942 -0.122714549
vn 0.155663937 0.985477269 -0.0678480491
vn 0.318473577 0.84584862 -0.427919
vn -0.0295503195 0.968058586 0.248976573
vn -0.0700288489 0.950951755 0.301308483
vn 0.158507168 0.984290719 -0.0777632818
vn -0.204859674 0.859461069 0.46835801
vn -0.204859167 0.859460473 0.468359232
vn -0.0487748981 0.960520983 0.273898304
vn -0.20485875 0.859459996 0.468360394
vn -0.510990798 -0.1793084 0.840676427
vn -0.486592293 -0.349306524 0.800757825
vn -0.484150708 -0.364468396 0.795462728
vn -0.512540877 -0.179415926 0.839709222
vn -0.50958395 -0.179210424 0.841550827
vn -0.425499201 -0.600893855 0.676666141
vn -0.425874978 -0.600235879 0.677013576
vn -0.484743893 -0.355119228 0.799320757
vn -0.326978594 -0.835245073 0.442097992
vn -0.339294285 -0.816833258 0.466543376
vn -0.423548669 -0.607203186 0.672243118
vn -0.156563878 -0.985280216 0.0686338618
vn -0.182633623 -0.975842357 0.119902678
vn -0.318802774 -0.845817506 0.427735358
vn 0.0671503544 -0.952125371 -0.298241585
vn 0.0295312274 -0.965237617 -0.259700119
vn -0.157202005 -0.984631658 0.0760791153
vn 0.20967631 -0.856124341 -0.472320795
vn 0.197085381 -0.854718626 -0.480222315
vn 0.0604553111 -0.958892286 -0.277255684
vn 0.220766351 -0.857207954 -0.465249002
vn 0.862124801 -0.050212808 0.504201949
vn 0.871094823 -0.0658519715 0.486679941
vn 0.870019257 -0.0639271513 0.48885563
vn 0.87072897 -0.04487665 0.489711255
vn 0.871442437 -0.0478410013 0.48815912
vn 0.852407932 -0.00109145732 0.522876203
vn 0.852098942 -0.000721566845 0.52338022
vn 0.746977448 0.0253999569 0.66436398
vn 0.723736584 0.0283112358 0.689495385
vn 0.599401951 -0.0298468228 0.799891472
vn 0.597618639 -0.0475075543 0.800371826
vn 0.588192046 -0.120705783 0.79966253
vn 0.093258962 -0.98373121 -0.153544083
vn 0.0932588801 -0.983731151 -0.153543964
vn 0.0932588875 -0.983731151 -0.153543964
vn 0.0932588279 -0.98373127 -0.153543875
vn -0.809370697 -0.139654368 -0.570452332
vn -0.800744116 -0.192963436 -0.567074895
vn -0.808058381 -0.148833975 -0.569991291
vn -0.841340601 -0.0379472561 -0.539171636
vn -0.839556873 -0.0421589129 -0.541633606
vn -0.891079485 0.0521886759 -0.450836629
vn -0.897972345 0.0617467687 -0.43569839
vn -0.956721246 0.0787499696 -0.280147791
vn -0.96556282 0.0722634718 -0.24993287
vn -0.978451073 -0.0036096219 -0.206447348
vn -0.973323464 -0.0237092953 -0.228208974
vn -0.954352677 -0.0796944648 -0.287853658
vn -0.576726317 -0.501421928 0.644951761
vn -0.576739788 -0.50141257 0.644946933
vn -0.576738715 -0.501413345 0.64494735
vn -0.576752186 -0.501403987 0.644942582
vn -0.73145026 0.17964536 -0.657805502
vn -0.7314502 0.179645345 -0.657805502
vn -0.692025125 0.365761608 -0.622350097
vn -0.696945548 0.348453879 -0.626774907
vn -0.731450379 0.17964536 -0.657805383
vn -0.585769296 0.600452781 -0.544362783
vn -0.585893393 0.600819409 -0.543824434
vn -0.694796622 0.356131643 -0.624842286
vn -0.396489203 0.816023588 -0.420596927
vn -0.373521298 0.835589707 -0.402829498
vn -0.581822217 0.607574701 -0.540680885
vn -0.0867360383 0.975527942 -0.202044666
vn -0.0377904661 0.985477269 -0.165548801
vn -0.361404061 0.84584868 -0.392335474
vn 0.239171743 0.968058527 0.0752309263
vn 0.283084303 0.950952113 0.124713361
vn -0.0470053442 0.984290779 -0.17018263
vn 0.422221571 0.859459579 0.288198113
vn 0.422219694 0.859461904 0.28819409
vn 0.260091811 0.960522056 0.0987407193
vn 0.422217995 0.859463871 0.288190484
vn 0.731278598 -0.179308355 0.658088207
vn 0.696579456 -0.349306405 0.626707256
vn 0.691829324 -0.364468336 0.623325765
vn 0.730040669 -0.179415867 0.659432054
vn 0.732398868 -0.179210395 0.656867921
vn 0.58597666 -0.600893736 0.543652475
vn 0.586248279 -0.600235939 0.544086158
vn 0.695510387 -0.355119139 0.624624491
vn 0.373759389 -0.835244894 0.403323472
vn 0.395495385 -0.816833556 0.419959813
vn 0.581992447 -0.607203007 0.540915251
vn 0.038395416 -0.985280156 0.166580036
vn 0.0839368775 -0.975842535 0.201707795
vn 0.36116311 -0.845816731 0.392626107
vn -0.280602962 -0.952126205 -0.121316262
vn -0.249713212 -0.965237796 -0.0771965086
vn 0.0455941893 -0.98463136 0.16858916
vn -0.42521435 -0.856126904 -0.293665528
vn -0.435319394 -0.854721129 -0.282751977
vn -0.261220604 -0.958893478 -0.110847414
vn -0.416203678 -0.857210398 -0.303257287
vn 0.655397296 -0.0502129644 -0.753613353
vn 0.639841497 -0.0658518448 -0.765680254
vn 0.641780198 -0.0639270544 -0.764219522
vn 0.642748713 -0.044876419 -0.764761508
vn 0.641355991 -0.0478408039 -0.765750408
vn 0.671932518 -0.0010915813 -0.740611613
vn 0.672370374 -0.000721650198 -0.740214467
vn 0.791405737 0.0254040696 -0.610763073
vn 0.811791599 0.0283164736 -0.583260357
vn 0.897207379 -0.0298433583 -0.440599948
vn 0.897348106 -0.0475072227 -0.438759029
vn 0.894900262 -0.120711766 -0.42963019
vn -0.133572072 -0.983731687 -0.120126955
vn -0.133572087 -0.983731687 -0.120126948
vn -0.133572102 -0.983731687 -0.120126948
vn -0.133572087 -0.983731687 -0.120126925
vn -0.710710466 -0.139654621 0.689483285
vn -0.705788791 -0.19296366 0.681635618
vn -0.710013628 -0.148834288 0.688279748
vn -0.685904741 -0.0379483141 0.726701081
vn -0.687993169 -0.0421598926 0.724491596
vn -0.608329177 0.0521896929 0.791967154
vn -0.594731808 0.0617487803 0.801549196
vn -0.452781141 0.0787535384 0.888136923
vn -0.424727827 0.0722658262 0.902432263
vn -0.384397864 -0.00360985659 0.923160434
vn -0.404832929 -0.0237091873 0.914083242
vn -0.459931254 -0.0796953887 0.884370863
vn 0.526732743 -0.501420856 0.68638891
vn 0.526734054 -0.501417816 0.686390102
vn 0.526733935 -0.501418114 0.686389983
vn 0.526735246 -0.501415074 0.686391175
vn -0.657805324 0.17964533 0.731450438
vn -0.657805264 0.179645315 0.731450498
vn -0.622349799 0.365761489 0.692025423
vn -0.626774788 0.34845385 0.696945667
vn -0.657805264 0.17964533 0.731450438
vn -0.544362247 0.600452602 0.585770011
vn -0.543824196 0.600819349 0.585893631
vn -0.624842227 0.356131643 0.694796622
vn -0.420596451 0.816023648 0.39648959
vn -0.402829438 0.835589647 0.373521715
vn -0.540681064 0.607574821 0.581821978
vn -0.202044502 0.975528061 0.0867348611
vn -0.165548295 0.985477448 0.0377900712
vn -0.392335624 0.845848441 0.361404449
vn 0.0752257034 0.968058586 -0.239172712
vn 0.124711402 0.950952232 -0.28308478
vn -0.170181841 0.984290898 0.0470062345
vn 0.28818351 0.859465122 -0.422220409
vn 0.28819111 0.85946244 -0.422220528
vn 0.0987458378 0.960521042 -0.26009357
vn 0.288197845 0.859460056 -0.422220647
vn 0.65808785 -0.179308355 -0.731278837
vn 0.626706898 -0.349306434 -0.696579814
vn 0.623325527 -0.364467978 -0.691829681
vn 0.659431636 -0.179415882 -0.730041146
vn 0.656867743 -0.179210395 -0.732398987
vn 0.543652594 -0.600893617 -0.585976779
vn 0.544086337 -0.600235641 -0.586248457
vn 0.624624074 -0.355119228 -0.695510685
vn 0.403322995 -0.835245311 -0.373759091
vn 0.419959158 -0.816833794 -0.395495653
vn 0.540915191 -0.607203245 -0.581992209
vn 0.166579336 -0.985280216 -0.038395565
vn 0.201705992 -0.975842714 -0.0839383677
vn 0.392625988 -0.845817208 -0.361162186
vn -0.121320643 -0.952124894 0.280605555
vn -0.0772023648 -0.965237737 0.249711633
vn 0.168589398 -0.98463136 -0.0455925055
vn -0.293674946 -0.856120467 0.425220877
vn -0.2827636 -0.854717553 0.435318828
vn -0.110850453 -0.958891034 0.261228293
vn -0.303264856 -0.857201457 0.416216373
vn -0.753612936 -0.050212983 -0.655397832
vn -0.765682995 -0.0658513084 -0.639838457
vn -0.764221728 -0.0639264211 -0.641777635
vn -0.764763236 -0.044874575 -0.642746866
vn -0.765752196 -0.0478383191 -0.641354084
vn -0.740605593 -0.00109308201 -0.671939135
vn -0.740208507 -0.000723381119 -0.67237711
vn -0.610752702 0.0253925733 -0.791414142
vn -0.583251834 0.0283037201 -0.811798096
vn -0.440594465 -0.0298545565 -0.897209704
vn -0.438754141 -0.0475155264 -0.897349954
vn -0.429627985 -0.120713405 -0.894901156
vn -0.120118931 -0.983733654 0.133565083
vn -0.120115399 -0.983734012 0.133565277
vn -0.120115407 -0.983734012 0.133565277
vn -0.12011189 -0.983734429 0.1335655
vn 0.689484715 -0.139654845 0.710709035
vn 0.681636393 -0.192963839 0.705787957
vn 0.688281 -0.148835137 0.710012257
vn 0.726701736 -0.0379471965 0.685904205
vn 0.724492371 -0.0421586819 0.687992394
vn 0.79196769 0.0521873347 0.608328521
vn 0.801549792 0.0617445484 0.59473145
vn 0.888138056 0.0787440315 0.452780545
vn 0.902431011 0.0722575262 0.424731851
vn 0.923159838 -0.00361203961 0.384399295
vn 0.914083183 -0.0237097945 0.404833138
vn 0.884373307 -0.0796906725 0.459927499
vn 0.686395347 -0.501400948 -0.526743233
vn 0.686394334 -0.50140655 -0.526739299
vn 0.686394453 -0.501406074 -0.526739597
vn 0.68639344 -0.501411676 -0.526735663
vn 0.63506788 0.179645374 0.751276493
vn 0.635068059 0.179645374 0.751276314
vn 0.600838065 0.365761459 0.710782707
vn 0.60510999 0.34845373 0.715836465
vn 0.635067701 0.179645374 0.751276612
vn 0.506190956 0.600452363 0.619053841
vn 0.506387174 0.60081917 0.618537307
vn 0.603244066 0.356131613 0.713629484
vn 0.335525662 0.816023409 0.470667899
vn 0.315191686 0.835589349 0.449938506
vn 0.502781868 0.607574642 0.614868581
vn 0.0584168956 0.975528002 0.211972937
vn 0.0148959244 0.985477269 0.169152483
vn 0.304616332 0.84584856 0.437891662
vn -0.226700187 0.968058884 -0.107093729
vn -0.263471752 0.950950861 -0.162095815
vn 0.0233929176 0.984290719 0.174998373
vn -0.379049599 0.8594625 -0.342995048
vn -0.379054457 0.859459639 -0.342996925
vn -0.24423404 0.960519493 -0.13323696
vn -0.379058748 0.859457016 -0.342998564
vn -0.634859264 -0.179308459 -0.75153321
vn -0.604756355 -0.349306434 -0.715719759
vn -0.600511014 -0.364468247 -0.711722791
vn -0.633449554 -0.179416105 -0.752696276
vn -0.636135578 -0.17921035 -0.750476599
vn -0.506492794 -0.600893617 -0.61837846
vn -0.506703436 -0.600235641 -0.618844688
vn -0.603980839 -0.355119258 -0.713510752
vn -0.315359533 -0.835244954 -0.450460047
vn -0.334628731 -0.816833436 -0.469900757
vn -0.502917826 -0.607202947 -0.615124643
vn -0.0153552499 -0.985280156 -0.170256734
vn -0.0556908324 -0.975842535 -0.211257815
vn -0.30433616 -0.84581697 -0.438147485
vn 0.26147455 -0.952125072 0.158394784
vn 0.236873269 -0.965238035 0.110483475
vn -0.0222111065 -0.9846313 -0.173227638
vn 0.381276965 -0.856122136 0.348830432
vn 0.392760068 -0.854720235 0.339400768
vn 0.24370645 -0.958890617 0.145382181
vn 0.371056557 -0.857202649 0.357100517
vn -0.751909077 -0.0502130762 0.657351851
vn -0.738141 -0.0658512637 0.671424925
vn -0.739862502 -0.0639267862 0.669713974
vn -0.740899324 -0.0448770076 0.670115113
vn -0.739653826 -0.0478415899 0.671284914
vn -0.766527534 -0.00109670765 0.642210484
vn -0.766907156 -0.000727040926 0.641757667
vn -0.867202938 0.0253958404 0.497306794
vn -0.883652866 0.0283082444 0.467285991
vn -0.948847115 -0.0298469625 0.314322084
vn -0.948736489 -0.0475082099 0.312477171
vn -0.945071757 -0.120708145 0.303758115
vn 0.115968592 -0.983732104 0.137194857
vn 0.1159686 -0.983732164 0.137194857
vn 0.115968592 -0.983732104 0.137194842
vn 0.797973573 -0.139654249 -0.586289048
vn 0.792031169 -0.192963272 -0.579182088
vn 0.797119737 -0.148833871 -0.58519119
vn 0.778463066 -0.0379481725 -0.62654233
vn 0.780231774 -0.0421610512 -0.624068022
vn 0.710499704 0.0521800667 -0.701760232
vn 0.698336363 0.061736051 -0.713102341
vn 0.569497168 0.0787404329 -0.818213284
vn 0.543653011 0.0722561106 -0.836194038
vn 0.506518185 -0.00361915282 -0.862221658
vn 0.52553004 -0.0237232912 -0.850444198
vn 0.576072872 -0.0797179639 -0.813501775
vn -0.428393483 -0.501401722 -0.751715004
vn -0.428380609 -0.501409411 -0.75171715
vn -0.428381622 -0.501408815 -0.751716971
vn -0.428368747 -0.501416504 -0.751719117
vn -0.552722096 -0.101128474 -0.827207029
vn -0.552722096 -0.101128466 -0.82720691
vn -0.380721629 -0.101128459 -0.919143081
vn -0.380721658 -0.101128452 -0.91914314
vn -0.703481734 -0.101128489 -0.703481734
vn -0.703481734 -0.101128496 -0.703481734
vn -0.194090247 -0.101128444 -0.975757182
vn -0.194090262 -0.101128444 -0.975757182
vn -4.79613282e-09 -0.101128422 -0.994873405
vn -9.47210399e-09 -0.101128422 -0.994873405
vn 0.194090322 -0.101128444 -0.975757182
vn 0.194090337 -0.101128452 -0.975757182
vn 0.380721688 -0.101128452 -0.91914314
vn 0.380721688 -0.101128459 -0.91914314
vn 0.552722037 -0.101128437 -0.827206969
vn 0.552722037 -0.101128444 -0.827207029
vn 0.703481674 -0.101128459 -0.703481734
vn 0.703481615 -0.101128459 -0.703481793
vn 0.827206969 -0.101128466 -0.552722096
vn 0.827207029 -0.101128459 -0.552722037
vn 0.919143021 -0.101128459 -0.380721837
vn 0.919143081 -0.101128459 -0.380721807
vn 0.975757122 -0.101128474 -0.194090456
vn 0.975757122 -0.101128481 -0.194090456
vn 0.994873405 -0.101128474 0
vn 0.994873405 -0.101128481 0
vn 0.975757122 -0.101128459 0.194090456
vn 0.919143021 -0.101128459 0.380721837
vn 0.919143081 -0.101128459 0.380721807
vn 0.82720691 -0.101128466 0.552722096
vn 0.827207029 -0.101128474 0.552722096
vn 0.703481674 -0.101128459 0.703481734
vn 0.703481674 -0.101128459 0.703481793
vn 0.194090337 -0.101128444 0.975757182
vn 0.194090322 -0.101128437 0.975757182
vn -4.79613282e-09 -0.101128459 0.994873405
vn -9.47210399e-09 -0.101128459 0.994873405
vn 0.380721629 -0.101128459 0.91914314
vn 0.380721629 -0.101128459 0.9191432
vn 0.552721977 -0.101128474 0.827207029
vn 0.552722037 -0.101128481 0.827207029
vn -0.194090247 -0.101128437 0.975757182
vn -0.194090262 -0.101128444 0.975757182
vn -0.380721599 -0.101128459 0.9191432
vn -0.380721569 -0.101128452 0.9191432
vn -0.552722096 -0.101128474 0.827206969
vn -0.552722096 -0.101128481 0.827207029
vn -0.703481734 -0.101128466 0.703481734
vn -0.703481734 -0.101128452 0.703481734
vn -0.827207088 -0.101128459 0.552721918
vn -0.827207088 -0.101128459 0.552721977
vn -0.9191432 -0.101128437 0.38072139
vn -0.91914326 -0.101128444 0.38072142
vn -0.975757182 -0.101128437 0.194090322
vn -0.975757182 -0.101128444 0.194090322
vn -0.994873405 -0.101128444 -0
vn -0.994873405 -0.101128452 -0
vn -0.975757182 -0.101128459 -0.194090322
vn -0.9191432 -0.101128437 -0.38072139
vn -0.91914326 -0.101128452 -0.38072145
vn -0.827207088 -0.101128459 -0.552721918
vn -0.827207029 -0.101128459 -0.552721977
vn -3.75185351e-07 -1 -0
vn -3.75185522e-07 -1 -0
vn -4.68981852e-07 -1 -0
vn -4.68981881e-07 -1 -0
vn 3.75185067e-07 -1 0
vn 3.75184584e-07 -1 0
vn 3.751843e-07 -1 0
vn 3.75185493e-07 -1 0
vn -3.75185266e-07 -1 -0
vn 0 -1 0
vn 3.75185209e-07 -1 0
vn 3.75185039e-07 -1 0
vn 3.75185181e-07 -1 0
vn -3.75185181e-07 -1 -0
vn -3.75185294e-07 -1 -0
vn -3.75185209e-07 -1 -0
vn 3.7518555e-07 -1 0
vn 3.75185436e-07 -1 0
vn 1.12555654e-06 -1 0
vn 1.03175989e-06 -1 0
vn 1.03176012e-06 -1 0
vn -3.75185493e-07 -1 -0
vn -2.81388878e-07 -1 -0
vn -2.81389049e-07 -1 -0
vn 3.75185323e-07 -1 0
vn -3.75185152e-07 -1 -0
vn -3.75185465e-07 -1 -0
vn -3.75185664e-07 -1 -0
vn -3.75185607e-07 -1 -0
vn 3.75184982e-07 -1 0
vn 3.75185408e-07 -1 0
vn 4.68981568e-07 -1 0
vn -3.75185436e-07 -1 -0
vn -3.7518555e-07 -1 -0
vn -0.195090443 0 -0.98078531
vn 0 0 -1
vn -0.382683337 0 -0.923879623
vn -0.555570245 0 -0.831469595
vn -0.707106769 0 -0.707106769
vn 0.195090398 0 -0.98078531
vn 0.382683337 0 -0.923879623
vn 0.555570245 0 -0.831469595
vn 0.707106769 0 -0.707106769
vn 0.831469595 0 -0.555570364
vn 0.923879683 0 -0.382683247
vn 0.98078531 0 -0.19509019
vn 1 0 2.3830685e-08
vn 0.98078531 0 0.195090204
vn 0.923879623 0 0.382683367
vn 0.831469536 0 0.555570483
vn 0.707106709 0 0.707106888
vn -0.195090443 0 0.98078531
vn -0.382683337 0 0.923879623
vn 0 0 1
vn 0.195090398 0 0.98078531
vn 0.382683337 0 0.923879623
vn 0.555570185 0 0.831469595
vn -0.555570185 0 0.831469655
vn -0.707106709 0 0.707106888
vn -0.831469655 0 0.555570185
vn -0.923879683 0 0.382683247
vn -0.98078531 0 0.195090353
vn -1 0 2.3830685e-08
vn -0.98078531 0 -0.195090339
vn -0.923879683 0 -0.382683069
vn -0.831469774 0 -0.555570126
vn 3.54771402e-07 1 0
vn 3.54771487e-07 1 0
vn 7.09542917e-07 1 0
vn 3.54771515e-07 1 0
vn 3.54771629e-07 1 0
vn 8.86928547e-07 1 0
vn 8.8692849e-07 1 0
vn 7.09542746e-07 1 0
vn 7.09542689e-07 1 0
vn -1.77385701e-07 1 0
vn -1.77385743e-07 1 0
vn -2.66078615e-07 1 0
vn -2.66078558e-07 1 0
vn -2.66078757e-07 1 0
vn -2.66078644e-07 1 0
vn -7.09542746e-07 1 0
vn -7.0954286e-07 1 0
vn -3.54771345e-07 1 0
vn -3.54771373e-07 1 0
vn 0 1 0
vn -3.85990136e-14 1 0
vn -6.81196771e-14 1 0
vn -7.09542917e-07 1 0
vn -7.09543031e-07 1 0
vn -1.92995034e-13 1 0
vn -2.72478817e-13 1 0
vn 7.09542803e-07 1 0
vn 2.31594041e-13 1 0
vn -3.40598521e-14 1 0
vn 8.86929428e-08 1 0
vn 8.86928007e-08 1 0
vn 4.43464245e-07 1 0
vn -1.77385715e-07 1 0
vn -3.54771515e-07 1 0
vn -3.54771487e-07 1 0
vn -1.77385758e-07 1 0
vn -1.77385786e-07 1 0
vn 3.54771203e-07 1 0
vn 3.54771117e-07 1 0
vn 3.40598521e-14 1 0
vn 3.47391143e-13 1 0
vn 3.40598372e-13 1 0
vn 7.09543031e-07 1 0
vn 7.09542974e-07 1 0
vn 0.978288889 0.0713022724 0.194593951
vn 0.98015815 0.0357533656 0.194965854
vn 0.923288882 0.0357533619 0.382438719
vn 0.921528041 0.0713022649 0.381709248
vn 0.997454703 0.0713022575 4.78729412e-09
vn 0.999360681 0.0357533582 7.13781212e-09
vn 0.980785251 0 0.195090622
vn 0.923879623 0 0.382683396
vn 0.83093822 0.0357533619 0.555214763
vn 0.831469834 0 0.555569947
vn 0.829353511 0.0713022575 0.554155886
vn 0.706654787 0.0357533656 0.706654608
vn 0.707106948 0 0.70710659
vn 0.705307126 0.0713022724 0.705306947
vn 1 0 9.53227275e-09
vn 0.980158091 0.0357533619 -0.194965869
vn 0.980785251 0 -0.195090666
vn 0.978288889 0.0713022724 -0.194593966
vn 0.921528041 0.0713022575 -0.381709248
vn 0.923288882 0.0357533582 -0.382438689
vn 0.923879564 0 -0.382683426
vn 0.829353571 0.0713022351 -0.554155886
vn 0.83093822 0.0357533544 -0.555214703
vn 0.831469834 0 -0.555569947
vn 0.705307126 0.0713022575 -0.705306947
vn 0.706654787 0.0357533619 -0.706654608
vn 0.707106948 0 -0.70710659
vn 0.554156065 0.0713022873 -0.829353392
vn 0.555214882 0.0357533768 -0.830938101
vn 0.555570126 0 -0.831469655
vn 0.381709218 0.0713022724 -0.921528101
vn 0.382438511 0.0357533619 -0.923288882
vn 0.382683188 0 -0.923879683
vn 0.194593832 0.07130225 -0.978288889
vn 0.194965705 0.0357533544 -0.98015815
vn 0.195090443 0 -0.980785251
vn 0 0.0713022202 -0.997454762
vn 0 0.0357533395 -0.999360681
vn -0.194593877 0.0713022575 -0.978288949
vn -0.194965705 0.0357533507 -0.98015815
vn -0.195090443 0 -0.980785251
vn -0.381709337 0.0713022575 -0.921528041
vn -0.382438689 0.0357533582 -0.923288882
vn -0.382683367 0 -0.923879623
vn -0.554156005 0.0713022575 -0.829353392
vn -0.555214822 0.0357533582 -0.83093816
vn -0.555570126 0 -0.831469774
vn -0.705306888 0.0713022426 -0.705307126
vn -0.706654608 0.0357533544 -0.706654787
vn -0.707106709 0 -0.707106948
vn -0.829353333 0.0713022351 -0.554156244
vn -0.830937982 0.0357533507 -0.555215061
vn -0.92152822 0.0713022575 -0.381709009
vn -0.923288941 0.0357533544 -0.38243857
vn -0.831469655 0 -0.555570185
vn -0.978288949 0.0713022351 -0.194593877
vn -0.98015815 0.035753347 -0.194965824
vn -0.923879564 0 -0.382683396
vn -0.997454762 0.0713022202 9.57458912e-09
vn -0.999360681 0.0357533433 9.51708401e-09
vn -0.980785251 0 -0.195090666
vn -0.978288889 0.07130225 0.194593862
vn -0.98015815 0.0357533582 0.19496581
vn -1 0 9.53227275e-09
vn -0.92152822 0.0713022575 0.381709009
vn -0.923288941 0.0357533582 0.38243857
vn -0.980785251 0 0.195090652
vn -0.829353333 0.07130225 0.554156244
vn -0.830937982 0.0357533544 0.555215061
vn -0.923879623 0 0.382683367
vn -0.705306888 0.0713022649 0.705307126
vn -0.706654608 0.0357533656 0.706654906
vn -0.831469595 0 0.555570245
vn -0.554156065 0.0713022426 0.829353452
vn -0.555214822 0.035753347 0.83093816
vn -0.707106709 0 0.707106948
vn -0.381709397 0.0713022575 0.921528041
vn -0.382438749 0.0357533507 0.923288822
vn -0.555570126 0 0.831469774
vn -0.194593892 0.0713022724 0.978288889
vn -0.194965795 0.0357533656 0.98015815
vn -0.382683456 0 0.923879564
vn 0 0.0713022351 0.997454762
vn 2.37927056e-09 0.0357533433 0.999360681
vn -0.195090577 0 0.980785251
vn 0.194593921 0.0713022575 0.978288889
vn 0.194965824 0.0357533619 0.98015815
vn 0.381709248 0.0713022426 0.921528041
vn 0.3824386 0.0357533507 0.923288882
vn 0.195090577 0 0.980785251
vn 0.554156005 0.0713022575 0.829353392
vn 0.555214942 0.0357533619 0.830938101
vn 0.382683307 0 0.923879623
vn 0.555570126 0 0.831469655
vn -5.00791696e-14 -1 -0
vn 5.75517092e-08 1 0

# Mesh 'Plane.007' with 320 faces
g Plane.007
usemtl Material.002
f  1/1/1 2/2/2 3/3/3
f  1/1/1 3/3/3 4/4/4
f  5/5/5 1/1/1 4/4/4
f  4/4/4 3/3/3 6/6/6
f  4/4/4 6/6/6 7/7/7
f  8/8/8 4/4/4 7/7/7
f  5/5/5 4/4/4 8/8/8
f  7/7/7 6/6/6 9/9/9
f  7/7/7 9/9/9 10/10/10
f  11/11/11 7/7/7 10/10/10
f  8/8/8 7/7/7 11/11/11
f  10/10/10 9/9/9 12/12/12
f  10/10/10 12/12/12 13/13/13
f  14/14/14 10/10/10 13/13/13
f  11/11/11 10/10/10 14/14/14
f  13/13/13 12/12/12 15/15/15
f  13/13/13 15/15/15 16/16/16
f  17/17/17 13/13/13 16/16/16
f  14/14/14 13/13/13 17/17/17
f  16/16/16 15/15/15 18/18/18
f  16/16/16 18/18/18 19/19/19
f  20/20/20 16/16/16 19/19/19
f  17/17/17 16/16/16 20/20/20
f  20/20/20 19/19/19 21/21/21
f  22/1/22 23/4/23 24/3/24
f  22/1/22 24/3/24 25/2/25
f  26/5/26 23/4/23 22/1/22
f  23/4/23 27/7/27 28/6/28
f  23/4/23 28/6/28 24/3/24
f  29/8/29 27/7/27 23/4/23
f  26/5/26 29/8/29 23/4/23
f  27/7/27 30/10/30 31/9/31
f  27/7/27 31/9/31 28/6/28
f  32/11/32 30/10/30 27/7/27
f  29/8/29 32/11/32 27/7/27
f  30/10/30 33/13/33 34/12/34
f  30/10/30 34/12/34 31/9/31
f  35/14/35 33/13/33 30/10/30
f  32/11/32 35/14/35 30/10/30
f  33/13/33 36/16/36 37/15/37
f  33/13/33 37/15/37 34/12/34
f  38/17/38 36/16/36 33/13/33
f  35/14/35 38/17/38 33/13/33
f  36/16/36 39/19/39 40/18/40
f  36/16/36 40/18/40 37/15/37
f  41/20/41 39/19/39 36/16/36
f  38/17/38 41/20/41 36/16/36
f  41/20/41 42/21/42 39/19/39
f  5/5/43 8/8/44 29/8/45
f  5/5/43 29/8/45 26/5/43
f  8/8/44 11/11/46 32/11/47
f  8/8/44 32/11/47 29/8/45
f  11/11/46 14/14/48 35/14/49
f  11/11/46 35/14/49 32/11/47
f  14/14/48 17/17/50 38/17/51
f  14/14/48 38/17/51 35/14/49
f  17/17/50 20/20/52 41/20/53
f  17/17/50 41/20/53 38/17/51
f  20/20/52 21/21/54 42/21/54
f  20/20/52 42/21/54 41/20/53
f  2/2/55 1/1/56 22/1/57
f  2/2/55 22/1/57 25/2/55
f  1/1/56 5/5/58 26/5/58
f  1/1/56 26/5/58 22/1/57
f  3/3/59 2/2/60 25/2/60
f  3/3/59 25/2/60 24/3/61
f  6/6/62 3/3/59 24/3/61
f  6/6/62 24/3/61 28/6/63
f  9/9/64 6/6/62 28/6/63
f  9/9/64 28/6/63 31/9/65
f  12/12/66 9/9/64 31/9/65
f  12/12/66 31/9/65 34/12/67
f  15/15/68 12/12/66 34/12/67
f  15/15/68 34/12/67 37/15/69
f  18/18/70 15/15/68 37/15/69
f  18/18/70 37/15/69 40/18/70
f  21/21/71 19/19/72 39/19/73
f  21/21/71 39/19/73 42/21/71
f  19/19/72 18/18/74 40/18/74
f  19/19/72 40/18/74 39/19/73
f  43/1/75 44/2/76 45/3/77
f  43/1/75 45/3/77 46/4/78
f  47/5/79 43/1/75 46/4/78
f  46/4/78 45/3/77 48/6/80
f  46/4/78 48/6/80 49/7/81
f  50/8/82 46/4/78 49/7/81
f  47/5/79 46/4/78 50/8/82
f  49/7/81 48/6/80 51/9/83
f  49/7/81 51/9/83 52/10/84
f  53/11/85 49/7/81 52/10/84
f  50/8/82 49/7/81 53/11/85
f  52/10/84 51/9/83 54/12/86
f  52/10/84 54/12/86 55/13/87
f  56/14/88 52/10/84 55/13/87
f  53/11/85 52/10/84 56/14/88
f  55/13/87 54/12/86 57/15/89
f  55/13/87 57/15/89 58/16/90
f  59/17/91 55/13/87 58/16/90
f  56/14/88 55/13/87 59/17/91
f  58/16/90 57/15/89 60/18/92
f  58/16/90 60/18/92 61/19/93
f  62/20/94 58/16/90 61/19/93
f  59/17/91 58/16/90 62/20/94
f  62/20/94 61/19/93 63/21/95
f  64/1/96 65/4/97 66/3/98
f  64/1/96 66/3/98 67/2/99
f  68/5/100 65/4/97 64/1/96
f  65/4/97 69/7/101 70/6/102
f  65/4/97 70/6/102 66/3/98
f  71/8/103 69/7/101 65/4/97
f  68/5/100 71/8/103 65/4/97
f  69/7/101 72/10/104 73/9/105
f  69/7/101 73/9/105 70/6/102
f  74/11/106 72/10/104 69/7/101
f  71/8/103 74/11/106 69/7/101
f  72/10/104 75/13/107 76/12/108
f  72/10/104 76/12/108 73/9/105
f  77/14/109 75/13/107 72/10/104
f  74/11/106 77/14/109 72/10/104
f  75/13/107 78/16/110 79/15/111
f  75/13/107 79/15/111 76/12/108
f  80/17/112 78/16/110 75/13/107
f  77/14/109 80/17/112 75/13/107
f  78/16/110 81/19/113 82/18/114
f  78/16/110 82/18/114 79/15/111
f  83/20/115 81/19/113 78/16/110
f  80/17/112 83/20/115 78/16/110
f  83/20/115 84/21/116 81/19/113
f  47/5/117 50/8/118 71/8/119
f  47/5/117 71/8/119 68/5/117
f  50/8/118 53/11/120 74/11/121
f  50/8/118 74/11/121 71/8/119
f  53/11/120 56/14/122 77/14/123
f  53/11/120 77/14/123 74/11/121
f  56/14/122 59/17/124 80/17/125
f  56/14/122 80/17/125 77/14/123
f  59/17/124 62/20/126 83/20/127
f  59/17/124 83/20/127 80/17/125
f  62/20/126 63/21/128 84/21/128
f  62/20/126 84/21/128 83/20/127
f  44/2/129 43/1/130 64/1/131
f  44/2/129 64/1/131 67/2/129
f  43/1/130 47/5/132 68/5/132
f  43/1/130 68/5/132 64/1/131
f  45/3/133 44/2/134 67/2/134
f  45/3/133 67/2/134 66/3/135
f  48/6/136 45/3/133 66/3/135
f  48/6/136 66/3/135 70/6/137
f  51/9/138 48/6/136 70/6/137
f  51/9/138 70/6/137 73/9/139
f  54/12/140 51/9/138 73/9/139
f  54/12/140 73/9/139 76/12/141
f  57/15/142 54/12/140 76/12/141
f  57/15/142 76/12/141 79/15/143
f  60/18/144 57/15/142 79/15/143
f  60/18/144 79/15/143 82/18/144
f  63/21/145 61/19/146 81/19/147
f  63/21/145 81/19/147 84/21/145
f  61/19/146 60/18/148 82/18/148
f  61/19/146 82/18/148 81/19/147
f  85/1/149 86/2/150 87/3/151
f  85/1/149 87/3/151 88/4/152
f  89/5/153 85/1/149 88/4/152
f  88/4/152 87/3/151 90/6/154
f  88/4/152 90/6/154 91/7/155
f  92/8/156 88/4/152 91/7/155
f  89/5/153 88/4/152 92/8/156
f  91/7/155 90/6/154 93/9/157
f  91/7/155 93/9/157 94/10/158
f  95/11/159 91/7/155 94/10/158
f  92/8/156 91/7/155 95/11/159
f  94/10/158 93/9/157 96/12/160
f  94/10/158 96/12/160 97/13/161
f  98/14/162 94/10/158 97/13/161
f  95/11/159 94/10/158 98/14/162
f  97/13/161 96/12/160 99/15/163
f  97/13/161 99/15/163 100/16/164
f  101/17/165 97/13/161 100/16/164
f  98/14/162 97/13/161 101/17/165
f  100/16/164 99/15/163 102/18/166
f  100/16/164 102/18/166 103/19/167
f  104/20/168 100/16/164 103/19/167
f  101/17/165 100/16/164 104/20/168
f  104/20/168 103/19/167 105/21/169
f  106/1/170 107/4/171 108/3/172
f  106/1/170 108/3/172 109/2/173
f  110/5/174 107/4/171 106/1/170
f  107/4/171 111/7/175 112/6/176
f  107/4/171 112/6/176 108/3/172
f  113/8/177 111/7/175 107/4/171
f  110/5/174 113/8/177 107/4/171
f  111/7/175 114/10/178 115/9/179
f  111/7/175 115/9/179 112/6/176
f  116/11/180 114/10/178 111/7/175
f  113/8/177 116/11/180 111/7/175
f  114/10/178 117/13/181 118/12/182
f  114/10/178 118/12/182 115/9/179
f  119/14/183 117/13/181 114/10/178
f  116/11/180 119/14/183 114/10/178
f  117/13/181 120/16/184 121/15/185
f  117/13/181 121/15/185 118/12/182
f  122/17/186 120/16/184 117/13/181
f  119/14/183 122/17/186 117/13/181
f  120/16/184 123/19/187 124/18/188
f  120/16/184 124/18/188 121/15/185
f  125/20/189 123/19/187 120/16/184
f  122/17/186 125/20/189 120/16/184
f  125/20/189 126/21/190 123/19/187
f  89/5/191 92/8/192 113/8/193
f  89/5/191 113/8/193 110/5/191
f  92/8/192 95/11/194 116/11/195
f  92/8/192 116/11/195 113/8/193
f  95/11/194 98/14/196 119/14/197
f  95/11/194 119/14/197 116/11/195
f  98/14/196 101/17/198 122/17/199
f  98/14/196 122/17/199 119/14/197
f  101/17/198 104/20/200 125/20/201
f  101/17/198 125/20/201 122/17/199
f  104/20/200 105/21/202 126/21/202
f  104/20/200 126/21/202 125/20/201
f  86/2/203 85/1/204 106/1/205
f  86/2/203 106/1/205 109/2/203
f  85/1/204 89/5/206 110/5/206
f  85/1/204 110/5/206 106/1/205
f  87/3/207 86/2/208 109/2/208
f  87/3/207 109/2/208 108/3/209
f  90/6/210 87/3/207 108/3/209
f  90/6/210 108/3/209 112/6/211
f  93/9/212 90/6/210 112/6/211
f  93/9/212 112/6/211 115/9/213
f  96/12/214 93/9/212 115/9/213
f  96/12/214 115/9/213 118/12/215
f  99/15/216 96/12/214 118/12/215
f  99/15/216 118/12/215 121/15/217
f  102/18/218 99/15/216 121/15/217
f  102/18/218 121/15/217 124/18/218
f  105/21/219 103/19/220 123/19/221
f  105/21/219 123/19/221 126/21/219
f  103/19/220 102/18/222 124/18/222
f  103/19/220 124/18/222 123/19/221
f  127/1/223 128/2/224 129/3/225
f  127/1/223 129/3/225 130/4/226
f  131/5/227 127/1/223 130/4/226
f  130/4/226 129/3/225 132/6/228
f  130/4/226 132/6/228 133/7/229
f  134/8/230 130/4/226 133/7/229
f  131/5/227 130/4/226 134/8/230
f  133/7/229 132/6/228 135/9/231
f  133/7/229 135/9/231 136/10/232
f  137/11/233 133/7/229 136/10/232
f  134/8/230 133/7/229 137/11/233
f  136/10/232 135/9/231 138/12/234
f  136/10/232 138/12/234 139/13/235
f  140/14/236 136/10/232 139/13/235
f  137/11/233 136/10/232 140/14/236
f  139/13/235 138/12/234 141/15/237
f  139/13/235 141/15/237 142/16/238
f  143/17/239 139/13/235 142/16/238
f  140/14/236 139/13/235 143/17/239
f  142/16/238 141/15/237 144/18/240
f  142/16/238 144/18/240 145/19/241
f  146/20/242 142/16/238 145/19/241
f  143/17/239 142/16/238 146/20/242
f  146/20/242 145/19/241 147/21/243
f  148/1/244 149/4/245 150/3/246
f  148/1/244 150/3/246 151/2/247
f  152/5/248 149/4/245 148/1/244
f  149/4/245 153/7/249 154/6/250
f  149/4/245 154/6/250 150/3/246
f  155/8/251 153/7/249 149/4/245
f  152/5/248 155/8/251 149/4/245
f  153/7/249 156/10/252 157/9/253
f  153/7/249 157/9/253 154/6/250
f  158/11/254 156/10/252 153/7/249
f  155/8/251 158/11/254 153/7/249
f  156/10/252 159/13/255 160/12/256
f  156/10/252 160/12/256 157/9/253
f  161/14/257 159/13/255 156/10/252
f  158/11/254 161/14/257 156/10/252
f  159/13/255 162/16/258 163/15/259
f  159/13/255 163/15/259 160/12/256
f  164/17/260 162/16/258 159/13/255
f  161/14/257 164/17/260 159/13/255
f  162/16/258 165/19/261 166/18/262
f  162/16/258 166/18/262 163/15/259
f  167/20/263 165/19/261 162/16/258
f  164/17/260 167/20/263 162/16/258
f  167/20/263 168/21/264 165/19/261
f  131/5/265 134/8/266 155/8/267
f  131/5/265 155/8/267 152/5/265
f  134/8/266 137/11/268 158/11/269
f  134/8/266 158/11/269 155/8/267
f  137/11/268 140/14/270 161/14/271
f  137/11/268 161/14/271 158/11/269
f  140/14/270 143/17/272 164/17/273
f  140/14/270 164/17/273 161/14/271
f  143/17/272 146/20/274 167/20/275
f  143/17/272 167/20/275 164/17/273
f  146/20/274 147/21/276 168/21/276
f  146/20/274 168/21/276 167/20/275
f  128/2/277 127/1/278 148/1/278
f  128/2/277 148/1/278 151/2/277
f  127/1/278 131/5/279 152/5/279
f  127/1/278 152/5/279 148/1/278
f  129/3/280 128/2/281 151/2/281
f  129/3/280 151/2/281 150/3/282
f  132/6/283 129/3/280 150/3/282
f  132/6/283 150/3/282 154/6/284
f  135/9/285 132/6/283 154/6/284
f  135/9/285 154/6/284 157/9/286
f  138/12/287 135/9/285 157/9/286
f  138/12/287 157/9/286 160/12/288
f  141/15/289 138/12/287 160/12/288
f  141/15/289 160/12/288 163/15/290
f  144/18/291 141/15/289 163/15/290
f  144/18/291 163/15/290 166/18/291
f  147/21/292 145/19/293 165/19/294
f  147/21/292 165/19/294 168/21/292
f  145/19/293 144/18/295 166/18/295
f  145/19/293 166/18/295 165/19/294

# Mesh 'Plane.007_1' with 444 faces
g Plane.007_1
usemtl Material.003
f  169/22/296 170/23/297 171/24/298
f  169/22/296 171/24/298 172/25/299
f  173/26/300 170/23/297 169/22/296
f  173/26/300 174/27/301 170/23/297
f  172/25/299 171/24/298 175/28/302
f  172/25/299 175/28/302 176/29/303
f  176/29/303 175/28/302 177/30/304
f  176/29/303 177/30/304 178/31/305
f  178/31/305 177/30/304 179/32/306
f  178/31/305 179/32/306 180/33/307
f  180/33/307 179/32/306 181/34/308
f  180/33/307 181/34/308 182/35/309
f  182/35/309 181/34/308 183/36/310
f  182/35/309 183/36/310 184/37/311
f  184/37/311 183/36/310 185/38/312
f  184/37/311 185/38/312 186/39/313
f  186/39/313 185/38/312 187/36/314
f  186/39/313 187/36/314 188/37/315
f  188/37/315 187/36/314 189/34/316
f  188/37/315 189/34/316 190/35/317
f  190/35/317 189/34/316 191/32/318
f  190/35/317 191/32/318 192/33/319
f  192/33/319 191/32/318 193/30/320
f  192/33/319 193/30/320 194/31/321
f  194/31/321 193/30/320 195/28/322
f  194/31/321 195/28/322 196/29/322
f  196/29/322 195/28/322 197/24/323
f  196/29/322 197/24/323 198/25/324
f  198/25/324 197/24/323 199/23/325
f  198/25/324 199/23/325 200/22/326
f  200/22/326 199/23/325 201/27/327
f  200/22/326 201/27/327 202/26/328
f  203/33/329 204/32/330 205/30/331
f  203/33/329 205/30/331 206/31/332
f  207/35/333 204/32/330 203/33/329
f  207/35/333 208/34/334 204/32/330
f  209/37/335 208/34/334 207/35/333
f  209/37/335 210/36/336 208/34/334
f  202/39/328 210/36/336 209/37/335
f  202/39/328 201/38/327 210/36/336
f  206/31/332 205/30/331 211/28/337
f  206/31/332 211/28/337 212/29/338
f  212/29/338 211/28/337 213/24/339
f  212/29/338 213/24/339 214/25/340
f  214/25/340 213/24/339 215/23/341
f  214/25/340 215/23/341 216/22/342
f  216/22/342 215/23/341 217/27/343
f  216/22/342 217/27/343 218/26/344
f  218/26/344 217/27/343 219/23/345
f  218/26/344 219/23/345 220/22/346
f  220/22/346 219/23/345 221/24/347
f  220/22/346 221/24/347 222/25/348
f  222/25/348 221/24/347 223/28/349
f  222/25/348 223/28/349 224/29/350
f  224/29/350 223/28/349 225/30/351
f  224/29/350 225/30/351 226/31/352
f  226/31/352 225/30/351 227/32/353
f  226/31/352 227/32/353 228/33/353
f  228/33/353 227/32/353 229/34/354
f  228/33/353 229/34/354 230/35/355
f  230/35/355 229/34/354 231/36/356
f  230/35/355 231/36/356 232/37/357
f  232/37/357 231/36/356 174/38/301
f  232/37/357 174/38/301 173/39/300
f  191/40/358 233/41/359 234/42/360
f  191/40/358 234/42/360 193/43/361
f  189/44/362 233/41/359 191/40/358
f  189/44/362 235/45/363 233/41/359
f  187/46/364 235/45/363 189/44/362
f  187/46/364 236/47/365 235/45/363
f  185/48/366 236/47/365 187/46/364
f  185/48/366 237/49/359 236/47/365
f  183/50/367 237/49/359 185/48/366
f  183/50/367 238/51/367 237/49/359
f  181/52/368 238/51/367 183/50/367
f  181/52/368 239/53/369 238/51/367
f  179/54/368 239/53/369 181/52/368
f  179/54/368 240/55/370 239/53/369
f  177/56/367 240/55/370 179/54/368
f  177/56/367 241/57/367 240/55/370
f  175/58/367 241/57/367 177/56/367
f  175/58/367 242/59/367 241/57/367
f  171/60/367 242/59/367 175/58/367
f  171/60/367 243/61/367 242/59/367
f  170/62/367 243/61/367 171/60/367
f  170/62/367 244/63/367 243/61/367
f  174/64/367 244/63/367 170/62/367
f  174/64/367 245/65/367 244/63/367
f  231/66/371 245/65/367 174/64/367
f  231/66/371 246/67/366 245/65/367
f  229/68/372 246/67/366 231/66/371
f  229/68/372 247/69/373 246/67/366
f  227/70/374 247/69/373 229/68/372
f  227/70/374 248/71/375 247/69/373
f  225/72/376 248/71/375 227/70/374
f  225/72/376 249/73/376 248/71/375
f  223/74/377 249/73/376 225/72/376
f  223/74/377 250/75/378 249/73/376
f  221/76/366 250/75/378 223/74/377
f  221/76/366 251/77/379 250/75/378
f  219/78/380 251/77/379 221/76/366
f  219/78/380 252/79/381 251/77/379
f  217/80/382 252/79/381 219/78/380
f  217/80/382 253/81/382 252/79/381
f  215/82/367 253/81/382 217/80/382
f  215/82/367 254/83/367 253/81/382
f  213/84/383 254/83/367 215/82/367
f  213/84/383 255/85/372 254/83/367
f  211/86/366 255/85/372 213/84/383
f  211/86/366 256/87/373 255/85/372
f  205/88/367 256/87/373 211/86/366
f  205/88/367 257/89/367 256/87/373
f  204/90/367 257/89/367 205/88/367
f  204/90/367 258/91/367 257/89/367
f  208/92/384 258/91/367 204/90/367
f  208/92/384 259/93/385 258/91/367
f  210/94/384 259/93/385 208/92/384
f  210/94/384 260/95/386 259/93/385
f  201/96/367 260/95/386 210/94/384
f  201/96/367 261/97/367 260/95/386
f  199/98/387 261/97/367 201/96/367
f  199/98/387 262/99/388 261/97/367
f  197/100/389 262/99/388 199/98/387
f  197/100/389 263/101/389 262/99/388
f  195/102/390 263/101/389 197/100/389
f  195/102/390 264/103/391 263/101/389
f  193/43/361 264/103/391 195/102/390
f  193/43/361 234/42/360 264/103/391
f  242/104/392 265/105/392 266/106/393
f  242/104/392 266/106/393 241/30/393
f  243/107/394 265/105/392 242/104/392
f  243/107/394 267/108/394 265/105/392
f  244/109/395 267/108/394 243/107/394
f  244/109/395 268/110/395 267/108/394
f  245/111/396 268/110/395 244/109/395
f  245/111/396 269/112/396 268/110/395
f  241/30/393 266/106/393 270/113/397
f  241/30/393 270/113/397 240/114/397
f  240/114/397 270/113/397 271/115/398
f  240/114/397 271/115/398 239/116/398
f  239/116/398 271/115/398 272/117/399
f  239/116/398 272/117/399 238/118/399
f  238/118/399 272/117/399 273/119/400
f  238/118/399 273/119/400 237/120/400
f  237/120/400 273/119/400 274/117/401
f  237/120/400 274/117/401 236/118/401
f  236/118/401 274/117/401 275/115/402
f  236/118/401 275/115/402 235/116/402
f  235/116/402 275/115/402 276/113/403
f  235/116/402 276/113/403 233/114/403
f  233/114/403 276/113/403 277/106/404
f  233/114/403 277/106/404 234/30/404
f  234/30/404 277/106/404 278/105/405
f  234/30/404 278/105/405 264/104/405
f  264/104/405 278/105/405 279/108/406
f  264/104/405 279/108/406 263/107/406
f  263/107/406 279/108/406 280/110/407
f  263/107/406 280/110/407 262/109/407
f  262/109/407 280/110/407 281/112/408
f  262/109/407 281/112/408 261/111/408
f  256/104/409 282/105/409 283/108/410
f  256/104/409 283/108/410 255/107/410
f  257/30/411 282/105/409 256/104/409
f  257/30/411 284/106/411 282/105/409
f  258/114/412 284/106/411 257/30/411
f  258/114/412 285/113/412 284/106/411
f  259/116/413 285/113/412 258/114/412
f  259/116/413 286/115/413 285/113/412
f  260/118/414 286/115/413 259/116/413
f  260/118/414 287/117/414 286/115/413
f  261/120/408 287/117/414 260/118/414
f  261/120/408 281/119/408 287/117/414
f  255/107/410 283/108/410 288/110/415
f  255/107/410 288/110/415 254/109/415
f  254/109/415 288/110/415 289/112/416
f  254/109/415 289/112/416 253/111/416
f  253/111/416 289/112/416 290/110/417
f  253/111/416 290/110/417 252/109/417
f  252/109/417 290/110/417 291/108/418
f  252/109/417 291/108/418 251/107/418
f  251/107/418 291/108/418 292/105/419
f  251/107/418 292/105/419 250/104/419
f  250/104/419 292/105/419 293/106/420
f  250/104/419 293/106/420 249/30/420
f  249/30/420 293/106/420 294/113/421
f  249/30/420 294/113/421 248/114/421
f  248/114/421 294/113/421 295/115/422
f  248/114/421 295/115/422 247/116/422
f  247/116/422 295/115/422 296/117/423
f  247/116/422 296/117/423 246/118/423
f  246/118/423 296/117/423 269/119/396
f  246/118/423 269/119/396 245/120/396
f  269/121/424 297/122/425 298/123/426
f  269/121/424 298/123/426 268/124/426
f  296/125/427 297/122/425 269/121/424
f  296/125/427 299/126/428 297/122/425
f  295/127/429 299/126/428 296/125/427
f  295/127/429 300/128/430 299/126/428
f  294/129/431 300/128/430 295/127/429
f  294/129/431 301/130/432 300/128/430
f  293/131/433 301/130/432 294/129/431
f  293/131/433 302/132/434 301/130/432
f  292/133/435 302/132/434 293/131/433
f  292/133/435 303/134/436 302/132/434
f  291/135/437 303/134/436 292/133/435
f  291/135/437 304/136/438 303/134/436
f  290/137/439 304/136/438 291/135/437
f  290/137/439 305/138/440 304/136/438
f  289/139/441 305/138/440 290/137/439
f  289/139/441 306/140/442 305/138/440
f  288/141/443 306/140/442 289/139/441
f  288/141/443 307/142/443 306/140/442
f  283/143/443 307/142/443 288/141/443
f  283/143/443 308/144/443 307/142/443
f  282/145/441 308/144/443 283/143/443
f  282/145/441 309/146/441 308/144/443
f  284/147/444 309/146/441 282/145/441
f  284/147/444 310/148/443 309/146/441
f  285/149/443 310/148/443 284/147/444
f  285/149/443 311/150/445 310/148/443
f  286/151/446 311/150/445 285/149/443
f  286/151/446 312/152/440 311/150/445
f  287/153/447 312/152/440 286/151/446
f  287/153/447 313/154/447 312/152/440
f  281/155/448 313/154/447 287/153/447
f  281/155/448 314/156/449 313/154/447
f  280/157/450 314/156/449 281/155/448
f  280/157/450 315/158/450 314/156/449
f  279/159/451 315/158/450 280/157/450
f  279/159/451 316/160/452 315/158/450
f  278/161/453 316/160/452 279/159/451
f  278/161/453 317/162/454 316/160/452
f  277/163/455 317/162/454 278/161/453
f  277/163/455 318/164/455 317/162/454
f  276/165/456 318/164/455 277/163/455
f  276/165/456 319/166/433 318/164/455
f  275/167/457 319/166/433 276/165/456
f  275/167/457 320/168/458 319/166/433
f  274/169/459 320/168/458 275/167/457
f  274/169/459 321/170/460 320/168/458
f  273/171/443 321/170/460 274/169/459
f  273/171/443 322/172/443 321/170/460
f  272/173/443 322/172/443 273/171/443
f  272/173/443 323/174/443 322/172/443
f  271/175/443 323/174/443 272/173/443
f  271/175/443 324/176/443 323/174/443
f  270/177/461 324/176/443 271/175/443
f  270/177/461 325/178/462 324/176/443
f  266/179/443 325/178/462 270/177/461
f  266/179/443 326/180/463 325/178/462
f  265/181/464 326/180/463 266/179/443
f  265/181/464 327/182/465 326/180/463
f  267/183/466 327/182/465 265/181/464
f  267/183/466 328/184/467 327/182/465
f  268/124/426 328/184/467 267/183/466
f  268/124/426 298/123/426 328/184/467
f  301/185/468 329/186/469 330/187/470
f  301/185/468 330/187/470 300/188/471
f  302/106/472 329/186/469 301/185/468
f  302/106/472 331/189/473 329/186/469
f  329/186/469 332/190/474 333/191/475
f  329/186/469 333/191/475 330/187/470
f  331/189/473 332/190/474 329/186/469
f  300/188/471 330/187/470 334/192/476
f  330/187/470 333/191/475 335/193/477
f  330/187/470 335/193/477 334/192/476
f  300/188/471 334/192/476 299/194/478
f  299/194/478 334/192/476 336/195/479
f  334/192/476 335/193/477 337/196/480
f  334/192/476 337/196/480 336/195/479
f  299/194/478 336/195/479 297/197/481
f  331/189/473 338/198/482 332/190/474
f  339/199/483 340/200/484 338/198/482
f  339/199/483 338/198/482 331/189/473
f  303/201/485 339/199/483 331/189/473
f  304/202/486 341/203/487 339/199/483
f  304/202/486 339/199/483 303/201/485
f  341/203/487 340/200/484 339/199/483
f  341/203/487 342/204/488 340/200/484
f  305/205/489 343/206/490 341/203/487
f  305/205/489 341/203/487 304/202/486
f  343/206/490 342/204/488 341/203/487
f  343/206/490 344/207/491 342/204/488
f  306/208/492 345/209/493 343/206/490
f  306/208/492 343/206/490 305/205/489
f  345/209/493 344/207/491 343/206/490
f  345/209/493 346/210/494 344/207/491
f  307/205/495 347/206/496 345/209/493
f  307/205/495 345/209/493 306/208/492
f  347/206/496 346/210/494 345/209/493
f  347/206/496 348/207/497 346/210/494
f  308/202/498 349/203/499 347/206/496
f  308/202/498 347/206/496 307/205/495
f  349/203/499 348/207/497 347/206/496
f  349/203/499 350/204/500 348/207/497
f  309/201/501 351/199/502 349/203/499
f  309/201/501 349/203/499 308/202/498
f  351/199/502 350/204/500 349/203/499
f  351/199/502 352/200/503 350/204/500
f  310/106/504 353/189/505 351/199/502
f  310/106/504 351/199/502 309/201/501
f  353/189/505 352/200/503 351/199/502
f  353/189/505 354/198/393 352/200/503
f  311/185/506 355/186/507 353/189/505
f  311/185/506 353/189/505 310/106/504
f  355/186/507 354/198/393 353/189/505
f  355/186/507 356/190/508 354/198/393
f  312/188/509 357/187/510 355/186/507
f  312/188/509 355/186/507 311/185/506
f  357/187/510 356/190/508 355/186/507
f  357/187/510 358/191/511 356/190/508
f  313/194/512 359/192/513 357/187/510
f  313/194/512 357/187/510 312/188/509
f  359/192/513 358/191/511 357/187/510
f  359/192/513 360/193/514 358/191/511
f  314/197/515 361/195/516 359/192/513
f  314/197/515 359/192/513 313/194/512
f  361/195/516 360/193/514 359/192/513
f  361/195/516 362/196/517 360/193/514
f  303/201/485 331/189/473 302/106/472
f  315/205/518 363/206/519 361/209/516
f  315/205/518 361/209/516 314/208/515
f  316/202/520 363/206/519 315/205/518
f  316/202/520 364/203/521 363/206/519
f  363/206/519 365/207/522 362/210/517
f  363/206/519 362/210/517 361/209/516
f  364/203/521 365/207/522 363/206/519
f  317/201/523 364/203/521 316/202/520
f  317/201/523 366/199/524 364/203/521
f  364/203/521 367/204/525 365/207/522
f  366/199/524 367/204/525 364/203/521
f  318/106/526 366/199/524 317/201/523
f  318/106/526 368/189/527 366/199/524
f  366/199/524 369/200/528 367/204/525
f  368/189/527 369/200/528 366/199/524
f  319/185/529 368/189/527 318/106/526
f  319/185/529 370/186/530 368/189/527
f  368/189/527 371/198/531 369/200/528
f  370/186/530 371/198/531 368/189/527
f  320/188/532 370/186/530 319/185/529
f  320/188/532 372/187/533 370/186/530
f  372/187/533 373/190/534 370/186/530
f  370/186/530 373/190/534 371/198/531
f  321/194/535 372/187/533 320/188/532
f  321/194/535 374/192/536 372/187/533
f  372/187/533 375/191/537 373/190/534
f  374/192/536 375/191/537 372/187/533
f  322/197/538 374/192/536 321/194/535
f  322/197/538 376/195/539 374/192/536
f  374/192/536 377/193/540 375/191/537
f  376/195/539 377/193/540 374/192/536
f  323/194/541 376/195/539 322/197/538
f  323/194/541 378/192/542 376/195/539
f  376/195/539 379/196/543 377/193/540
f  378/192/542 379/196/543 376/195/539
f  324/188/544 378/192/542 323/194/541
f  324/188/544 380/187/545 378/192/542
f  378/192/542 381/193/546 379/196/543
f  380/187/545 381/193/546 378/192/542
f  325/185/547 380/187/545 324/188/544
f  325/185/547 382/186/548 380/187/545
f  380/187/545 383/191/549 381/193/546
f  382/186/548 383/191/549 380/187/545
f  326/106/550 382/186/548 325/185/547
f  326/106/550 384/189/551 382/186/548
f  382/186/548 385/190/552 383/191/549
f  384/189/551 385/190/552 382/186/548
f  327/201/553 384/189/551 326/106/550
f  327/201/553 386/199/554 384/189/551
f  386/199/554 387/198/411 384/189/551
f  384/189/551 387/198/411 385/190/552
f  328/202/555 386/199/554 327/201/553
f  328/202/555 388/203/556 386/199/554
f  386/199/554 389/200/557 387/198/411
f  388/203/556 389/200/557 386/199/554
f  298/205/558 388/203/556 328/202/555
f  298/205/558 390/206/559 388/203/556
f  388/203/556 391/204/560 389/200/557
f  390/206/559 391/204/560 388/203/556
f  297/208/481 390/206/559 298/205/558
f  297/208/481 336/209/479 390/206/559
f  390/206/559 392/207/561 391/204/560
f  336/209/479 392/207/561 390/206/559
f  336/209/479 337/210/480 392/207/561
f  172/211/562 176/212/562 178/213/562
f  180/214/562 172/211/562 178/213/562
f  172/211/562 180/214/562 182/215/562
f  184/216/562 172/211/562 182/215/562
f  172/211/562 184/216/562 186/217/562
f  188/218/562 172/211/562 186/217/562
f  172/211/562 188/218/562 190/219/562
f  192/220/562 172/211/562 190/219/562
f  172/211/562 192/220/562 194/221/562
f  196/222/562 172/211/562 194/221/562
f  172/211/562 196/222/562 198/223/562
f  200/224/562 172/211/562 198/223/562
f  172/211/562 200/224/562 202/225/562
f  209/226/562 172/211/562 202/225/562
f  172/211/562 209/226/562 207/227/562
f  203/228/562 172/211/562 207/227/562
f  172/211/562 203/228/562 206/229/562
f  212/230/562 172/211/562 206/229/562
f  172/211/562 212/230/562 214/231/562
f  216/232/562 172/211/562 214/231/562
f  172/211/562 216/232/562 218/233/562
f  220/234/562 172/211/562 218/233/562
f  172/211/562 220/234/562 222/235/562
f  224/236/562 172/211/562 222/235/562
f  172/211/562 224/236/562 226/237/562
f  228/238/562 172/211/562 226/237/562
f  172/211/562 228/238/562 230/239/562
f  232/240/562 172/211/562 230/239/562
f  172/211/562 232/240/562 173/241/562
f  173/241/562 169/242/562 172/211/562
f  391/213/367 389/212/367 387/211/367
f  385/242/367 391/213/367 387/211/367
f  391/213/367 385/242/367 383/241/367
f  381/240/367 391/213/367 383/241/367
f  391/213/367 381/240/367 379/239/367
f  377/238/367 391/213/367 379/239/367
f  391/213/367 377/238/367 375/237/367
f  373/236/367 391/213/367 375/237/367
f  391/213/367 373/236/367 371/235/367
f  369/234/367 391/213/367 371/235/367
f  391/213/367 369/234/367 367/233/367
f  365/232/367 391/213/367 367/233/367
f  391/213/367 365/232/367 362/231/367
f  360/230/367 391/213/367 362/231/367
f  391/213/367 360/230/367 358/229/367
f  356/228/367 391/213/367 358/229/367
f  391/213/367 356/228/367 354/227/367
f  352/226/367 391/213/367 354/227/367
f  391/213/367 352/226/367 350/225/367
f  348/224/367 391/213/367 350/225/367
f  391/213/367 348/224/367 346/223/367
f  344/222/367 391/213/367 346/223/367
f  391/213/367 344/222/367 342/221/367
f  340/220/367 391/213/367 342/221/367
f  391/213/367 340/220/367 338/219/367
f  332/218/367 391/213/367 338/219/367
f  391/213/367 332/218/367 333/217/367
f  335/216/367 391/213/367 333/217/367
f  391/213/367 335/216/367 337/215/367
f  337/215/367 392/214/367 391/213/367

# Mesh 'Plane.007_2' with 30 faces
g Plane.007_2
usemtl Material.001
f  393/243/563 394/244/563 395/245/563
f  396/246/563 393/243/563 395/245/563
f  393/243/563 396/246/563 397/247/563
f  398/248/563 393/243/563 397/247/563
f  393/243/563 398/248/563 399/249/563
f  400/250/563 393/243/563 399/249/563
f  393/243/563 400/250/563 401/251/563
f  402/252/563 393/243/563 401/251/563
f  393/243/563 402/252/563 403/253/563
f  404/254/563 393/243/563 403/253/563
f  393/243/563 404/254/563 405/255/563
f  406/256/563 393/243/563 405/255/563
f  393/243/563 406/256/563 407/257/563
f  408/258/563 393/243/563 407/257/563
f  393/243/563 408/258/563 409/259/563
f  410/260/563 393/243/563 409/259/563
f  393/243/563 410/260/563 411/261/563
f  412/262/563 393/243/563 411/261/563
f  393/243/563 412/262/563 413/263/563
f  414/264/563 393/243/563 413/263/563
f  393/243/563 414/264/563 415/265/563
f  416/266/563 393/243/563 415/265/563
f  393/243/563 416/266/563 417/267/563
f  418/268/563 393/243/563 417/267/563
f  393/243/563 418/268/563 419/269/563
f  420/270/563 393/243/563 419/269/563
f  393/243/563 420/270/563 421/271/563
f  422/272/563 393/243/563 421/271/563
f  393/243/563 422/272/563 423/273/563
f  423/273/563 424/274/563 393/243/563

