<?xml version="1.0" encoding="UTF-8" standalone="no" ?>
<COLLADA xmlns="http://www.collada.org/2005/11/COLLADASchema" version="1.4.1">
  <asset>
    <contributor>
      <author>Assimp</author>
      <authoring_tool>Blender (stable FBX IO) - 5.1.2 - 5.15.0</authoring_tool>
    </contributor>
    <created>2026-07-21T17:05:47</created>
    <modified>2026-07-21T17:05:47</modified>
    <unit name="meter" meter="1" />
    <up_axis>Z_UP</up_axis>
  </asset>
  <library_images>
    <image id="Material.002-diffuse-image">
      <init_from>../materials/textures/FlowerPot.png</init_from>
    </image>
    <image id="Material.003-diffuse-image">
      <init_from>../materials/textures/FlowerPot.png</init_from>
    </image>
    <image id="Material.001-diffuse-image">
      <init_from>../materials/textures/FlowerPot.png</init_from>
    </image>
  </library_images>
  <library_effects>
    <effect id="Material.002-fx" name="Material.002">
      <profile_COMMON>
        <newparam sid="Material.002-diffuse-surface">
          <surface type="2D">
            <init_from>Material.002-diffuse-image</init_from>
          </surface>
        </newparam>
        <newparam sid="Material.002-diffuse-sampler">
          <sampler2D>
            <source>Material.002-diffuse-surface</source>
          </sampler2D>
        </newparam>
        <technique sid="standard">
          <phong>
            <emission>
              <color sid="emission">0   0   0   1</color>
            </emission>
            <ambient>
              <color sid="ambient">0   0   0   1</color>
            </ambient>
            <diffuse>
              <texture texture="Material.002-diffuse-sampler" texcoord="CHANNEL0" />
            </diffuse>
            <specular>
              <color sid="specular">0.800000012   0.800000012   0.800000012   1</color>
            </specular>
            <shininess>
              <float sid="shininess">0</float>
            </shininess>
            <reflective>
              <color sid="reflective">0.800000012   0.800000012   0.800000012   1</color>
            </reflective>
            <transparent>
              <color sid="transparent">0   0   0   1</color>
            </transparent>
            <transparency>
              <float sid="transparency">1</float>
            </transparency>
          </phong>
        </technique>
      </profile_COMMON>
    </effect>
    <effect id="Material.003-fx" name="Material.003">
      <profile_COMMON>
        <newparam sid="Material.003-diffuse-surface">
          <surface type="2D">
            <init_from>Material.003-diffuse-image</init_from>
          </surface>
        </newparam>
        <newparam sid="Material.003-diffuse-sampler">
          <sampler2D>
            <source>Material.003-diffuse-surface</source>
          </sampler2D>
        </newparam>
        <technique sid="standard">
          <phong>
            <emission>
              <color sid="emission">0   0   0   1</color>
            </emission>
            <ambient>
              <color sid="ambient">0   0   0   1</color>
            </ambient>
            <diffuse>
              <texture texture="Material.003-diffuse-sampler" texcoord="CHANNEL0" />
            </diffuse>
            <specular>
              <color sid="specular">0.800000012   0.800000012   0.800000012   1</color>
            </specular>
            <shininess>
              <float sid="shininess">0.911157548</float>
            </shininess>
            <reflective>
              <color sid="reflective">0.800000012   0.800000012   0.800000012   1</color>
            </reflective>
            <transparent>
              <color sid="transparent">0   0   0   1</color>
            </transparent>
            <transparency>
              <float sid="transparency">1</float>
            </transparency>
          </phong>
        </technique>
      </profile_COMMON>
    </effect>
    <effect id="Material.001-fx" name="Material.001">
      <profile_COMMON>
        <newparam sid="Material.001-diffuse-surface">
          <surface type="2D">
            <init_from>Material.001-diffuse-image</init_from>
          </surface>
        </newparam>
        <newparam sid="Material.001-diffuse-sampler">
          <sampler2D>
            <source>Material.001-diffuse-surface</source>
          </sampler2D>
        </newparam>
        <technique sid="standard">
          <phong>
            <emission>
              <color sid="emission">0   0   0   1</color>
            </emission>
            <ambient>
              <color sid="ambient">0   0   0   1</color>
            </ambient>
            <diffuse>
              <texture texture="Material.001-diffuse-sampler" texcoord="CHANNEL0" />
            </diffuse>
            <specular>
              <color sid="specular">0.800000012   0.800000012   0.800000012   1</color>
            </specular>
            <shininess>
              <float sid="shininess">0</float>
            </shininess>
            <reflective>
              <color sid="reflective">0.800000012   0.800000012   0.800000012   1</color>
            </reflective>
            <transparent>
              <color sid="transparent">0   0   0   1</color>
            </transparent>
            <transparency>
              <float sid="transparency">1</float>
            </transparency>
          </phong>
        </technique>
      </profile_COMMON>
    </effect>
  </library_effects>
  <library_materials>
    <material id="Material.002" name="Material.002">
      <instance_effect url="#Material.002-fx"/>
    </material>
    <material id="Material.003" name="Material.003">
      <instance_effect url="#Material.003-fx"/>
    </material>
    <material id="Material.001" name="Material.001">
      <instance_effect url="#Material.001-fx"/>
    </material>
  </library_materials>
  <library_geometries>
    <geometry id="Plane.007" name="Foliage" >
      <mesh>
        <source id="Plane.007-positions" name="Plane.007-positions">
          <float_array id="Plane.007-positions-array" count="984"> 0.107657671 0.0742023587 2.00028944 0.0409063101 0.114745796 2.00028944 -0.250853449 0.0643093586 3.06573772 -0.0645006299 -0.0488777161 3.06573772 -0.711202323 -0.407808661 4.1592536 -0.40963012 -0.590977728 4.1592536 -1.07496881 -1.05248666 4.96534348 -0.786034286 -1.25582576 4.96482754 -1.49290681 -2.19645095 5.41273594 -1.3183825 -2.32717967 5.38587761 -1.56016243 -2.62242508 5.36834955 -1.50946999 -2.66086555 5.35948467 -1.58853352 -2.73134518 5.30223179 -1.5694623 -2.74580717 5.29889679 -1.45877767 -2.69930577 5.35061932 -1.55039084 -2.76026893 5.29556131 -1.14385819 -2.45790815 5.35901928 -0.497099757 -1.45916474 4.96431112 -0.108057976 -0.774146795 4.1592536 0.12185216 -0.162064791 3.06573772 0.174409032 0.0336588621 2.00028944 0.0989106297 0.0598011017 1.99721241 -0.0728350878 -0.0625995994 3.05976939 -0.258630574 0.0515050292 3.0574348 0.0321592689 0.100344598 1.99721241 -0.416743577 -0.602688551 4.14897585 -0.718026519 -0.419042766 4.14827204 -0.790926218 -1.26387668 4.95052242 -1.08117926 -1.06270957 4.95308399 -1.3195889 -2.32915878 5.36890745 -1.49590874 -2.20138812 5.39661217 -1.50685048 -2.65654588 5.34311819 -1.55938947 -2.62114429 5.35128736 -1.56494892 -2.73837185 5.28414154 -1.58402026 -2.72390985 5.28747654 -1.45803142 -2.6980691 5.33355236 -1.54587758 -2.7528336 5.28080654 -1.14657855 -2.46238184 5.34271145 -0.501980186 -1.4671967 4.9499917 -0.114723444 -0.785119534 4.14791584 0.113878012 -0.175193608 3.05815983 0.165661991 0.0192576051 1.99721241 0.174409032 0.0336588621 2.00028944 0.12185216 -0.162064791 3.06573772 0.113878012 -0.175193608 3.05815983 0.165661991 0.0192576051 1.99721241 0.0409063101 0.114745796 2.00028944 0.107657671 0.0742023587 2.00028944 0.0989106297 0.0598011017 1.99721241 0.0321592689 0.100344598 1.99721241 -0.250853449 0.0643093586 3.06573772 0.0409063101 0.114745796 2.00028944 0.0321592689 0.100344598 1.99721241 -0.258630574 0.0515050292 3.0574348 -0.711202323 -0.407808661 4.1592536 -0.718026519 -0.419042766 4.14827204 -0.108057976 -0.774146795 4.1592536 -0.114723444 -0.785119534 4.14791584 -1.07496881 -1.05248666 4.96534348 -1.08117926 -1.06270957 4.95308399 -0.497099757 -1.45916474 4.96431112 -0.501980186 -1.4671967 4.9499917 -1.49290681 -2.19645095 5.41273594 -1.49590874 -2.20138812 5.39661217 -1.14385819 -2.45790815 5.35901928 -1.14657855 -2.46238184 5.34271145 -1.56016243 -2.62242508 5.36834955 -1.55938947 -2.62114429 5.35128736 -1.45877767 -2.69930577 5.35061932 -1.45803142 -2.6980691 5.33355236 -1.55039084 -2.76026893 5.29556131 -1.5694623 -2.74580717 5.29889679 -1.56494892 -2.73837185 5.28414154 -1.54587758 -2.7528336 5.28080654 -1.58853352 -2.73134518 5.30223179 -1.58402026 -2.72390985 5.28747654 -1.55039084 -2.76026893 5.29556131 -1.54587758 -2.7528336 5.28080654 0.174409032 0.0336588621 2.00028944 0.165661991 0.0192576051 1.99721241 -1.58853352 -2.73134518 5.30223179 -1.58402026 -2.72390985 5.28747654 0.254065096 0.0599800348 1.96179342 0.201841295 0.0019094944 1.96179342 0.197272539 -0.294142485 3.02724171 0.343068242 -0.132024229 3.02724171 0.575786591 -0.834090173 4.12075758 0.811725676 -0.571736574 4.12075758 1.14178348 -1.31114697 4.92684746 1.39519787 -1.06495368 4.92633152 2.18834829 -1.9340663 5.37423992 2.34918642 -1.78682566 5.34738159 2.59444952 -2.07918429 5.32985353 2.64162731 -2.03650379 5.32098866 2.69621515 -2.1272707 5.26373577 2.71396422 -2.11121345 5.26040077 2.6888051 -1.99382305 5.3121233 2.73171329 -2.09515643 5.2570653 2.51002455 -1.63958502 5.32052326 1.64861202 -0.818760395 4.92581511 1.04766476 -0.309382915 4.12075758 0.488863826 0.0300939679 3.02724171 0.306288898 0.118050575 1.96179342 0.266593516 0.0487129688 1.95871639 0.355005622 -0.14275974 3.02127337 0.208411694 -0.304160118 3.01893878 0.214369714 -0.0093575716 1.95871639 0.821913421 -0.580899179 4.11047983 0.585559607 -0.84288013 4.10977602 1.40220141 -1.07125449 4.91202641 1.15067673 -1.31914639 4.91458797 2.3509078 -1.78837848 5.33041143 2.19264317 -1.93793225 5.35811615 2.63786888 -2.03312826 5.30462217 2.5933342 -2.07818723 5.31279135 2.70749521 -2.10539913 5.24564552 2.6897459 -2.12145615 5.24898052 2.6877284 -1.99286056 5.29505634 2.72524405 -2.08934188 5.24231052 2.51391602 -1.64308822 5.30421543 1.65559912 -0.825046301 4.91149569 1.05721033 -0.317968428 4.10941982 0.500285268 0.0198225379 3.01966381 0.318817317 0.106783509 1.95871639 0.306288898 0.118050575 1.96179342 0.488863826 0.0300939679 3.02724171 0.500285268 0.0198225379 3.01966381 0.318817317 0.106783509 1.95871639 0.201841295 0.0019094944 1.96179342 0.254065096 0.0599800348 1.96179342 0.266593516 0.0487129688 1.95871639 0.214369714 -0.0093575716 1.95871639 0.197272539 -0.294142485 3.02724171 0.201841295 0.0019094944 1.96179342 0.214369714 -0.0093575716 1.95871639 0.208411694 -0.304160118 3.01893878 0.575786591 -0.834090173 4.12075758 0.585559607 -0.84288013 4.10977602 1.04766476 -0.309382915 4.12075758 1.05721033 -0.317968428 4.10941982 1.14178348 -1.31114697 4.92684746 1.15067673 -1.31914639 4.91458797 1.64861202 -0.818760395 4.92581511 1.65559912 -0.825046301 4.91149569 2.18834829 -1.9340663 5.37423992 2.19264317 -1.93793225 5.35811615 2.51002455 -1.63958502 5.32052326 2.51391602 -1.64308822 5.30421543 2.59444952 -2.07918429 5.32985353 2.5933342 -2.07818723 5.31279135 2.6888051 -1.99382305 5.3121233 2.6877284 -1.99286056 5.29505634 2.73171329 -2.09515643 5.2570653 2.71396422 -2.11121345 5.26040077 2.70749521 -2.10539913 5.24564552 2.72524405 -2.08934188 5.24231052 2.69621515 -2.1272707 5.26373577 2.6897459 -2.12145615 5.24898052 2.73171329 -2.09515643 5.2570653 2.72524405 -2.08934188 5.24231052 0.306288898 0.118050575 1.96179342 0.318817317 0.106783509 1.95871639 2.69621515 -2.1272707 5.26373577 2.6897459 -2.12145615 5.24898052 0.168156624 0.151992679 1.9202528 0.203593105 0.120124042 1.9202528 0.384253263 0.117336154 2.57042289 0.28532362 0.206305206 2.57042289 0.71374625 0.348317385 3.23772049 0.553649783 0.492294788 3.23772049 1.00486112 0.693706512 3.72962189 0.854626298 0.848347783 3.72930694 1.38498604 1.33235335 4.002635 1.29513526 1.4305017 3.98624516 1.4735415 1.58016896 3.97554874 1.44749641 1.60895824 3.97013903 1.50288534 1.64226961 3.93520164 1.49308681 1.65310049 3.9331665 1.42145145 1.63774776 3.96472931 1.48328805 1.66393161 3.93113112 1.20528424 1.52865016 3.96985531 0.70439142 1.00298917 3.72899199 0.393553376 0.636272192 3.23772049 0.186393976 0.295274258 2.57042289 0.132720172 0.183861285 1.9202528 0.175032109 0.159637928 1.91837525 0.291874766 0.213589787 2.56678081 0.390366375 0.124133646 2.56535602 0.21046859 0.127769291 1.91837525 0.559241116 0.498511672 3.23144865 0.719110131 0.354281187 3.23101926 0.858471215 0.852621555 3.72057772 1.0097425 0.699133396 3.72214079 1.29608274 1.43155205 3.97588921 1.38734508 1.33497405 3.99279547 1.44543672 1.60666466 3.96015215 1.47293305 1.5794884 3.96513677 1.48953867 1.64915287 3.92416239 1.4993372 1.63832188 3.92619753 1.42086399 1.63709068 3.95431447 1.47974002 1.65998387 3.92212725 1.20742202 1.53102469 3.95990372 0.708227277 1.00725293 3.72025371 0.398792505 0.642097235 3.23080206 0.192661941 0.302243948 2.56579852 0.139595658 0.191506535 1.91837525 0.132720172 0.183861285 1.9202528 0.186393976 0.295274258 2.57042289 0.192661941 0.302243948 2.56579852 0.139595658 0.191506535 1.91837525 0.203593105 0.120124042 1.9202528 0.168156624 0.151992679 1.9202528 0.175032109 0.159637928 1.91837525 0.21046859 0.127769291 1.91837525 0.384253263 0.117336154 2.57042289 0.203593105 0.120124042 1.9202528 0.21046859 0.127769291 1.91837525 0.390366375 0.124133646 2.56535602 0.71374625 0.348317385 3.23772049 0.719110131 0.354281187 3.23101926 0.393553376 0.636272192 3.23772049 0.398792505 0.642097235 3.23080206 1.00486112 0.693706512 3.72962189 1.0097425 0.699133396 3.72214079 0.70439142 1.00298917 3.72899199 0.708227277 1.00725293 3.72025371 1.38498604 1.33235335 4.002635 1.38734508 1.33497405 3.99279547 1.20528424 1.52865016 3.96985531 1.20742202 1.53102469 3.95990372 1.4735415 1.58016896 3.97554874 1.47293305 1.5794884 3.96513677 1.42145145 1.63774776 3.96472931 1.42086399 1.63709068 3.95431447 1.48328805 1.66393161 3.93113112 1.49308681 1.65310049 3.9331665 1.48953867 1.64915287 3.92416239 1.47974002 1.65998387 3.92212725 1.50288534 1.64226961 3.93520164 1.4993372 1.63832188 3.92619753 1.48328805 1.66393161 3.93113112 1.47974002 1.65998387 3.92212725 0.132720172 0.183861285 1.9202528 0.139595658 0.191506535 1.91837525 1.50288534 1.64226961 3.93520164 1.4993372 1.63832188 3.92619753 0.0522402003 0.0917357057 1.78331482 0.101764448 0.133599445 1.78331482 0.138994336 0.376612067 2.66798043 0.000735290349 0.259739041 2.66798043 -0.111320488 0.863562226 3.57595181 -0.335063279 0.674428344 3.57595181 -0.522967219 1.31997573 4.24526691 -0.759257793 1.14611089 4.24483776 -1.31343269 1.95070779 4.6167469 -1.46238339 1.84777343 4.59444618 -1.63107979 2.11599422 4.57989168 -1.67471349 2.08621955 4.57253075 -1.70935464 2.16705513 4.52499294 -1.72577012 2.15585351 4.52222347 -1.71834695 2.05644488 4.56516981 -1.74218571 2.14465165 4.519454 -1.6113342 1.74483931 4.57214451 -0.995548487 0.97224623 4.24440956 -0.558806062 0.485294402 3.57595181 -0.13752383 0.14286612 2.66798043 0.00271595269 0.04987197 1.78331482 0.0432083085 0.102420315 1.78075993 -0.00787054747 0.269919634 2.6630249 0.130964041 0.386111915 2.66108632 0.0927325562 0.144284055 1.78075993 -0.342407703 0.683117211 3.56741786 -0.118365876 0.871897638 3.56683326 -0.764306426 1.15208566 4.2329607 -0.529378295 1.32756126 4.23508739 -1.46362376 1.84924519 4.58035469 -1.31652832 1.95437324 4.60335875 -1.67200339 2.08301783 4.55894184 -1.63027537 2.11504793 4.56572437 -1.72110617 2.15033913 4.5099721 -1.70469058 2.16154075 4.51274109 -1.71756995 2.05553126 4.55099869 -1.73752189 2.13913751 4.50720263 -1.6141392 1.74816096 4.55860376 -1.0005852 0.978206933 4.23251963 -0.565687537 0.493435979 3.56653762 -0.145757645 0.152606592 2.66168857 -0.00631593913 0.0605565794 1.78075993 0.00271595269 0.04987197 1.78331482 -0.13752383 0.14286612 2.66798043 -0.145757645 0.152606592 2.66168857 -0.00631593913 0.0605565794 1.78075993 0.101764448 0.133599445 1.78331482 0.0522402003 0.0917357057 1.78331482 0.0432083085 0.102420315 1.78075993 0.0927325562 0.144284055 1.78075993 0.138994336 0.376612067 2.66798043 0.101764448 0.133599445 1.78331482 0.0927325562 0.144284055 1.78075993 0.130964041 0.386111915 2.66108632 -0.111320488 0.863562226 3.57595181 -0.118365876 0.871897638 3.56683326 -0.558806062 0.485294402 3.57595181 -0.565687537 0.493435979 3.56653762 -0.522967219 1.31997573 4.24526691 -0.529378295 1.32756126 4.23508739 -0.995548487 0.97224623 4.24440956 -1.0005852 0.978206933 4.23251963 -1.31343269 1.95070779 4.6167469 -1.31652832 1.95437324 4.60335875 -1.6113342 1.74483931 4.57214451 -1.6141392 1.74816096 4.55860376 -1.63107979 2.11599422 4.57989168 -1.63027537 2.11504793 4.56572437 -1.71834695 2.05644488 4.56516981 -1.71756995 2.05553126 4.55099869 -1.74218571 2.14465165 4.519454 -1.72577012 2.15585351 4.52222347 -1.72110617 2.15033913 4.5099721 -1.73752189 2.13913751 4.50720263 -1.70935464 2.16705513 4.52499294 -1.70469058 2.16154075 4.51274109 -1.74218571 2.14465165 4.519454 -1.73752189 2.13913751 4.50720263 0.00271595269 0.04987197 1.78331482 -0.00631593913 0.0605565794 1.78075993 -1.70935464 2.16705513 4.52499294 -1.70469058 2.16154075 4.51274109 </float_array>
          <technique_common>
            <accessor count="328" offset="0" source="#Plane.007-positions-array" stride="3">
              <param name="X" type="float" />
              <param name="Y" type="float" />
              <param name="Z" type="float" />
            </accessor>
          </technique_common>
        </source>
        <source id="Plane.007-normals" name="Plane.007-normals">
          <float_array id="Plane.007-normals-array" count="984"> 0.510681212 0.840792656 0.17964533 0.510681033 0.840792835 0.17964533 0.483155608 0.795474172 0.365761518 0.486590952 0.801129997 0.34845376 0.426235884 0.676594377 0.600452363 0.425683767 0.676616192 0.60081929 0.339735746 0.467638254 0.816023409 0.326537669 0.441772789 0.835589588 0.182445884 0.122714549 0.975527942 0.155663937 0.0678480491 0.985477269 -0.0295503195 -0.248976573 0.968058586 -0.0700288489 -0.301308483 0.950951755 -0.204859674 -0.46835801 0.859461069 -0.204859167 -0.468359232 0.859460473 -0.0487748981 -0.273898304 0.960520983 -0.20485875 -0.468360394 0.859459996 0.158507168 0.0777632818 0.984290719 0.318473577 0.427919 0.84584862 0.423350096 0.672032297 0.60757494 0.485090792 0.798659623 0.356131524 0.510681272 0.840792537 0.17964533 -0.510990798 -0.840676427 -0.1793084 -0.486592293 -0.800757825 -0.349306524 -0.484150708 -0.795462728 -0.364468396 -0.512540877 -0.839709222 -0.179415926 -0.425499201 -0.676666141 -0.600893855 -0.425874978 -0.677013576 -0.600235879 -0.326978594 -0.442097992 -0.835245073 -0.339294285 -0.466543376 -0.816833258 -0.156563878 -0.0686338618 -0.985280216 -0.182633623 -0.119902678 -0.975842357 0.0671503544 0.298241585 -0.952125371 0.0295312274 0.259700119 -0.965237617 0.20967631 0.472320795 -0.856124341 0.197085381 0.480222315 -0.854718626 0.0604553111 0.277255684 -0.958892286 0.220766351 0.465249002 -0.857207954 -0.157202005 -0.0760791153 -0.984631658 -0.318802774 -0.427735358 -0.845817506 -0.423548669 -0.672243118 -0.607203186 -0.484743893 -0.799320757 -0.355119228 -0.50958395 -0.841550827 -0.179210424 0.862124801 -0.504201949 -0.050212808 0.871094823 -0.486679941 -0.0658519715 0.870019257 -0.48885563 -0.0639271513 0.862124801 -0.504201949 -0.050212808 0.093258962 0.153544083 -0.98373121 0.0932588801 0.153543964 -0.983731151 0.0932588875 0.153543964 -0.983731151 0.093258962 0.153544083 -0.98373121 -0.809370697 0.570452332 -0.139654368 -0.800744116 0.567074895 -0.192963436 -0.800744116 0.567074895 -0.192963436 -0.808058381 0.569991291 -0.148833975 -0.841340601 0.539171636 -0.0379472561 -0.839556873 0.541633606 -0.0421589129 0.87072897 -0.489711255 -0.04487665 0.871442437 -0.48815912 -0.0478410013 -0.891079485 0.450836629 0.0521886759 -0.897972345 0.43569839 0.0617467687 0.852407932 -0.522876203 -0.00109145732 0.852098942 -0.52338022 -0.000721566845 -0.956721246 0.280147791 0.0787499696 -0.96556282 0.24993287 0.0722634718 0.746977448 -0.66436398 0.0253999569 0.723736584 -0.689495385 0.0283112358 -0.978451073 0.206447348 -0.0036096219 -0.973323464 0.228208974 -0.0237092953 0.599401951 -0.799891472 -0.0298468228 0.597618639 -0.800371826 -0.0475075543 -0.576726317 -0.644951761 -0.501421928 -0.576739788 -0.644946933 -0.50141257 -0.576738715 -0.64494735 -0.501413345 -0.576726317 -0.644951761 -0.501421928 -0.954352677 0.287853658 -0.0796944648 -0.954352677 0.287853658 -0.0796944648 0.588192046 -0.79966253 -0.120705783 0.588192046 -0.79966253 -0.120705783 0.0932588279 0.153543875 -0.98373127 0.0932588279 0.153543875 -0.98373127 -0.576752186 -0.644942582 -0.501403987 -0.576752186 -0.644942582 -0.501403987 -0.73145026 0.657805502 0.17964536 -0.7314502 0.657805502 0.179645345 -0.692025125 0.622350097 0.365761608 -0.696945548 0.626774907 0.348453879 -0.585769296 0.544362783 0.600452781 -0.585893393 0.543824434 0.600819409 -0.396489203 0.420596927 0.816023588 -0.373521298 0.402829498 0.835589707 -0.0867360383 0.202044666 0.975527942 -0.0377904661 0.165548801 0.985477269 0.239171743 -0.0752309263 0.968058527 0.283084303 -0.124713361 0.950952113 0.422221571 -0.288198113 0.859459579 0.422219694 -0.28819409 0.859461904 0.260091811 -0.0987407193 0.960522056 0.422217995 -0.288190484 0.859463871 -0.0470053442 0.17018263 0.984290779 -0.361404061 0.392335474 0.84584868 -0.581822217 0.540680885 0.607574701 -0.694796622 0.624842286 0.356131643 -0.731450379 0.657805383 0.17964536 0.731278598 -0.658088207 -0.179308355 0.696579456 -0.626707256 -0.349306405 0.691829324 -0.623325765 -0.364468336 0.730040669 -0.659432054 -0.179415867 0.58597666 -0.543652475 -0.600893736 0.586248279 -0.544086158 -0.600235939 0.373759389 -0.403323472 -0.835244894 0.395495385 -0.419959813 -0.816833556 0.038395416 -0.166580036 -0.985280156 0.0839368775 -0.201707795 -0.975842535 -0.280602962 0.121316262 -0.952126205 -0.249713212 0.0771965086 -0.965237796 -0.42521435 0.293665528 -0.856126904 -0.435319394 0.282751977 -0.854721129 -0.261220604 0.110847414 -0.958893478 -0.416203678 0.303257287 -0.857210398 0.0455941893 -0.16858916 -0.98463136 0.36116311 -0.392626107 -0.845816731 0.581992447 -0.540915251 -0.607203007 0.695510387 -0.624624491 -0.355119139 0.732398868 -0.656867921 -0.179210395 0.655397296 0.753613353 -0.0502129644 0.639841497 0.765680254 -0.0658518448 0.641780198 0.764219522 -0.0639270544 0.655397296 0.753613353 -0.0502129644 -0.133572072 0.120126955 -0.983731687 -0.133572087 0.120126948 -0.983731687 -0.133572102 0.120126948 -0.983731687 -0.133572072 0.120126955 -0.983731687 -0.710710466 -0.689483285 -0.139654621 -0.705788791 -0.681635618 -0.19296366 -0.705788791 -0.681635618 -0.19296366 -0.710013628 -0.688279748 -0.148834288 -0.685904741 -0.726701081 -0.0379483141 -0.687993169 -0.724491596 -0.0421598926 0.642748713 0.764761508 -0.044876419 0.641355991 0.765750408 -0.0478408039 -0.608329177 -0.791967154 0.0521896929 -0.594731808 -0.801549196 0.0617487803 0.671932518 0.740611613 -0.0010915813 0.672370374 0.740214467 -0.000721650198 -0.452781141 -0.888136923 0.0787535384 -0.424727827 -0.902432263 0.0722658262 0.791405737 0.610763073 0.0254040696 0.811791599 0.583260357 0.0283164736 -0.384397864 -0.923160434 -0.00360985659 -0.404832929 -0.914083242 -0.0237091873 0.897207379 0.440599948 -0.0298433583 0.897348106 0.438759029 -0.0475072227 0.526732743 -0.68638891 -0.501420856 0.526734054 -0.686390102 -0.501417816 0.526733935 -0.686389983 -0.501418114 0.526732743 -0.68638891 -0.501420856 -0.459931254 -0.884370863 -0.0796953887 -0.459931254 -0.884370863 -0.0796953887 0.894900262 0.42963019 -0.120711766 0.894900262 0.42963019 -0.120711766 -0.133572087 0.120126925 -0.983731687 -0.133572087 0.120126925 -0.983731687 0.526735246 -0.686391175 -0.501415074 0.526735246 -0.686391175 -0.501415074 -0.657805324 -0.731450438 0.17964533 -0.657805264 -0.731450498 0.179645315 -0.622349799 -0.692025423 0.365761489 -0.626774788 -0.696945667 0.34845385 -0.544362247 -0.585770011 0.600452602 -0.543824196 -0.585893631 0.600819349 -0.420596451 -0.39648959 0.816023648 -0.402829438 -0.373521715 0.835589647 -0.202044502 -0.0867348611 0.975528061 -0.165548295 -0.0377900712 0.985477448 0.0752257034 0.239172712 0.968058586 0.124711402 0.28308478 0.950952232 0.28818351 0.422220409 0.859465122 0.28819111 0.422220528 0.85946244 0.0987458378 0.26009357 0.960521042 0.288197845 0.422220647 0.859460056 -0.170181841 -0.0470062345 0.984290898 -0.392335624 -0.361404449 0.845848441 -0.540681064 -0.581821978 0.607574821 -0.624842227 -0.694796622 0.356131643 -0.657805264 -0.731450438 0.17964533 0.65808785 0.731278837 -0.179308355 0.626706898 0.696579814 -0.349306434 0.623325527 0.691829681 -0.364467978 0.659431636 0.730041146 -0.179415882 0.543652594 0.585976779 -0.600893617 0.544086337 0.586248457 -0.600235641 0.403322995 0.373759091 -0.835245311 0.419959158 0.395495653 -0.816833794 0.166579336 0.038395565 -0.985280216 0.201705992 0.0839383677 -0.975842714 -0.121320643 -0.280605555 -0.952124894 -0.0772023648 -0.249711633 -0.965237737 -0.293674946 -0.425220877 -0.856120467 -0.2827636 -0.435318828 -0.854717553 -0.110850453 -0.261228293 -0.958891034 -0.303264856 -0.416216373 -0.857201457 0.168589398 0.0455925055 -0.98463136 0.392625988 0.361162186 -0.845817208 0.540915191 0.581992209 -0.607203245 0.624624074 0.695510685 -0.355119228 0.656867743 0.732398987 -0.179210395 -0.753612936 0.655397832 -0.050212983 -0.765682995 0.639838457 -0.0658513084 -0.764221728 0.641777635 -0.0639264211 -0.753612936 0.655397832 -0.050212983 -0.120118931 -0.133565083 -0.983733654 -0.120115399 -0.133565277 -0.983734012 -0.120115407 -0.133565277 -0.983734012 -0.120118931 -0.133565083 -0.983733654 0.689484715 -0.710709035 -0.139654845 0.681636393 -0.705787957 -0.192963839 0.681636393 -0.705787957 -0.192963839 0.688281 -0.710012257 -0.148835137 0.726701736 -0.685904205 -0.0379471965 0.724492371 -0.687992394 -0.0421586819 -0.764763236 0.642746866 -0.044874575 -0.765752196 0.641354084 -0.0478383191 0.79196769 -0.608328521 0.0521873347 0.801549792 -0.59473145 0.0617445484 -0.740605593 0.671939135 -0.00109308201 -0.740208507 0.67237711 -0.000723381119 0.888138056 -0.452780545 0.0787440315 0.902431011 -0.424731851 0.0722575262 -0.610752702 0.791414142 0.0253925733 -0.583251834 0.811798096 0.0283037201 0.923159838 -0.384399295 -0.00361203961 0.914083183 -0.404833138 -0.0237097945 -0.440594465 0.897209704 -0.0298545565 -0.438754141 0.897349954 -0.0475155264 0.686395347 0.526743233 -0.501400948 0.686394334 0.526739299 -0.50140655 0.686394453 0.526739597 -0.501406074 0.686395347 0.526743233 -0.501400948 0.884373307 -0.459927499 -0.0796906725 0.884373307 -0.459927499 -0.0796906725 -0.429627985 0.894901156 -0.120713405 -0.429627985 0.894901156 -0.120713405 -0.12011189 -0.1335655 -0.983734429 -0.12011189 -0.1335655 -0.983734429 0.68639344 0.526735663 -0.501411676 0.68639344 0.526735663 -0.501411676 0.63506788 -0.751276493 0.179645374 0.635068059 -0.751276314 0.179645374 0.600838065 -0.710782707 0.365761459 0.60510999 -0.715836465 0.34845373 0.506190956 -0.619053841 0.600452363 0.506387174 -0.618537307 0.60081917 0.335525662 -0.470667899 0.816023409 0.315191686 -0.449938506 0.835589349 0.0584168956 -0.211972937 0.975528002 0.0148959244 -0.169152483 0.985477269 -0.226700187 0.107093729 0.968058884 -0.263471752 0.162095815 0.950950861 -0.379049599 0.342995048 0.8594625 -0.379054457 0.342996925 0.859459639 -0.24423404 0.13323696 0.960519493 -0.379058748 0.342998564 0.859457016 0.0233929176 -0.174998373 0.984290719 0.304616332 -0.437891662 0.84584856 0.502781868 -0.614868581 0.607574642 0.603244066 -0.713629484 0.356131613 0.635067701 -0.751276612 0.179645374 -0.634859264 0.75153321 -0.179308459 -0.604756355 0.715719759 -0.349306434 -0.600511014 0.711722791 -0.364468247 -0.633449554 0.752696276 -0.179416105 -0.506492794 0.61837846 -0.600893617 -0.506703436 0.618844688 -0.600235641 -0.315359533 0.450460047 -0.835244954 -0.334628731 0.469900757 -0.816833436 -0.0153552499 0.170256734 -0.985280156 -0.0556908324 0.211257815 -0.975842535 0.26147455 -0.158394784 -0.952125072 0.236873269 -0.110483475 -0.965238035 0.381276965 -0.348830432 -0.856122136 0.392760068 -0.339400768 -0.854720235 0.24370645 -0.145382181 -0.958890617 0.371056557 -0.357100517 -0.857202649 -0.0222111065 0.173227638 -0.9846313 -0.30433616 0.438147485 -0.84581697 -0.502917826 0.615124643 -0.607202947 -0.603980839 0.713510752 -0.355119258 -0.636135578 0.750476599 -0.17921035 -0.751909077 -0.657351851 -0.0502130762 -0.738141 -0.671424925 -0.0658512637 -0.739862502 -0.669713974 -0.0639267862 -0.751909077 -0.657351851 -0.0502130762 0.115968592 -0.137194857 -0.983732104 0.1159686 -0.137194857 -0.983732164 0.1159686 -0.137194857 -0.983732164 0.115968592 -0.137194857 -0.983732104 0.797973573 0.586289048 -0.139654249 0.792031169 0.579182088 -0.192963272 0.792031169 0.579182088 -0.192963272 0.797119737 0.58519119 -0.148833871 0.778463066 0.62654233 -0.0379481725 0.780231774 0.624068022 -0.0421610512 -0.740899324 -0.670115113 -0.0448770076 -0.739653826 -0.671284914 -0.0478415899 0.710499704 0.701760232 0.0521800667 0.698336363 0.713102341 0.061736051 -0.766527534 -0.642210484 -0.00109670765 -0.766907156 -0.641757667 -0.000727040926 0.569497168 0.818213284 0.0787404329 0.543653011 0.836194038 0.0722561106 -0.867202938 -0.497306794 0.0253958404 -0.883652866 -0.467285991 0.0283082444 0.506518185 0.862221658 -0.00361915282 0.52553004 0.850444198 -0.0237232912 -0.948847115 -0.314322084 -0.0298469625 -0.948736489 -0.312477171 -0.0475082099 -0.428393483 0.751715004 -0.501401722 -0.428380609 0.75171715 -0.501409411 -0.428381622 0.751716971 -0.501408815 -0.428393483 0.751715004 -0.501401722 0.576072872 0.813501775 -0.0797179639 0.576072872 0.813501775 -0.0797179639 -0.945071757 -0.303758115 -0.120708145 -0.945071757 -0.303758115 -0.120708145 0.115968592 -0.137194842 -0.983732104 0.115968592 -0.137194842 -0.983732104 -0.428368747 0.751719117 -0.501416504 -0.428368747 0.751719117 -0.501416504 </float_array>
          <technique_common>
            <accessor count="328" offset="0" source="#Plane.007-normals-array" stride="3">
              <param name="X" type="float" />
              <param name="Y" type="float" />
              <param name="Z" type="float" />
            </accessor>
          </technique_common>
        </source>
        <source id="Plane.007-tex0" name="Plane.007-tex0">
          <float_array id="Plane.007-tex0-array" count="656"> 0.328089833 0.0647939295 0.34410882 0.0598564669 0.400791198 0.18118839 0.3302719 0.171709999 0.411365151 0.277013749 0.332790196 0.260787129 0.403920591 0.349392712 0.328033954 0.338133961 0.377589107 0.418812752 0.330643177 0.435432285 0.346502602 0.47975713 0.332547158 0.481244802 0.338624567 0.498217136 0.334941536 0.499245673 0.317458898 0.476512909 0.330632359 0.498998433 0.274351031 0.41260162 0.251512617 0.340808421 0.247234851 0.264596015 0.256262422 0.174939945 0.316259027 0.0600637496 0.328089833 0.0647939295 0.3302719 0.171709999 0.400791198 0.18118839 0.34410882 0.0598564669 0.332790196 0.260787129 0.411365151 0.277013749 0.328033954 0.338133961 0.403920591 0.349392712 0.330643177 0.435432285 0.377589107 0.418812752 0.332547158 0.481244802 0.346502602 0.47975713 0.334941536 0.499245673 0.338624567 0.498217136 0.317458898 0.476512909 0.330632359 0.498998433 0.274351031 0.41260162 0.251512617 0.340808421 0.247234851 0.264596015 0.256262422 0.174939945 0.316259027 0.0600637496 0.316259027 0.0600637496 0.256262422 0.174939945 0.256262422 0.174939945 0.316259027 0.0600637496 0.34410882 0.0598564669 0.328089833 0.0647939295 0.328089833 0.0647939295 0.34410882 0.0598564669 0.400791198 0.18118839 0.34410882 0.0598564669 0.34410882 0.0598564669 0.400791198 0.18118839 0.411365151 0.277013749 0.411365151 0.277013749 0.247234851 0.264596015 0.247234851 0.264596015 0.403920591 0.349392712 0.403920591 0.349392712 0.251512617 0.340808421 0.251512617 0.340808421 0.377589107 0.418812752 0.377589107 0.418812752 0.274351031 0.41260162 0.274351031 0.41260162 0.346502602 0.47975713 0.346502602 0.47975713 0.317458898 0.476512909 0.317458898 0.476512909 0.330632359 0.498998433 0.334941536 0.499245673 0.334941536 0.499245673 0.330632359 0.498998433 0.338624567 0.498217136 0.338624567 0.498217136 0.330632359 0.498998433 0.330632359 0.498998433 0.316259027 0.0600637496 0.316259027 0.0600637496 0.338624567 0.498217136 0.338624567 0.498217136 0.328089833 0.0647939295 0.34410882 0.0598564669 0.400791198 0.18118839 0.3302719 0.171709999 0.411365151 0.277013749 0.332790196 0.260787129 0.403920591 0.349392712 0.328033954 0.338133961 0.377589107 0.418812752 0.330643177 0.435432285 0.346502602 0.47975713 0.332547158 0.481244802 0.338624567 0.498217136 0.334941536 0.499245673 0.317458898 0.476512909 0.330632359 0.498998433 0.274351031 0.41260162 0.251512617 0.340808421 0.247234851 0.264596015 0.256262422 0.174939945 0.316259027 0.0600637496 0.328089833 0.0647939295 0.3302719 0.171709999 0.400791198 0.18118839 0.34410882 0.0598564669 0.332790196 0.260787129 0.411365151 0.277013749 0.328033954 0.338133961 0.403920591 0.349392712 0.330643177 0.435432285 0.377589107 0.418812752 0.332547158 0.481244802 0.346502602 0.47975713 0.334941536 0.499245673 0.338624567 0.498217136 0.317458898 0.476512909 0.330632359 0.498998433 0.274351031 0.41260162 0.251512617 0.340808421 0.247234851 0.264596015 0.256262422 0.174939945 0.316259027 0.0600637496 0.316259027 0.0600637496 0.256262422 0.174939945 0.256262422 0.174939945 0.316259027 0.0600637496 0.34410882 0.0598564669 0.328089833 0.0647939295 0.328089833 0.0647939295 0.34410882 0.0598564669 0.400791198 0.18118839 0.34410882 0.0598564669 0.34410882 0.0598564669 0.400791198 0.18118839 0.411365151 0.277013749 0.411365151 0.277013749 0.247234851 0.264596015 0.247234851 0.264596015 0.403920591 0.349392712 0.403920591 0.349392712 0.251512617 0.340808421 0.251512617 0.340808421 0.377589107 0.418812752 0.377589107 0.418812752 0.274351031 0.41260162 0.274351031 0.41260162 0.346502602 0.47975713 0.346502602 0.47975713 0.317458898 0.476512909 0.317458898 0.476512909 0.330632359 0.498998433 0.334941536 0.499245673 0.334941536 0.499245673 0.330632359 0.498998433 0.338624567 0.498217136 0.338624567 0.498217136 0.330632359 0.498998433 0.330632359 0.498998433 0.316259027 0.0600637496 0.316259027 0.0600637496 0.338624567 0.498217136 0.338624567 0.498217136 0.328089833 0.0647939295 0.34410882 0.0598564669 0.400791198 0.18118839 0.3302719 0.171709999 0.411365151 0.277013749 0.332790196 0.260787129 0.403920591 0.349392712 0.328033954 0.338133961 0.377589107 0.418812752 0.330643177 0.435432285 0.346502602 0.47975713 0.332547158 0.481244802 0.338624567 0.498217136 0.334941536 0.499245673 0.317458898 0.476512909 0.330632359 0.498998433 0.274351031 0.41260162 0.251512617 0.340808421 0.247234851 0.264596015 0.256262422 0.174939945 0.316259027 0.0600637496 0.328089833 0.0647939295 0.3302719 0.171709999 0.400791198 0.18118839 0.34410882 0.0598564669 0.332790196 0.260787129 0.411365151 0.277013749 0.328033954 0.338133961 0.403920591 0.349392712 0.330643177 0.435432285 0.377589107 0.418812752 0.332547158 0.481244802 0.346502602 0.47975713 0.334941536 0.499245673 0.338624567 0.498217136 0.317458898 0.476512909 0.330632359 0.498998433 0.274351031 0.41260162 0.251512617 0.340808421 0.247234851 0.264596015 0.256262422 0.174939945 0.316259027 0.0600637496 0.316259027 0.0600637496 0.256262422 0.174939945 0.256262422 0.174939945 0.316259027 0.0600637496 0.34410882 0.0598564669 0.328089833 0.0647939295 0.328089833 0.0647939295 0.34410882 0.0598564669 0.400791198 0.18118839 0.34410882 0.0598564669 0.34410882 0.0598564669 0.400791198 0.18118839 0.411365151 0.277013749 0.411365151 0.277013749 0.247234851 0.264596015 0.247234851 0.264596015 0.403920591 0.349392712 0.403920591 0.349392712 0.251512617 0.340808421 0.251512617 0.340808421 0.377589107 0.418812752 0.377589107 0.418812752 0.274351031 0.41260162 0.274351031 0.41260162 0.346502602 0.47975713 0.346502602 0.47975713 0.317458898 0.476512909 0.317458898 0.476512909 0.330632359 0.498998433 0.334941536 0.499245673 0.334941536 0.499245673 0.330632359 0.498998433 0.338624567 0.498217136 0.338624567 0.498217136 0.330632359 0.498998433 0.330632359 0.498998433 0.316259027 0.0600637496 0.316259027 0.0600637496 0.338624567 0.498217136 0.338624567 0.498217136 0.328089833 0.0647939295 0.34410882 0.0598564669 0.400791198 0.18118839 0.3302719 0.171709999 0.411365151 0.277013749 0.332790196 0.260787129 0.403920591 0.349392712 0.328033954 0.338133961 0.377589107 0.418812752 0.330643177 0.435432285 0.346502602 0.47975713 0.332547158 0.481244802 0.338624567 0.498217136 0.334941536 0.499245673 0.317458898 0.476512909 0.330632359 0.498998433 0.274351031 0.41260162 0.251512617 0.340808421 0.247234851 0.264596015 0.256262422 0.174939945 0.316259027 0.0600637496 0.328089833 0.0647939295 0.3302719 0.171709999 0.400791198 0.18118839 0.34410882 0.0598564669 0.332790196 0.260787129 0.411365151 0.277013749 0.328033954 0.338133961 0.403920591 0.349392712 0.330643177 0.435432285 0.377589107 0.418812752 0.332547158 0.481244802 0.346502602 0.47975713 0.334941536 0.499245673 0.338624567 0.498217136 0.317458898 0.476512909 0.330632359 0.498998433 0.274351031 0.41260162 0.251512617 0.340808421 0.247234851 0.264596015 0.256262422 0.174939945 0.316259027 0.0600637496 0.316259027 0.0600637496 0.256262422 0.174939945 0.256262422 0.174939945 0.316259027 0.0600637496 0.34410882 0.0598564669 0.328089833 0.0647939295 0.328089833 0.0647939295 0.34410882 0.0598564669 0.400791198 0.18118839 0.34410882 0.0598564669 0.34410882 0.0598564669 0.400791198 0.18118839 0.411365151 0.277013749 0.411365151 0.277013749 0.247234851 0.264596015 0.247234851 0.264596015 0.403920591 0.349392712 0.403920591 0.349392712 0.251512617 0.340808421 0.251512617 0.340808421 0.377589107 0.418812752 0.377589107 0.418812752 0.274351031 0.41260162 0.274351031 0.41260162 0.346502602 0.47975713 0.346502602 0.47975713 0.317458898 0.476512909 0.317458898 0.476512909 0.330632359 0.498998433 0.334941536 0.499245673 0.334941536 0.499245673 0.330632359 0.498998433 0.338624567 0.498217136 0.338624567 0.498217136 0.330632359 0.498998433 0.330632359 0.498998433 0.316259027 0.0600637496 0.316259027 0.0600637496 0.338624567 0.498217136 0.338624567 0.498217136 </float_array>
          <technique_common>
            <accessor count="328" offset="0" source="#Plane.007-tex0-array" stride="2">
              <param name="S" type="float" />
              <param name="T" type="float" />
            </accessor>
          </technique_common>
        </source>
        <vertices id="Plane.007-vertices">
          <input semantic="POSITION" source="#Plane.007-positions" />
        </vertices>
        <polylist count="320" material="defaultMaterial">
          <input offset="0" semantic="VERTEX" source="#Plane.007-vertices" />
          <input offset="0" semantic="NORMAL" source="#Plane.007-normals" />
          <input offset="0" semantic="TEXCOORD" source="#Plane.007-tex0" set="0" />
          <vcount>3 3 3 3 3 3 3 3 3 3 3 3 3 3 3 3 3 3 3 3 3 3 3 3 3 3 3 3 3 3 3 3 3 3 3 3 3 3 3 3 3 3 3 3 3 3 3 3 3 3 3 3 3 3 3 3 3 3 3 3 3 3 3 3 3 3 3 3 3 3 3 3 3 3 3 3 3 3 3 3 3 3 3 3 3 3 3 3 3 3 3 3 3 3 3 3 3 3 3 3 3 3 3 3 3 3 3 3 3 3 3 3 3 3 3 3 3 3 3 3 3 3 3 3 3 3 3 3 3 3 3 3 3 3 3 3 3 3 3 3 3 3 3 3 3 3 3 3 3 3 3 3 3 3 3 3 3 3 3 3 3 3 3 3 3 3 3 3 3 3 3 3 3 3 3 3 3 3 3 3 3 3 3 3 3 3 3 3 3 3 3 3 3 3 3 3 3 3 3 3 3 3 3 3 3 3 3 3 3 3 3 3 3 3 3 3 3 3 3 3 3 3 3 3 3 3 3 3 3 3 3 3 3 3 3 3 3 3 3 3 3 3 3 3 3 3 3 3 3 3 3 3 3 3 3 3 3 3 3 3 3 3 3 3 3 3 3 3 3 3 3 3 3 3 3 3 3 3 3 3 3 3 3 3 3 3 3 3 3 3 3 3 3 3 3 3 3 3 3 3 3 3 3 3 3 3 3 3 3 3 3 3 3 3 3 3 3 3 3 3 </vcount>
          <p>0 1 2 0 2 3 3 2 4 3 4 5 5 4 6 5 6 7 7 6 8 7 8 9 9 8 10 9 10 11 11 10 12 11 12 13 14 11 13 14 13 15 16 9 11 16 11 14 17 7 9 17 9 16 18 5 7 18 7 17 19 3 5 19 5 18 20 0 3 20 3 19 21 22 23 21 23 24 22 25 26 22 26 23 25 27 28 25 28 26 27 29 30 27 30 28 29 31 32 29 32 30 31 33 34 31 34 32 35 36 33 35 33 31 37 35 31 37 31 29 38 37 29 38 29 27 39 38 27 39 27 25 40 39 25 40 25 22 41 40 22 41 22 21 42 43 44 42 44 45 46 47 48 46 48 49 50 51 52 50 52 53 54 50 53 54 53 55 43 56 57 43 57 44 58 54 55 58 55 59 56 60 61 56 61 57 62 58 59 62 59 63 60 64 65 60 65 61 66 62 63 66 63 67 64 68 69 64 69 65 70 71 72 70 72 73 74 66 67 74 67 75 68 76 77 68 77 69 47 78 79 47 79 48 71 80 81 71 81 72 82 83 84 82 84 85 85 84 86 85 86 87 87 86 88 87 88 89 89 88 90 89 90 91 91 90 92 91 92 93 93 92 94 93 94 95 96 93 95 96 95 97 98 91 93 98 93 96 99 89 91 99 91 98 100 87 89 100 89 99 101 85 87 101 87 100 102 82 85 102 85 101 103 104 105 103 105 106 104 107 108 104 108 105 107 109 110 107 110 108 109 111 112 109 112 110 111 113 114 111 114 112 113 115 116 113 116 114 117 118 115 117 115 113 119 117 113 119 113 111 120 119 111 120 111 109 121 120 109 121 109 107 122 121 107 122 107 104 123 122 104 123 104 103 124 125 126 124 126 127 128 129 130 128 130 131 132 133 134 132 134 135 136 132 135 136 135 137 125 138 139 125 139 126 140 136 137 140 137 141 138 142 143 138 143 139 144 140 141 144 141 145 142 146 147 142 147 143 148 144 145 148 145 149 146 150 151 146 151 147 152 153 154 152 154 155 156 148 149 156 149 157 150 158 159 150 159 151 129 160 161 129 161 130 153 162 163 153 163 154 164 165 166 164 166 167 167 166 168 167 168 169 169 168 170 169 170 171 171 170 172 171 172 173 173 172 174 173 174 175 175 174 176 175 176 177 178 175 177 178 177 179 180 173 175 180 175 178 181 171 173 181 173 180 182 169 171 182 171 181 183 167 169 183 169 182 184 164 167 184 167 183 185 186 187 185 187 188 186 189 190 186 190 187 189 191 192 189 192 190 191 193 194 191 194 192 193 195 196 193 196 194 195 197 198 195 198 196 199 200 197 199 197 195 201 199 195 201 195 193 202 201 193 202 193 191 203 202 191 203 191 189 204 203 189 204 189 186 205 204 186 205 186 185 206 207 208 206 208 209 210 211 212 210 212 213 214 215 216 214 216 217 218 214 217 218 217 219 207 220 221 207 221 208 222 218 219 222 219 223 220 224 225 220 225 221 226 222 223 226 223 227 224 228 229 224 229 225 230 226 227 230 227 231 228 232 233 228 233 229 234 235 236 234 236 237 238 230 231 238 231 239 232 240 241 232 241 233 211 242 243 211 243 212 235 244 245 235 245 236 246 247 248 246 248 249 249 248 250 249 250 251 251 250 252 251 252 253 253 252 254 253 254 255 255 254 256 255 256 257 257 256 258 257 258 259 260 257 259 260 259 261 262 255 257 262 257 260 263 253 255 263 255 262 264 251 253 264 253 263 265 249 251 265 251 264 266 246 249 266 249 265 267 268 269 267 269 270 268 271 272 268 272 269 271 273 274 271 274 272 273 275 276 273 276 274 275 277 278 275 278 276 277 279 280 277 280 278 281 282 279 281 279 277 283 281 277 283 277 275 284 283 275 284 275 273 285 284 273 285 273 271 286 285 271 286 271 268 287 286 268 287 268 267 288 289 290 288 290 291 292 293 294 292 294 295 296 297 298 296 298 299 300 296 299 300 299 301 289 302 303 289 303 290 304 300 301 304 301 305 302 306 307 302 307 303 308 304 305 308 305 309 306 310 311 306 311 307 312 308 309 312 309 313 310 314 315 310 315 311 316 317 318 316 318 319 320 312 313 320 313 321 314 322 323 314 323 315 293 324 325 293 325 294 317 326 327 317 327 318 </p>
        </polylist>
      </mesh>
    </geometry>
    <geometry id="Plane.007_1" name="FlowerPot" >
      <mesh>
        <source id="Plane.007_1-positions" name="Plane.007_1-positions">
          <float_array id="Plane.007_1-positions-array" count="1290"> -0.468491614 0.976162732 -1.34945094e-06 -0.5762043 1.13736606 1.90731275 -0.369798601 1.24769223 1.90731275 -0.295604825 1.06857264 -1.34945094e-06 0.469762087 1.06857264 -1.34945094e-06 0.543955863 1.24769223 1.90731275 0.750361562 1.13736606 1.90731275 0.642648876 0.976162732 -1.34945094e-06 0.282168984 -0.836092114 -1.34945094e-06 0.319992632 -1.02624452 1.90731275 0.0870786458 -1.04918456 1.90731275 0.0870786458 -0.855306864 -1.34945094e-06 -0.620028138 0.851799905 -1.34945094e-06 -0.757120371 0.988892138 1.90731275 0.282168984 1.12547839 -1.34945094e-06 0.319992632 1.31563079 1.90731275 0.469762087 -0.779186368 -1.34945094e-06 0.543955863 -0.958305955 1.90731275 -0.744390965 0.700263381 -1.34945094e-06 -0.905594349 0.807976067 1.90731275 -0.757120371 0.988892138 1.90731275 -0.620028138 0.851799905 -1.34945094e-06 0.0870786458 1.14469314 -1.34945094e-06 0.0870786458 1.33857083 1.90731275 0.642648876 -0.686776459 -1.34945094e-06 0.750361562 -0.847979844 1.90731275 -0.836800873 0.527376592 -1.34945094e-06 -1.0159204 0.601570368 1.90731275 0.7941854 -0.562413633 -1.34945094e-06 0.931277633 -0.699505866 1.90731275 -0.89370662 0.33978346 -1.34945094e-06 -1.08385897 0.377607107 1.90731275 0.918548226 -0.410877109 -1.34945094e-06 1.07975161 -0.518589795 1.90731275 0.931277633 -0.699505866 1.90731275 0.7941854 -0.562413633 -1.34945094e-06 -0.912921369 0.144693136 -1.34945094e-06 -1.10679901 0.144693136 1.90731275 1.01095819 -0.23799032 -1.34945094e-06 1.19007778 -0.312184095 1.90731275 -0.89370662 -0.0503971875 -1.34945094e-06 -1.08385897 -0.0882208496 1.90731275 1.06786394 -0.0503971875 -1.34945094e-06 1.25801635 -0.0882208496 1.90731275 -0.836800873 -0.23799032 -1.34945094e-06 -1.0159204 -0.312184095 1.90731275 1.08707869 0.144693136 -1.34945094e-06 1.28095639 0.144693136 1.90731275 -0.744390965 -0.410877109 -1.34945094e-06 -0.905594349 -0.518589795 1.90731275 1.06786394 0.33978346 -1.34945094e-06 1.25801635 0.377607107 1.90731275 -0.620028138 -0.562413633 -1.34945094e-06 -0.757120371 -0.699505866 1.90731275 1.01095819 0.527376592 -1.34945094e-06 1.19007778 0.601570368 1.90731275 -0.468491614 -0.686776459 -1.34945094e-06 -0.5762043 -0.847979844 1.90731275 0.918548226 0.700263381 -1.34945094e-06 1.07975161 0.807976067 1.90731275 -0.295604825 -0.779186368 -1.34945094e-06 -0.369798601 -0.958305955 1.90731275 -0.108011678 1.12547839 -1.34945094e-06 -0.14583534 1.31563079 1.90731275 0.7941854 0.851799905 -1.34945094e-06 0.931277633 0.988892138 1.90731275 -0.108011678 -0.836092114 -1.34945094e-06 -0.14583534 -1.02624452 1.90731275 1.25801635 0.377607107 1.90731275 1.33884871 0.393685699 1.90731275 1.36337233 0.144693136 1.90731275 1.28095639 0.144693136 1.90731275 -0.757120371 -0.699505866 1.90731275 -0.815397263 -0.757782757 1.90731275 -0.974120796 -0.564377666 1.90731275 -0.905594349 -0.518589795 1.90731275 1.19007778 0.601570368 1.90731275 1.26622021 0.63310957 1.90731275 -0.5762043 -0.847979844 1.90731275 -0.621992171 -0.91650629 1.90731275 1.07975161 0.807976067 1.90731275 1.14827812 0.853763938 1.90731275 -0.369798601 -0.958305955 1.90731275 -0.401337802 -1.03444839 1.90731275 -0.14583534 1.31563079 1.90731275 -0.161913902 1.39646316 1.90731275 0.0870786458 1.42098677 1.90731275 0.0870786458 1.33857083 1.90731275 0.931277633 0.988892138 1.90731275 0.989554524 1.04716897 1.90731275 -0.14583534 -1.02624452 1.90731275 -0.161913902 -1.10707688 1.90731275 -0.369798601 1.24769223 1.90731275 -0.401337802 1.32383466 1.90731275 0.750361562 1.13736606 1.90731275 0.796149433 1.20589256 1.90731275 0.0870786458 -1.04918456 1.90731275 0.0870786458 -1.1316005 1.90731275 -0.5762043 1.13736606 1.90731275 -0.621992171 1.20589256 1.90731275 0.543955863 1.24769223 1.90731275 0.575495124 1.32383466 1.90731275 0.319992632 -1.02624452 1.90731275 0.336071193 -1.10707688 1.90731275 -0.757120371 0.988892138 1.90731275 -0.815397263 1.04716897 1.90731275 0.319992632 1.31563079 1.90731275 0.336071193 1.39646316 1.90731275 0.543955863 -0.958305955 1.90731275 0.575495124 -1.03444839 1.90731275 -0.905594349 0.807976067 1.90731275 -0.974120796 0.853763938 1.90731275 0.750361562 -0.847979844 1.90731275 0.796149433 -0.91650629 1.90731275 -1.0159204 0.601570368 1.90731275 -1.09206283 0.63310957 1.90731275 0.931277633 -0.699505866 1.90731275 0.989554524 -0.757782757 1.90731275 -1.08385897 0.377607107 1.90731275 -1.16469133 0.393685699 1.90731275 1.07975161 -0.518589795 1.90731275 1.14827812 -0.564377666 1.90731275 -1.10679901 0.144693136 1.90731275 -1.18921494 0.144693136 1.90731275 1.19007778 -0.312184095 1.90731275 1.26622021 -0.343723327 1.90731275 -1.08385897 -0.0882208496 1.90731275 -1.16469133 -0.104299396 1.90731275 1.25801635 -0.0882208496 1.90731275 1.33884871 -0.104299396 1.90731275 -1.0159204 -0.312184095 1.90731275 -1.09206283 -0.343723327 1.90731275 -0.161913902 1.39646316 1.90731275 -0.161913902 1.39646316 2.31761789 0.0870786458 1.42098677 2.31761789 0.0870786458 1.42098677 1.90731275 0.989554524 1.04716897 1.90731275 0.989554524 1.04716897 2.31761789 1.14827812 0.853763938 2.31761789 1.14827812 0.853763938 1.90731275 -0.161913902 -1.10707688 1.90731275 -0.161913902 -1.10707688 2.31761789 -0.401337802 -1.03444839 2.31761789 -0.401337802 -1.03444839 1.90731275 -0.401337802 1.32383466 1.90731275 -0.401337802 1.32383466 2.31761789 0.796149433 1.20589256 1.90731275 0.796149433 1.20589256 2.31761789 0.0870786458 -1.1316005 1.90731275 0.0870786458 -1.1316005 2.31761789 -0.621992171 1.20589256 1.90731275 -0.621992171 1.20589256 2.31761789 0.575495124 1.32383466 1.90731275 0.575495124 1.32383466 2.31761789 0.336071193 -1.10707688 1.90731275 0.336071193 -1.10707688 2.31761789 -0.815397263 1.04716897 1.90731275 -0.815397263 1.04716897 2.31761789 0.336071193 1.39646316 1.90731275 0.336071193 1.39646316 2.31761789 0.575495124 -1.03444839 1.90731275 0.575495124 -1.03444839 2.31761789 -0.974120796 0.853763938 1.90731275 -0.974120796 0.853763938 2.31761789 -0.815397263 1.04716897 2.31761789 -0.815397263 1.04716897 1.90731275 0.796149433 -0.91650629 1.90731275 0.796149433 -0.91650629 2.31761789 -1.09206283 0.63310957 1.90731275 -1.09206283 0.63310957 2.31761789 0.989554524 -0.757782757 1.90731275 0.989554524 -0.757782757 2.31761789 -1.16469133 0.393685699 1.90731275 -1.16469133 0.393685699 2.31761789 1.14827812 -0.564377666 1.90731275 1.14827812 -0.564377666 2.31761789 0.989554524 -0.757782757 2.31761789 0.989554524 -0.757782757 1.90731275 -1.18921494 0.144693136 1.90731275 -1.18921494 0.144693136 2.31761789 1.26622021 -0.343723327 1.90731275 1.26622021 -0.343723327 2.31761789 -1.16469133 -0.104299396 1.90731275 -1.16469133 -0.104299396 2.31761789 1.33884871 -0.104299396 1.90731275 1.33884871 -0.104299396 2.31761789 -1.09206283 -0.343723327 1.90731275 -1.09206283 -0.343723327 2.31761789 1.36337233 0.144693136 1.90731275 1.36337233 0.144693136 2.31761789 -0.974120796 -0.564377666 1.90731275 -0.974120796 -0.564377666 2.31761789 1.33884871 0.393685699 1.90731275 1.33884871 0.393685699 2.31761789 -0.815397263 -0.757782757 1.90731275 -0.815397263 -0.757782757 2.31761789 1.26622021 0.63310957 1.90731275 1.26622021 0.63310957 2.31761789 -0.621992171 -0.91650629 1.90731275 -0.621992171 -0.91650629 2.31761789 -0.815397263 1.04716897 2.31761789 -0.686980069 0.918751836 2.31761789 -0.521095395 1.05488992 2.31761789 -0.621992171 1.20589256 2.31761789 0.336071193 1.39646316 2.31761789 0.30064097 1.21834338 2.31761789 0.505996227 1.15604949 2.31761789 0.575495124 1.32383466 2.31761789 0.575495124 -1.03444839 2.31761789 0.505996227 -0.866663218 2.31761789 0.30064097 -0.928957105 2.31761789 0.336071193 -1.10707688 2.31761789 -0.974120796 0.853763938 2.31761789 -0.823118091 0.752867162 2.31761789 0.0870786458 1.42098677 2.31761789 0.0870786533 1.23937738 2.31761789 0.796149433 -0.91650629 2.31761789 0.695252657 -0.765503645 2.31761789 -1.09206283 0.63310957 2.31761789 -0.924277604 0.563610673 2.31761789 0.989554524 -0.757782757 2.31761789 0.861137331 -0.629365563 2.31761789 -1.16469133 0.393685699 2.31761789 -0.98657161 0.358255446 2.31761789 1.14827812 -0.564377666 2.31761789 0.997275472 -0.46348089 2.31761789 -1.18921494 0.144693136 2.31761789 -1.00760555 0.144693136 2.31761789 1.26622021 -0.343723327 2.31761789 1.09843504 -0.274224401 2.31761789 -1.16469133 -0.104299396 2.31761789 -0.98657161 -0.0688691735 2.31761789 1.33884871 -0.104299396 2.31761789 1.16072893 -0.0688691735 2.31761789 -1.09206283 -0.343723327 2.31761789 -0.924277604 -0.274224401 2.31761789 1.36337233 0.144693136 2.31761789 1.18176293 0.144693136 2.31761789 -0.974120796 -0.564377666 2.31761789 -0.823118091 -0.46348089 2.31761789 1.33884871 0.393685699 2.31761789 1.16072893 0.358255446 2.31761789 -0.815397263 -0.757782757 2.31761789 -0.686980069 -0.629365563 2.31761789 1.26622021 0.63310957 2.31761789 1.09843504 0.563610673 2.31761789 -0.621992171 -0.91650629 2.31761789 -0.521095395 -0.765503645 2.31761789 1.14827812 0.853763938 2.31761789 0.997275472 0.752867162 2.31761789 -0.401337802 -1.03444839 2.31761789 -0.331838906 -0.866663218 2.31761789 -0.161913902 1.39646316 2.31761789 -0.126483664 1.21834338 2.31761789 0.989554524 1.04716897 2.31761789 0.861137331 0.918751836 2.31761789 -0.161913902 -1.10707688 2.31761789 -0.126483664 -0.928957105 2.31761789 -0.401337802 1.32383466 2.31761789 -0.331838906 1.15604949 2.31761789 0.796149433 1.20589256 2.31761789 0.695252657 1.05488992 2.31761789 0.0870786458 -1.1316005 2.31761789 0.0870786533 -0.949991107 2.31761789 -0.98657161 0.358255446 2.31761789 -0.827840149 0.326681793 0.0536053516 -0.774755895 0.501676798 0.0536053516 -0.924277604 0.563610673 2.31761789 0.997275472 -0.46348089 2.31761789 0.862709522 -0.373566747 0.0536053516 0.74669838 -0.514926612 0.0536053516 0.861137331 -0.629365563 2.31761789 -1.00760555 0.144693136 2.31761789 -0.845764458 0.144693136 0.0536053516 1.09843504 -0.274224401 2.31761789 0.948913336 -0.212290496 0.0536053516 -0.98657161 -0.0688691735 2.31761789 -0.827840149 -0.0372955501 0.0536053516 1.16072893 -0.0688691735 2.31761789 1.00199759 -0.0372955501 0.0536053516 -0.924277604 -0.274224401 2.31761789 -0.774755895 -0.212290496 0.0536053516 1.18176293 0.144693136 2.31761789 1.0199219 0.144693136 0.0536053516 -0.823118091 -0.46348089 2.31761789 -0.688552141 -0.373566747 0.0536053516 1.16072893 0.358255446 2.31761789 1.00199759 0.326681793 0.0536053516 -0.686980069 -0.629365563 2.31761789 -0.572541058 -0.514926612 0.0536053516 1.09843504 0.563610673 2.31761789 0.948913336 0.501676798 0.0536053516 -0.521095395 -0.765503645 2.31761789 -0.431181312 -0.630937696 0.0536053516 0.997275472 0.752867162 2.31761789 0.862709522 0.662953019 0.0536053516 -0.331838906 -0.866663218 2.31761789 -0.269904971 -0.717141509 0.0536053516 -0.126483664 1.21834338 2.31761789 -0.0949100256 1.05961204 0.0536053516 0.0870786607 1.07753634 0.0536053516 0.0870786533 1.23937738 2.31761789 0.861137331 0.918751836 2.31761789 0.74669838 0.804312885 0.0536053516 -0.126483664 -0.928957105 2.31761789 -0.0949100256 -0.770225704 0.0536053516 -0.331838906 1.15604949 2.31761789 -0.269904971 1.00652778 0.0536053516 0.695252657 1.05488992 2.31761789 0.605338514 0.920323968 0.0536053516 0.0870786533 -0.949991107 2.31761789 0.0870786607 -0.788150012 0.0536053516 -0.521095395 1.05488992 2.31761789 -0.431181312 0.920323968 0.0536053516 0.505996227 1.15604949 2.31761789 0.444062293 1.00652778 0.0536053516 0.30064097 -0.928957105 2.31761789 0.269067347 -0.770225704 0.0536053516 -0.686980069 0.918751836 2.31761789 -0.572541058 0.804312885 0.0536053516 0.30064097 1.21834338 2.31761789 0.269067347 1.05961204 0.0536053516 0.505996227 -0.866663218 2.31761789 0.444062293 -0.717141509 0.0536053516 -0.823118091 0.752867162 2.31761789 -0.688552141 0.662953019 0.0536053516 -0.572541058 0.804312885 0.0536053516 -0.686980069 0.918751836 2.31761789 0.695252657 -0.765503645 2.31761789 0.605338514 -0.630937696 0.0536053516 0.861137331 -0.629365563 2.31761789 0.74669838 -0.514926612 0.0536053516 0.948913336 0.501676798 -0.000902217755 1.00199759 0.326681793 -0.000902217755 -0.431181312 -0.630937696 -0.000902217755 -0.572541058 -0.514926612 -0.000902217755 0.862709522 0.662953019 -0.000902217755 -0.269904971 -0.717141509 -0.000902217755 -0.0949100256 1.05961204 -0.000902217755 0.0870786607 1.07753634 -0.000902217755 0.74669838 0.804312885 -0.000902217755 -0.0949100256 -0.770225704 -0.000902217755 -0.269904971 1.00652778 -0.000902217755 0.605338514 0.920323968 -0.000902217755 0.0870786607 -0.788150012 -0.000902217755 -0.431181312 0.920323968 -0.000902217755 0.444062293 1.00652778 -0.000902217755 0.269067347 -0.770225704 -0.000902217755 -0.572541058 0.804312885 -0.000902217755 0.269067347 1.05961204 -0.000902217755 0.444062293 -0.717141509 -0.000902217755 -0.688552141 0.662953019 -0.000902217755 -0.572541058 0.804312885 -0.000902217755 0.605338514 -0.630937696 -0.000902217755 -0.774755895 0.501676798 -0.000902217755 0.74669838 -0.514926612 -0.000902217755 -0.827840149 0.326681793 -0.000902217755 0.862709522 -0.373566747 -0.000902217755 0.74669838 -0.514926612 -0.000902217755 -0.845764458 0.144693136 -0.000902217755 0.948913336 -0.212290496 -0.000902217755 -0.827840149 -0.0372955501 -0.000902217755 1.00199759 -0.0372955501 -0.000902217755 -0.774755895 -0.212290496 -0.000902217755 1.0199219 0.144693136 -0.000902217755 -0.688552141 -0.373566747 -0.000902217755 -0.108011678 1.12547839 -1.34945094e-06 0.0870786458 1.14469314 -1.34945094e-06 0.282168984 1.12547839 -1.34945094e-06 0.469762087 1.06857264 -1.34945094e-06 0.642648876 0.976162732 -1.34945094e-06 0.7941854 0.851799905 -1.34945094e-06 0.918548226 0.700263381 -1.34945094e-06 1.01095819 0.527376592 -1.34945094e-06 1.06786394 0.33978346 -1.34945094e-06 1.08707869 0.144693136 -1.34945094e-06 1.06786394 -0.0503971875 -1.34945094e-06 1.01095819 -0.23799032 -1.34945094e-06 0.918548226 -0.410877109 -1.34945094e-06 0.7941854 -0.562413633 -1.34945094e-06 0.642648876 -0.686776459 -1.34945094e-06 0.469762087 -0.779186368 -1.34945094e-06 0.282168984 -0.836092114 -1.34945094e-06 0.0870786458 -0.855306864 -1.34945094e-06 -0.108011678 -0.836092114 -1.34945094e-06 -0.295604825 -0.779186368 -1.34945094e-06 -0.468491614 -0.686776459 -1.34945094e-06 -0.620028138 -0.562413633 -1.34945094e-06 -0.744390965 -0.410877109 -1.34945094e-06 -0.836800873 -0.23799032 -1.34945094e-06 -0.89370662 -0.0503971875 -1.34945094e-06 -0.912921369 0.144693136 -1.34945094e-06 -0.89370662 0.33978346 -1.34945094e-06 -0.836800873 0.527376592 -1.34945094e-06 -0.744390965 0.700263381 -1.34945094e-06 -0.620028138 0.851799905 -1.34945094e-06 -0.468491614 0.976162732 -1.34945094e-06 -0.295604825 1.06857264 -1.34945094e-06 -0.0949100256 1.05961204 -0.000902217755 0.0870786607 1.07753634 -0.000902217755 0.269067347 1.05961204 -0.000902217755 0.444062293 1.00652778 -0.000902217755 0.605338514 0.920323968 -0.000902217755 0.74669838 0.804312885 -0.000902217755 0.862709522 0.662953019 -0.000902217755 0.948913336 0.501676798 -0.000902217755 1.00199759 0.326681793 -0.000902217755 1.0199219 0.144693136 -0.000902217755 1.00199759 -0.0372955501 -0.000902217755 0.948913336 -0.212290496 -0.000902217755 0.862709522 -0.373566747 -0.000902217755 0.74669838 -0.514926612 -0.000902217755 0.605338514 -0.630937696 -0.000902217755 0.444062293 -0.717141509 -0.000902217755 0.269067347 -0.770225704 -0.000902217755 0.0870786607 -0.788150012 -0.000902217755 -0.0949100256 -0.770225704 -0.000902217755 -0.269904971 -0.717141509 -0.000902217755 -0.431181312 -0.630937696 -0.000902217755 -0.572541058 -0.514926612 -0.000902217755 -0.688552141 -0.373566747 -0.000902217755 -0.774755895 -0.212290496 -0.000902217755 -0.827840149 -0.0372955501 -0.000902217755 -0.845764458 0.144693136 -0.000902217755 -0.827840149 0.326681793 -0.000902217755 -0.774755895 0.501676798 -0.000902217755 -0.688552141 0.662953019 -0.000902217755 -0.572541058 0.804312885 -0.000902217755 -0.431181312 0.920323968 -0.000902217755 -0.269904971 1.00652778 -0.000902217755 </float_array>
          <technique_common>
            <accessor count="430" offset="0" source="#Plane.007_1-positions-array" stride="3">
              <param name="X" type="float" />
              <param name="Y" type="float" />
              <param name="Z" type="float" />
            </accessor>
          </technique_common>
        </source>
        <source id="Plane.007_1-normals" name="Plane.007_1-normals">
          <float_array id="Plane.007_1-normals-array" count="1290"> -0.552722096 0.827207029 -0.101128474 -0.552722096 0.82720691 -0.101128466 -0.380721629 0.919143081 -0.101128459 -0.380721658 0.91914314 -0.101128452 0.380721688 0.91914314 -0.101128459 0.380721688 0.91914314 -0.101128452 0.552722037 0.827206969 -0.101128437 0.552722037 0.827207029 -0.101128444 0.194090337 -0.975757182 -0.101128444 0.194090322 -0.975757182 -0.101128437 -4.79613282e-09 -0.994873405 -0.101128459 -9.47210399e-09 -0.994873405 -0.101128459 -0.703481734 0.703481734 -0.101128489 -0.703481734 0.703481734 -0.101128496 0.194090337 0.975757182 -0.101128452 0.194090322 0.975757182 -0.101128444 0.380721629 -0.91914314 -0.101128459 0.380721629 -0.9191432 -0.101128459 -0.827207029 0.552721977 -0.101128459 -0.827207088 0.552721918 -0.101128459 -0.703481734 0.703481734 -0.101128496 -0.703481734 0.703481734 -0.101128489 -9.47210399e-09 0.994873405 -0.101128422 -4.79613282e-09 0.994873405 -0.101128422 0.552721977 -0.827207029 -0.101128474 0.552722037 -0.827207029 -0.101128481 -0.91914326 0.38072145 -0.101128452 -0.9191432 0.38072139 -0.101128437 0.703481674 -0.703481793 -0.101128459 0.703481674 -0.703481734 -0.101128459 -0.975757182 0.194090322 -0.101128459 -0.975757182 0.194090322 -0.101128459 0.827207029 -0.552722096 -0.101128474 0.82720691 -0.552722096 -0.101128466 0.703481674 -0.703481734 -0.101128459 0.703481674 -0.703481793 -0.101128459 -0.994873405 0 -0.101128452 -0.994873405 0 -0.101128444 0.919143081 -0.380721807 -0.101128459 0.919143021 -0.380721837 -0.101128459 -0.975757182 -0.194090322 -0.101128444 -0.975757182 -0.194090322 -0.101128437 0.975757122 -0.194090456 -0.101128459 0.975757122 -0.194090456 -0.101128459 -0.91914326 -0.38072142 -0.101128444 -0.9191432 -0.38072139 -0.101128437 0.994873405 0 -0.101128481 0.994873405 0 -0.101128474 -0.827207088 -0.552721977 -0.101128459 -0.827207088 -0.552721918 -0.101128459 0.975757122 0.194090456 -0.101128481 0.975757122 0.194090456 -0.101128474 -0.703481734 -0.703481734 -0.101128452 -0.703481734 -0.703481734 -0.101128466 0.919143081 0.380721807 -0.101128459 0.919143021 0.380721837 -0.101128459 -0.552722096 -0.827207029 -0.101128481 -0.552722096 -0.827206969 -0.101128474 0.827207029 0.552722037 -0.101128459 0.827206969 0.552722096 -0.101128466 -0.380721569 -0.9191432 -0.101128452 -0.380721599 -0.9191432 -0.101128459 -0.194090262 0.975757182 -0.101128444 -0.194090247 0.975757182 -0.101128444 0.703481615 0.703481793 -0.101128459 0.703481674 0.703481734 -0.101128459 -0.194090262 -0.975757182 -0.101128444 -0.194090247 -0.975757182 -0.101128437 -3.75185351e-07 0 -1 -3.75185522e-07 0 -1 -4.68981824e-07 0 -1 -4.68981881e-07 0 -1 3.75185323e-07 0 -1 3.75185323e-07 0 -1 -2.81389049e-07 0 -1 -2.81388878e-07 0 -1 3.75185067e-07 0 -1 3.75184584e-07 0 -1 0 0 -1 0 0 -1 3.751843e-07 0 -1 3.75185493e-07 0 -1 -3.75185152e-07 0 -1 -3.75185294e-07 0 -1 0 0 -1 0 0 -1 0 0 -1 0 0 -1 -3.75185266e-07 0 -1 -3.75185522e-07 0 -1 -3.75185266e-07 0 -1 -3.75185209e-07 0 -1 0 0 -1 0 0 -1 0 0 -1 0 0 -1 0 0 -1 0 0 -1 0 0 -1 0 0 -1 3.75185209e-07 0 -1 3.75185039e-07 0 -1 0 0 -1 0 0 -1 0 0 -1 0 0 -1 3.75185209e-07 0 -1 3.75185181e-07 0 -1 -3.75185465e-07 0 -1 -3.75185664e-07 0 -1 -3.75185181e-07 0 -1 -3.75185266e-07 0 -1 -3.75185465e-07 0 -1 -3.75185607e-07 0 -1 -3.75185294e-07 0 -1 -3.75185209e-07 0 -1 0 0 -1 0 0 -1 3.7518555e-07 0 -1 3.75185436e-07 0 -1 3.75184982e-07 0 -1 3.7518538e-07 0 -1 1.12555654e-06 0 -1 1.12555654e-06 0 -1 4.6898154e-07 0 -1 4.68981568e-07 0 -1 1.03175989e-06 0 -1 1.03176012e-06 0 -1 -3.75185436e-07 0 -1 -3.7518555e-07 0 -1 -3.75185266e-07 0 -1 -3.75185493e-07 0 -1 -0.195090443 0.98078531 0 -0.195090443 0.98078531 0 0 1 0 0 1 0 0.707106769 0.707106769 0 0.707106769 0.707106769 0 0.831469595 0.555570364 0 0.831469595 0.555570364 0 -0.195090443 -0.98078531 0 -0.195090443 -0.98078531 0 -0.382683337 -0.923879623 0 -0.382683337 -0.923879623 0 -0.382683337 0.923879623 0 -0.382683337 0.923879623 0 0.555570245 0.831469595 0 0.555570245 0.831469595 0 0 -1 0 0 -1 0 -0.555570245 0.831469595 0 -0.555570245 0.831469595 0 0.382683337 0.923879623 0 0.382683337 0.923879623 0 0.195090398 -0.98078531 0 0.195090398 -0.98078531 0 -0.707106769 0.707106769 0 -0.707106769 0.707106769 0 0.195090398 0.98078531 0 0.195090398 0.98078531 0 0.382683337 -0.923879623 0 0.382683337 -0.923879623 0 -0.831469774 0.555570126 0 -0.831469774 0.555570126 0 -0.707106769 0.707106769 0 -0.707106769 0.707106769 0 0.555570185 -0.831469595 0 0.555570185 -0.831469595 0 -0.923879683 0.382683069 0 -0.923879683 0.382683069 0 0.707106709 -0.707106888 0 0.707106709 -0.707106888 0 -0.98078531 0.195090339 0 -0.98078531 0.195090339 0 0.831469536 -0.555570483 0 0.831469536 -0.555570483 0 0.707106709 -0.707106888 0 0.707106709 -0.707106888 0 -1 -2.38306868e-08 0 -1 -2.38306868e-08 0 0.923879623 -0.382683367 0 0.923879623 -0.382683367 0 -0.98078531 -0.195090353 0 -0.98078531 -0.195090353 0 0.98078531 -0.195090204 0 0.98078531 -0.195090204 0 -0.923879683 -0.382683247 0 -0.923879683 -0.382683247 0 1 -2.38306868e-08 0 1 -2.38306868e-08 0 -0.831469655 -0.555570185 0 -0.831469655 -0.555570185 0 0.98078531 0.19509019 0 0.98078531 0.19509019 0 -0.707106709 -0.707106888 0 -0.707106709 -0.707106888 0 0.923879683 0.382683247 0 0.923879683 0.382683247 0 -0.555570185 -0.831469655 0 -0.555570185 -0.831469655 0 3.54771402e-07 0 1 3.54771487e-07 0 1 7.09542917e-07 0 1 7.09542917e-07 0 1 3.54771203e-07 0 1 3.54771117e-07 0 1 0 0 1 0 0 1 -7.09542917e-07 0 1 -7.0954286e-07 0 1 -6.81196771e-14 0 1 0 0 1 3.54771515e-07 0 1 3.54771629e-07 0 1 0 0 1 3.40598521e-14 0 1 -7.09543031e-07 0 1 -7.09543031e-07 0 1 8.86928603e-07 0 1 8.8692849e-07 0 1 -1.92995034e-13 0 1 -2.72478817e-13 0 1 7.09542746e-07 0 1 7.09542689e-07 0 1 7.09542803e-07 0 1 7.09542803e-07 0 1 -1.77385701e-07 0 1 -1.77385743e-07 0 1 2.31594041e-13 0 1 -3.40598521e-14 0 1 -2.66078615e-07 0 1 -2.66078558e-07 0 1 8.86929428e-08 0 1 8.86928007e-08 0 1 -2.66078757e-07 0 1 -2.66078644e-07 0 1 4.43464245e-07 0 1 4.43464216e-07 0 1 -7.09542746e-07 0 1 -7.0954286e-07 0 1 -1.77385715e-07 0 1 -1.77385701e-07 0 1 -3.54771345e-07 0 1 -3.54771373e-07 0 1 -3.54771515e-07 0 1 -3.54771487e-07 0 1 0 0 1 0 0 1 -1.77385758e-07 0 1 -1.77385786e-07 0 1 0 0 1 0 0 1 3.47391143e-13 0 1 3.40598372e-13 0 1 0 0 1 0 0 1 -3.54771316e-07 0 1 -3.54771316e-07 0 1 7.09543031e-07 0 1 7.09542974e-07 0 1 0 0 1 0 0 1 -3.85990136e-14 0 1 0 0 1 0.978288889 -0.194593951 0.0713022724 0.98015815 -0.194965854 0.0357533656 0.923288882 -0.382438719 0.0357533619 0.921528041 -0.381709248 0.0713022649 -0.829353333 0.554156244 0.0713022351 -0.830937982 0.555215061 0.0357533507 -0.706654608 0.706654787 0.0357533544 -0.705306888 0.705307126 0.0713022426 0.997454703 -4.78729456e-09 0.0713022575 0.999360681 -7.13781212e-09 0.0357533582 -0.92152822 0.381709009 0.0713022575 -0.923288941 0.38243857 0.0357533544 0.978288889 0.194593966 0.0713022724 0.980158091 0.194965869 0.0357533619 -0.978288949 0.194593877 0.0713022351 -0.98015815 0.194965824 0.035753347 0.921528041 0.381709248 0.0713022575 0.923288882 0.382438689 0.0357533582 -0.997454762 -9.57459001e-09 0.0713022202 -0.999360681 -9.51708401e-09 0.0357533433 0.829353571 0.554155886 0.0713022351 0.83093822 0.555214703 0.0357533544 -0.978288889 -0.194593862 0.07130225 -0.98015815 -0.19496581 0.0357533582 0.705307126 0.705306947 0.0713022575 0.706654787 0.706654608 0.0357533619 -0.92152822 -0.381709009 0.0713022575 -0.923288941 -0.38243857 0.0357533582 0.554156065 0.829353392 0.0713022873 0.555214882 0.830938101 0.0357533768 -0.829353333 -0.554156244 0.07130225 -0.830937982 -0.555215061 0.0357533544 0.381709218 0.921528101 0.0713022724 0.382438511 0.923288882 0.0357533619 0.194593921 -0.978288889 0.0713022575 0.194965824 -0.98015815 0.0357533619 2.37927056e-09 -0.999360681 0.0357533433 0 -0.997454762 0.0713022351 -0.705306888 -0.705307126 0.0713022649 -0.706654608 -0.706654906 0.0357533656 0.194593832 0.978288889 0.07130225 0.194965705 0.98015815 0.0357533544 0.381709248 -0.921528041 0.0713022426 0.3824386 -0.923288882 0.0357533507 -0.554156065 -0.829353452 0.0713022426 -0.555214822 -0.83093816 0.035753347 0 0.997454762 0.0713022202 0 0.999360681 0.0357533395 0.554156005 -0.829353392 0.0713022575 0.555214942 -0.830938101 0.0357533619 -0.381709397 -0.921528041 0.0713022575 -0.382438749 -0.923288822 0.0357533507 -0.194593877 0.978288949 0.0713022575 -0.194965705 0.98015815 0.0357533507 0.705307126 -0.705306947 0.0713022724 0.706654787 -0.706654608 0.0357533656 -0.194593892 -0.978288889 0.0713022724 -0.194965795 -0.98015815 0.0357533656 -0.381709337 0.921528041 0.0713022575 -0.382438689 0.923288882 0.0357533582 0.829353511 -0.554155886 0.0713022575 0.83093822 -0.555214763 0.0357533619 0.706654787 -0.706654608 0.0357533656 0.705307126 -0.705306947 0.0713022724 -0.554156005 0.829353392 0.0713022575 -0.555214822 0.83093816 0.0357533582 -0.705306888 0.705307126 0.0713022426 -0.706654608 0.706654787 0.0357533544 -0.923879623 -0.382683367 0 -0.980785251 -0.195090652 0 0.555570126 0.831469655 0 0.707106948 0.70710659 0 -0.831469595 -0.555570245 0 0.382683188 0.923879683 0 0.195090577 -0.980785251 0 0 -1 0 -0.707106709 -0.707106948 0 0.195090443 0.980785251 0 0.382683307 -0.923879623 0 -0.555570126 -0.831469774 0 0 1 0 0.555570126 -0.831469655 0 -0.382683456 -0.923879564 0 -0.195090443 0.980785251 0 0.707106948 -0.70710659 0 -0.195090577 -0.980785251 0 -0.382683367 0.923879623 0 0.831469834 -0.555569947 0 0.707106948 -0.70710659 0 -0.555570126 0.831469774 0 0.923879623 -0.382683396 0 -0.707106709 0.707106948 0 0.980785251 -0.195090622 0 -0.831469655 0.555570185 0 -0.707106709 0.707106948 0 1 -9.53227364e-09 0 -0.923879564 0.382683396 0 0.980785251 0.195090666 0 -0.980785251 0.195090666 0 0.923879564 0.382683426 0 -1 -9.53227364e-09 0 0.831469834 0.555569947 0 -5.00791696e-14 0 -1 -5.00791696e-14 0 -1 -5.00791696e-14 0 -1 -5.00791696e-14 0 -1 -5.00791696e-14 0 -1 -5.00791696e-14 0 -1 -5.00791696e-14 0 -1 -5.00791696e-14 0 -1 -5.00791696e-14 0 -1 -5.00791696e-14 0 -1 -5.00791696e-14 0 -1 -5.00791696e-14 0 -1 -5.00791696e-14 0 -1 -5.00791696e-14 0 -1 -5.00791696e-14 0 -1 -5.00791696e-14 0 -1 -5.00791696e-14 0 -1 -5.00791696e-14 0 -1 -5.00791696e-14 0 -1 -5.00791696e-14 0 -1 -5.00791696e-14 0 -1 -5.00791696e-14 0 -1 -5.00791696e-14 0 -1 -5.00791696e-14 0 -1 -5.00791696e-14 0 -1 -5.00791696e-14 0 -1 -5.00791696e-14 0 -1 -5.00791696e-14 0 -1 -5.00791696e-14 0 -1 -5.00791696e-14 0 -1 -5.00791696e-14 0 -1 -5.00791696e-14 0 -1 0 0 -1 0 0 -1 0 0 -1 0 0 -1 0 0 -1 0 0 -1 0 0 -1 0 0 -1 0 0 -1 0 0 -1 0 0 -1 0 0 -1 0 0 -1 0 0 -1 0 0 -1 0 0 -1 0 0 -1 0 0 -1 0 0 -1 0 0 -1 0 0 -1 0 0 -1 0 0 -1 0 0 -1 0 0 -1 0 0 -1 0 0 -1 0 0 -1 0 0 -1 0 0 -1 0 0 -1 0 0 -1 </float_array>
          <technique_common>
            <accessor count="430" offset="0" source="#Plane.007_1-normals-array" stride="3">
              <param name="X" type="float" />
              <param name="Y" type="float" />
              <param name="Z" type="float" />
            </accessor>
          </technique_common>
        </source>
        <source id="Plane.007_1-tex0" name="Plane.007_1-tex0">
          <float_array id="Plane.007_1-tex0-array" count="860"> 0.604146779 0.0831876099 0.576843023 0.658683121 0.629164219 0.658683121 0.647971392 0.0831876099 0.841982007 0.0831876099 0.860789001 0.658683121 0.913110137 0.658683121 0.885806441 0.0831876099 0.794429481 0.0831876099 0.804017305 0.658683121 0.74497658 0.658683121 0.74497658 0.0831876099 0.565734148 0.0831876099 0.53098315 0.658683121 0.794429481 0.0831876099 0.804017305 0.658683121 0.841982007 0.0831876099 0.860789001 0.658683121 0.885806441 0.0831876099 0.913110137 0.658683121 0.95897007 0.658683121 0.924219012 0.0831876099 0.74497658 0.0831876099 0.74497658 0.658683121 0.885806441 0.0831876099 0.913110137 0.658683121 0.841982007 0.0831876099 0.860789001 0.658683121 0.924219012 0.0831876099 0.95897007 0.658683121 0.794429481 0.0831876099 0.804017305 0.658683121 0.604146779 0.0831876099 0.576843023 0.658683121 0.53098315 0.658683121 0.565734148 0.0831876099 0.74497658 0.0831876099 0.74497658 0.658683121 0.647971392 0.0831876099 0.629164219 0.658683121 0.695523739 0.0831876099 0.685935974 0.658683121 0.695523739 0.0831876099 0.685935974 0.658683121 0.647971392 0.0831876099 0.629164219 0.658683121 0.74497658 0.0831876099 0.74497658 0.658683121 0.604146779 0.0831876099 0.576843023 0.658683121 0.794429481 0.0831876099 0.804017305 0.658683121 0.565734148 0.0831876099 0.53098315 0.658683121 0.841982007 0.0831876099 0.860789001 0.658683121 0.604146779 0.0831876099 0.576843023 0.658683121 0.885806441 0.0831876099 0.913110137 0.658683121 0.647971392 0.0831876099 0.629164219 0.658683121 0.695523739 0.0831876099 0.685935974 0.658683121 0.924219012 0.0831876099 0.95897007 0.658683121 0.695523739 0.0831876099 0.685935974 0.658683121 0.957974434 0.481112927 0.972952425 0.485277295 0.977496386 0.42078799 0.96222508 0.42078799 0.5845806 0.202138931 0.573782206 0.187045217 0.544371486 0.237137496 0.557069123 0.248996675 0.945385754 0.53911984 0.959494591 0.547288477 0.618103325 0.163683921 0.609619021 0.145935506 0.924943089 0.592579305 0.937640607 0.604438126 0.656349242 0.135109514 0.650505185 0.115388423 0.69784838 0.724062622 0.694869101 0.744998217 0.741006076 0.751349747 0.741006076 0.730004013 0.897431672 0.639436722 0.908229947 0.654530644 0.69784838 0.117513239 0.694869101 0.0965776145 0.656349242 0.706466138 0.650505185 0.726187408 0.863908887 0.677891672 0.872392952 0.695640206 0.741006076 0.11157167 0.741006076 0.0902259052 0.618103325 0.677891672 0.609619021 0.695640206 0.825662851 0.706466138 0.831507027 0.726187408 0.784163713 0.117513239 0.787143052 0.0965776145 0.5845806 0.639436722 0.573782206 0.654530644 0.784163713 0.724062622 0.787143052 0.744998217 0.825662851 0.135109514 0.831507027 0.115388423 0.557069123 0.592579305 0.544371486 0.604438126 0.863908887 0.163683921 0.872392952 0.145935506 0.536626279 0.53911984 0.522517443 0.547288477 0.897431672 0.202138931 0.908229947 0.187045217 0.524037659 0.481112927 0.509059787 0.485277295 0.924943089 0.248996675 0.937640607 0.237137496 0.519786954 0.42078799 0.504515886 0.42078799 0.945385754 0.302455783 0.959494591 0.294287205 0.524037659 0.360462666 0.509059787 0.356298268 0.957974434 0.360462666 0.972952425 0.356298268 0.536626279 0.302455783 0.522517443 0.294287205 0.681860268 0.658683121 0.681860268 0.782484949 0.74497658 0.782484949 0.74497658 0.658683121 0.973742545 0.658683121 0.973742545 0.782484949 0.924716771 0.782484949 0.924716771 0.658683121 0.681860268 0.658683121 0.681860268 0.782484949 0.621169388 0.782484949 0.621169388 0.658683121 0.621169388 0.658683121 0.621169388 0.782484949 0.924716771 0.658683121 0.924716771 0.782484949 0.74497658 0.658683121 0.74497658 0.782484949 0.56523639 0.658683121 0.56523639 0.782484949 0.868783832 0.658683121 0.868783832 0.782484949 0.808093011 0.658683121 0.808093011 0.782484949 0.516210794 0.658683121 0.516210794 0.782484949 0.808093011 0.658683121 0.808093011 0.782484949 0.868783832 0.658683121 0.868783832 0.782484949 0.924716771 0.658683121 0.924716771 0.782484949 0.973742545 0.782484949 0.973742545 0.658683121 0.924716771 0.658683121 0.924716771 0.782484949 0.868783832 0.658683121 0.868783832 0.782484949 0.973742545 0.658683121 0.973742545 0.782484949 0.808093011 0.658683121 0.808093011 0.782484949 0.56523639 0.658683121 0.56523639 0.782484949 0.516210794 0.782484949 0.516210794 0.658683121 0.74497658 0.658683121 0.74497658 0.782484949 0.621169388 0.658683121 0.621169388 0.782484949 0.681860268 0.658683121 0.681860268 0.782484949 0.681860268 0.658683121 0.681860268 0.782484949 0.621169388 0.658683121 0.621169388 0.782484949 0.74497658 0.658683121 0.74497658 0.782484949 0.56523639 0.658683121 0.56523639 0.782484949 0.808093011 0.658683121 0.808093011 0.782484949 0.516210794 0.658683121 0.516210794 0.782484949 0.868783832 0.658683121 0.868783832 0.782484949 0.56523639 0.658683121 0.56523639 0.782484949 0.573811233 0.656241119 0.597606182 0.622980893 0.628343761 0.658240855 0.609648108 0.6973508 0.787172139 0.74670893 0.780607045 0.70057565 0.818658292 0.684441447 0.831535935 0.727897942 0.831535935 0.117099077 0.818658292 0.160555631 0.780607045 0.144421428 0.787172139 0.0982881784 0.544400692 0.606148899 0.572380602 0.580016494 0.741035044 0.75306052 0.741035044 0.706023395 0.872422099 0.147646219 0.853726447 0.186756089 0.522546589 0.548999131 0.553636312 0.530998826 0.908259034 0.18875587 0.884464025 0.222016111 0.509088874 0.486987978 0.542093515 0.477811456 0.937669635 0.238848105 0.909689665 0.264980525 0.504544735 0.422498524 0.538195968 0.422498524 0.959523678 0.295997918 0.928433895 0.313998193 0.509088874 0.35800904 0.542093515 0.367185444 0.972981334 0.35800904 0.939976752 0.367185444 0.522546589 0.295997918 0.553636312 0.313998193 0.977525413 0.422498524 0.943874121 0.422498524 0.544400692 0.238848105 0.572380602 0.264980525 0.972981334 0.486987978 0.939976752 0.477811456 0.573811233 0.18875587 0.597606182 0.222016111 0.959523678 0.548999131 0.928433895 0.530998826 0.609648108 0.147646219 0.628343761 0.186756089 0.937669635 0.606148899 0.909689665 0.580016494 0.650534272 0.117099077 0.663411915 0.160555631 0.694898248 0.74670893 0.701463223 0.70057565 0.908259034 0.656241119 0.884464025 0.622980893 0.694898248 0.0982881784 0.701463223 0.144421428 0.650534272 0.727897942 0.663411915 0.684441447 0.872422099 0.6973508 0.853726447 0.658240855 0.741035044 0.0919364989 0.741035044 0.138973564 0.799111903 0.782484949 0.791108429 0.099362433 0.835467339 0.099362433 0.851166725 0.782484949 0.590812385 0.782484949 0.613604426 0.099362433 0.577771544 0.099362433 0.548762798 0.782484949 0.74497658 0.782484949 0.74497658 0.099362433 0.638786495 0.782484949 0.654485941 0.099362433 0.690841317 0.782484949 0.69884485 0.099362433 0.690841317 0.782484949 0.69884485 0.099362433 0.638786495 0.782484949 0.654485941 0.099362433 0.74497658 0.782484949 0.74497658 0.099362433 0.590812385 0.782484949 0.613604426 0.099362433 0.799111903 0.782484949 0.791108429 0.099362433 0.548762798 0.782484949 0.577771544 0.099362433 0.851166725 0.782484949 0.835467339 0.099362433 0.590812385 0.782484949 0.613604426 0.099362433 0.899140835 0.782484949 0.876348794 0.099362433 0.638786495 0.782484949 0.654485941 0.099362433 0.690841317 0.782484949 0.69884485 0.099362433 0.74497658 0.099362433 0.74497658 0.782484949 0.941190481 0.782484949 0.912181497 0.099362433 0.690841317 0.782484949 0.69884485 0.099362433 0.638786495 0.782484949 0.654485941 0.099362433 0.899140835 0.782484949 0.876348794 0.099362433 0.74497658 0.782484949 0.74497658 0.099362433 0.590812385 0.782484949 0.613604426 0.099362433 0.851166725 0.782484949 0.835467339 0.099362433 0.799111903 0.782484949 0.791108429 0.099362433 0.548762798 0.782484949 0.577771544 0.099362433 0.799111903 0.782484949 0.791108429 0.099362433 0.851166725 0.782484949 0.835467339 0.099362433 0.899140835 0.782484949 0.876348794 0.099362433 0.912181497 0.099362433 0.941190481 0.782484949 0.899140835 0.782484949 0.876348794 0.099362433 0.941190481 0.782484949 0.912181497 0.099362433 0.835467339 0.0829158723 0.791108429 0.0829158723 0.613604426 0.0829158723 0.577771544 0.0829158723 0.876348794 0.0829158723 0.654485941 0.0829158723 0.69884485 0.0829158723 0.74497658 0.0829158723 0.912181497 0.0829158723 0.69884485 0.0829158723 0.654485941 0.0829158723 0.876348794 0.0829158723 0.74497658 0.0829158723 0.613604426 0.0829158723 0.835467339 0.0829158723 0.791108429 0.0829158723 0.577771544 0.0829158723 0.791108429 0.0829158723 0.835467339 0.0829158723 0.876348794 0.0829158723 0.912181497 0.0829158723 0.876348794 0.0829158723 0.835467339 0.0829158723 0.912181497 0.0829158723 0.791108429 0.0829158723 0.613604426 0.0829158723 0.577771544 0.0829158723 0.74497658 0.0829158723 0.654485941 0.0829158723 0.69884485 0.0829158723 0.69884485 0.0829158723 0.654485941 0.0829158723 0.74497658 0.0829158723 0.613604426 0.0829158723 0.697240472 0.751341045 0.745106637 0.757930815 0.792972982 0.751341045 0.838999629 0.731825173 0.88141799 0.700132906 0.918598115 0.657482564 0.949111104 0.605512679 0.971784294 0.546221077 0.985746384 0.481885612 0.990460694 0.414979219 0.985746384 0.348072648 0.971784294 0.283737421 0.949111104 0.224445611 0.918598115 0.172475904 0.88141799 0.129825383 0.838999629 0.0981334448 0.792972982 0.0786175132 0.745106637 0.0720276833 0.697240472 0.0786175132 0.651213765 0.0981334448 0.608795285 0.129825383 0.57161516 0.172475904 0.541102171 0.224445611 0.518429101 0.283737421 0.50446701 0.348072648 0.499752671 0.414979219 0.50446701 0.481885612 0.518429101 0.546221077 0.541102171 0.605512679 0.57161516 0.657482564 0.608795285 0.700132906 0.651213765 0.731825173 0.697240472 0.751341045 0.651213765 0.731825173 0.608795285 0.700132906 0.57161516 0.657482564 0.541102171 0.605512679 0.518429101 0.546221077 0.50446701 0.481885612 0.499752671 0.414979219 0.50446701 0.348072648 0.518429101 0.283737421 0.541102171 0.224445611 0.57161516 0.172475904 0.608795285 0.129825383 0.651213765 0.0981334448 0.697240472 0.0786175132 0.745106637 0.0720276833 0.792972982 0.0786175132 0.838999629 0.0981334448 0.88141799 0.129825383 0.918598115 0.172475904 0.949111104 0.224445611 0.971784294 0.283737421 0.985746384 0.348072648 0.990460694 0.414979219 0.985746384 0.481885612 0.971784294 0.546221077 0.949111104 0.605512679 0.918598115 0.657482564 0.88141799 0.700132906 0.838999629 0.731825173 0.792972982 0.751341045 0.745106637 0.757930815 </float_array>
          <technique_common>
            <accessor count="430" offset="0" source="#Plane.007_1-tex0-array" stride="2">
              <param name="S" type="float" />
              <param name="T" type="float" />
            </accessor>
          </technique_common>
        </source>
        <vertices id="Plane.007_1-vertices">
          <input semantic="POSITION" source="#Plane.007_1-positions" />
        </vertices>
        <polylist count="444" material="defaultMaterial">
          <input offset="0" semantic="VERTEX" source="#Plane.007_1-vertices" />
          <input offset="0" semantic="NORMAL" source="#Plane.007_1-normals" />
          <input offset="0" semantic="TEXCOORD" source="#Plane.007_1-tex0" set="0" />
          <vcount>3 3 3 3 3 3 3 3 3 3 3 3 3 3 3 3 3 3 3 3 3 3 3 3 3 3 3 3 3 3 3 3 3 3 3 3 3 3 3 3 3 3 3 3 3 3 3 3 3 3 3 3 3 3 3 3 3 3 3 3 3 3 3 3 3 3 3 3 3 3 3 3 3 3 3 3 3 3 3 3 3 3 3 3 3 3 3 3 3 3 3 3 3 3 3 3 3 3 3 3 3 3 3 3 3 3 3 3 3 3 3 3 3 3 3 3 3 3 3 3 3 3 3 3 3 3 3 3 3 3 3 3 3 3 3 3 3 3 3 3 3 3 3 3 3 3 3 3 3 3 3 3 3 3 3 3 3 3 3 3 3 3 3 3 3 3 3 3 3 3 3 3 3 3 3 3 3 3 3 3 3 3 3 3 3 3 3 3 3 3 3 3 3 3 3 3 3 3 3 3 3 3 3 3 3 3 3 3 3 3 3 3 3 3 3 3 3 3 3 3 3 3 3 3 3 3 3 3 3 3 3 3 3 3 3 3 3 3 3 3 3 3 3 3 3 3 3 3 3 3 3 3 3 3 3 3 3 3 3 3 3 3 3 3 3 3 3 3 3 3 3 3 3 3 3 3 3 3 3 3 3 3 3 3 3 3 3 3 3 3 3 3 3 3 3 3 3 3 3 3 3 3 3 3 3 3 3 3 3 3 3 3 3 3 3 3 3 3 3 3 3 3 3 3 3 3 3 3 3 3 3 3 3 3 3 3 3 3 3 3 3 3 3 3 3 3 3 3 3 3 3 3 3 3 3 3 3 3 3 3 3 3 3 3 3 3 3 3 3 3 3 3 3 3 3 3 3 3 3 3 3 3 3 3 3 3 3 3 3 3 3 3 3 3 3 3 3 3 3 3 3 3 3 3 3 3 3 3 3 3 3 3 3 3 3 3 3 3 3 3 3 3 3 3 3 3 3 3 3 3 3 3 3 3 3 3 3 3 3 3 3 3 3 3 </vcount>
          <p>0 1 2 0 2 3 4 5 6 4 6 7 8 9 10 8 10 11 12 13 1 12 1 0 14 15 5 14 5 4 16 17 9 16 9 8 18 19 20 18 20 21 22 23 15 22 15 14 24 25 17 24 17 16 26 27 19 26 19 18 28 29 25 28 25 24 30 31 27 30 27 26 32 33 34 32 34 35 36 37 31 36 31 30 38 39 33 38 33 32 40 41 37 40 37 36 42 43 39 42 39 38 44 45 41 44 41 40 46 47 43 46 43 42 48 49 45 48 45 44 50 51 47 50 47 46 52 53 49 52 49 48 54 55 51 54 51 50 56 57 53 56 53 52 58 59 55 58 55 54 60 61 57 60 57 56 62 63 23 62 23 22 64 65 59 64 59 58 66 67 61 66 61 60 3 2 63 3 63 62 7 6 65 7 65 64 11 10 67 11 67 66 68 69 70 68 70 71 72 73 74 72 74 75 76 77 69 76 69 68 78 79 73 78 73 72 80 81 77 80 77 76 82 83 79 82 79 78 84 85 86 84 86 87 88 89 81 88 81 80 90 91 83 90 83 82 92 93 85 92 85 84 94 95 89 94 89 88 96 97 91 96 91 90 98 99 93 98 93 92 100 101 95 100 95 94 102 103 97 102 97 96 104 105 99 104 99 98 106 107 101 106 101 100 108 109 103 108 103 102 110 111 105 110 105 104 87 86 107 87 107 106 112 113 109 112 109 108 114 115 111 114 111 110 116 117 113 116 113 112 118 119 115 118 115 114 120 121 117 120 117 116 122 123 119 122 119 118 124 125 121 124 121 120 126 127 123 126 123 122 128 129 125 128 125 124 130 131 127 130 127 126 71 70 129 71 129 128 75 74 131 75 131 130 132 133 134 132 134 135 136 137 138 136 138 139 140 141 142 140 142 143 144 145 133 144 133 132 146 147 137 146 137 136 148 149 141 148 141 140 150 151 145 150 145 144 152 153 147 152 147 146 154 155 149 154 149 148 156 157 151 156 151 150 158 159 153 158 153 152 160 161 155 160 155 154 162 163 164 162 164 165 135 134 159 135 159 158 166 167 161 166 161 160 168 169 163 168 163 162 170 171 167 170 167 166 172 173 169 172 169 168 174 175 176 174 176 177 178 179 173 178 173 172 180 181 175 180 175 174 182 183 179 182 179 178 184 185 181 184 181 180 186 187 183 186 183 182 188 189 185 188 185 184 190 191 187 190 187 186 192 193 189 192 189 188 194 195 191 194 191 190 196 197 193 196 193 192 198 199 195 198 195 194 139 138 197 139 197 196 143 142 199 143 199 198 200 201 202 200 202 203 204 205 206 204 206 207 208 209 210 208 210 211 212 213 201 212 201 200 214 215 205 214 205 204 216 217 209 216 209 208 218 219 213 218 213 212 220 221 217 220 217 216 222 223 219 222 219 218 224 225 221 224 221 220 226 227 223 226 223 222 228 229 225 228 225 224 230 231 227 230 227 226 232 233 229 232 229 228 234 235 231 234 231 230 236 237 233 236 233 232 238 239 235 238 235 234 240 241 237 240 237 236 242 243 239 242 239 238 244 245 241 244 241 240 246 247 243 246 243 242 248 249 245 248 245 244 250 251 247 250 247 246 252 253 215 252 215 214 254 255 249 254 249 248 256 257 251 256 251 250 258 259 253 258 253 252 260 261 255 260 255 254 262 263 257 262 257 256 203 202 259 203 259 258 207 206 261 207 261 260 211 210 263 211 263 262 264 265 266 264 266 267 268 269 270 268 270 271 272 273 265 272 265 264 274 275 269 274 269 268 276 277 273 276 273 272 278 279 275 278 275 274 280 281 277 280 277 276 282 283 279 282 279 278 284 285 281 284 281 280 286 287 283 286 283 282 288 289 285 288 285 284 290 291 287 290 287 286 292 293 289 292 289 288 294 295 291 294 291 290 296 297 293 296 293 292 298 299 300 298 300 301 302 303 295 302 295 294 304 305 297 304 297 296 306 307 299 306 299 298 308 309 303 308 303 302 310 311 305 310 305 304 312 313 307 312 307 306 314 315 309 314 309 308 316 317 311 316 311 310 318 319 313 318 313 312 320 321 315 320 315 314 322 323 317 322 317 316 324 325 326 324 326 327 301 300 321 301 321 320 328 329 323 328 323 322 267 266 325 267 325 324 330 331 329 330 329 328 291 332 333 291 333 287 293 334 335 293 335 289 295 336 332 295 332 291 297 337 334 297 334 293 299 338 339 299 339 300 303 340 336 303 336 295 305 341 337 305 337 297 307 342 338 307 338 299 309 343 340 309 340 303 311 344 341 311 341 305 313 345 342 313 342 307 315 346 343 315 343 309 317 347 344 317 344 311 319 348 345 319 345 313 321 349 346 321 346 315 323 350 347 323 347 317 325 351 352 325 352 326 300 339 349 300 349 321 329 353 350 329 350 323 266 354 351 266 351 325 331 355 353 331 353 329 265 356 354 265 354 266 269 357 358 269 358 270 273 359 356 273 356 265 275 360 357 275 357 269 277 361 359 277 359 273 279 362 360 279 360 275 281 363 361 281 361 277 283 364 362 283 362 279 285 365 363 285 363 281 287 333 364 287 364 283 289 335 365 289 365 285 397 366 367 368 397 367 397 368 369 370 397 369 397 370 371 372 397 371 397 372 373 374 397 373 397 374 375 376 397 375 397 376 377 378 397 377 397 378 379 380 397 379 397 380 381 382 397 381 397 382 383 384 397 383 397 384 385 386 397 385 397 386 387 388 397 387 397 388 389 390 397 389 397 390 391 392 397 391 397 392 393 394 397 393 397 394 395 395 396 397 429 398 399 400 429 399 429 400 401 402 429 401 429 402 403 404 429 403 429 404 405 406 429 405 429 406 407 408 429 407 429 408 409 410 429 409 429 410 411 412 429 411 429 412 413 414 429 413 429 414 415 416 429 415 429 416 417 418 429 417 429 418 419 420 429 419 429 420 421 422 429 421 429 422 423 424 429 423 429 424 425 426 429 425 429 426 427 427 428 429 </p>
        </polylist>
      </mesh>
    </geometry>
    <geometry id="Plane.007_2" name="Soil" >
      <mesh>
        <source id="Plane.007_2-positions" name="Plane.007_2-positions">
          <float_array id="Plane.007_2-positions-array" count="96"> 0.0870786458 1.29672134 2.06163764 -0.137670904 1.27458537 2.06163764 -0.353783488 1.20902836 2.06163764 -0.552953959 1.10256958 2.06163764 -0.727528334 0.959300101 2.06163764 -0.870797813 0.784725726 2.06163764 -0.977256596 0.585555255 2.06163764 -1.04281354 0.369442701 2.06163764 -1.06494951 0.144693136 2.06163764 -1.04281354 -0.080056414 2.06163764 -0.977256596 -0.296168983 2.06163764 -0.870797813 -0.495339453 2.06163764 -0.727528334 -0.669913828 2.06163764 -0.552953959 -0.813183308 2.06163764 -0.353783488 -0.919642091 2.06163764 -0.137670904 -0.985199094 2.06163764 0.0870786458 -1.00733507 2.06163764 0.311828196 -0.985199094 2.06163764 0.52794075 -0.919642091 2.06163764 0.72711122 -0.813183308 2.06163764 0.901685596 -0.669913828 2.06163764 1.04495513 -0.495339453 2.06163764 1.15141392 -0.296168983 2.06163764 1.21697092 -0.080056414 2.06163764 1.23910689 0.144693136 2.06163764 1.21697092 0.369442701 2.06163764 1.15141392 0.585555255 2.06163764 1.04495513 0.784725726 2.06163764 0.901685596 0.959300101 2.06163764 0.72711122 1.10256958 2.06163764 0.52794075 1.20902836 2.06163764 0.311828196 1.27458537 2.06163764 </float_array>
          <technique_common>
            <accessor count="32" offset="0" source="#Plane.007_2-positions-array" stride="3">
              <param name="X" type="float" />
              <param name="Y" type="float" />
              <param name="Z" type="float" />
            </accessor>
          </technique_common>
        </source>
        <source id="Plane.007_2-normals" name="Plane.007_2-normals">
          <float_array id="Plane.007_2-normals-array" count="96"> 5.75517056e-08 0 1 5.75517056e-08 0 1 5.75517056e-08 0 1 5.75517056e-08 0 1 5.75517056e-08 0 1 5.75517056e-08 0 1 5.75517056e-08 0 1 5.75517056e-08 0 1 5.75517056e-08 0 1 5.75517056e-08 0 1 5.75517056e-08 0 1 5.75517056e-08 0 1 5.75517056e-08 0 1 5.75517056e-08 0 1 5.75517056e-08 0 1 5.75517056e-08 0 1 5.75517056e-08 0 1 5.75517056e-08 0 1 5.75517056e-08 0 1 5.75517056e-08 0 1 5.75517056e-08 0 1 5.75517056e-08 0 1 5.75517056e-08 0 1 5.75517056e-08 0 1 5.75517056e-08 0 1 5.75517056e-08 0 1 5.75517056e-08 0 1 5.75517056e-08 0 1 5.75517056e-08 0 1 5.75517056e-08 0 1 5.75517056e-08 0 1 5.75517056e-08 0 1 </float_array>
          <technique_common>
            <accessor count="32" offset="0" source="#Plane.007_2-normals-array" stride="3">
              <param name="X" type="float" />
              <param name="Y" type="float" />
              <param name="Z" type="float" />
            </accessor>
          </technique_common>
        </source>
        <source id="Plane.007_2-tex0" name="Plane.007_2-tex0">
          <float_array id="Plane.007_2-tex0-array" count="64"> 0.241117269 0.995844424 0.196702942 0.991469979 0.153995365 0.978514731 0.114635929 0.957476616 0.0801370293 0.929164231 0.051824566 0.89466536 0.0307864808 0.85530591 0.0178312771 0.812598348 0.0134568037 0.768183947 0.0178312771 0.723769546 0.0307864808 0.681061983 0.051824566 0.641702533 0.0801370293 0.607203722 0.114635929 0.578891277 0.153995365 0.557853162 0.196702942 0.544897914 0.241117269 0.540523469 0.28553164 0.544897914 0.328239202 0.557853162 0.367598653 0.578891277 0.402097553 0.607203722 0.430409968 0.641702533 0.451448053 0.681061983 0.464403301 0.723769546 0.468777716 0.768183947 0.464403301 0.812598348 0.451448053 0.85530591 0.430409968 0.89466536 0.402097553 0.929164231 0.367598653 0.957476616 0.328239202 0.978514731 0.28553164 0.991469979 </float_array>
          <technique_common>
            <accessor count="32" offset="0" source="#Plane.007_2-tex0-array" stride="2">
              <param name="S" type="float" />
              <param name="T" type="float" />
            </accessor>
          </technique_common>
        </source>
        <vertices id="Plane.007_2-vertices">
          <input semantic="POSITION" source="#Plane.007_2-positions" />
        </vertices>
        <polylist count="30" material="defaultMaterial">
          <input offset="0" semantic="VERTEX" source="#Plane.007_2-vertices" />
          <input offset="0" semantic="NORMAL" source="#Plane.007_2-normals" />
          <input offset="0" semantic="TEXCOORD" source="#Plane.007_2-tex0" set="0" />
          <vcount>3 3 3 3 3 3 3 3 3 3 3 3 3 3 3 3 3 3 3 3 3 3 3 3 3 3 3 3 3 3 </vcount>
          <p>31 0 1 2 31 1 31 2 3 4 31 3 31 4 5 6 31 5 31 6 7 8 31 7 31 8 9 10 31 9 31 10 11 12 31 11 31 12 13 14 31 13 31 14 15 16 31 15 31 16 17 18 31 17 31 18 19 20 31 19 31 20 21 22 31 21 31 22 23 24 31 23 31 24 25 26 31 25 31 26 27 28 31 27 31 28 29 29 30 31 </p>
        </polylist>
      </mesh>
    </geometry>
  </library_geometries>
  <library_controllers>
  </library_controllers>
  <library_visual_scenes>
    <visual_scene id="RootNode" name="RootNode">
      <node id="FlowerPot" name="FlowerPot" type="NODE">
        <matrix sid="matrix">1 0 0 0 0 1 0 0 0 0 1 0 0 0 0 1</matrix>
        <instance_geometry url="#Plane.007">
          <bind_material>
            <technique_common>
              <instance_material symbol="defaultMaterial" target="#Material.002">
                <bind_vertex_input semantic="CHANNEL0" input_semantic="TEXCOORD" input_set="0"/>
              </instance_material>
            </technique_common>
          </bind_material>
        </instance_geometry>
        <instance_geometry url="#Plane.007_1">
          <bind_material>
            <technique_common>
              <instance_material symbol="defaultMaterial" target="#Material.003">
                <bind_vertex_input semantic="CHANNEL0" input_semantic="TEXCOORD" input_set="0"/>
              </instance_material>
            </technique_common>
          </bind_material>
        </instance_geometry>
        <instance_geometry url="#Plane.007_2">
          <bind_material>
            <technique_common>
              <instance_material symbol="defaultMaterial" target="#Material.001">
                <bind_vertex_input semantic="CHANNEL0" input_semantic="TEXCOORD" input_set="0"/>
              </instance_material>
            </technique_common>
          </bind_material>
        </instance_geometry>
      </node>
    </visual_scene>
  </library_visual_scenes>
  <scene>
    <instance_visual_scene url="#RootNode" />
  </scene>
</COLLADA>
