# Low-poly, double-sided leaf segment. Physics uses a simpler SDF box.
o leaf_segment
v -0.036 -0.012  0.0015
v -0.018 -0.022  0.0015
v  0.018 -0.020  0.0015
v  0.036 -0.010  0.0015
v  0.036  0.010  0.0015
v  0.018  0.020  0.0015
v -0.018  0.022  0.0015
v -0.036  0.012  0.0015
v -0.036 -0.012 -0.0015
v -0.018 -0.022 -0.0015
v  0.018 -0.020 -0.0015
v  0.036 -0.010 -0.0015
v  0.036  0.010 -0.0015
v  0.018  0.020 -0.0015
v -0.018  0.022 -0.0015
v -0.036  0.012 -0.0015
f 1 2 3
f 1 3 4
f 1 4 5
f 1 5 6
f 1 6 7
f 1 7 8
f 16 15 14
f 16 14 13
f 16 13 12
f 16 12 11
f 16 11 10
f 16 10 9
f 1 9 10 2
f 2 10 11 3
f 3 11 12 4
f 4 12 13 5
f 5 13 14 6
f 6 14 15 7
f 7 15 16 8
f 8 16 9 1
